{"glyphs":{"0":{"ha":863,"x_min":76,"x_max":786,"o":"m 432 -14 q 265 16 343 -14 q 131 113 186 46 q 76 275 76 181 l 76 708 q 131 871 76 803 q 265 968 186 939 q 432 997 343 997 q 599 968 521 997 q 731 871 676 939 q 786 708 786 803 l 786 275 q 679 61 786 136 q 432 -14 572 -14 m 192 708 l 192 272 q 230 169 192 211 q 320 113 268 128 q 432 97 372 97 q 544 113 492 97 q 634 169 596 128 q 672 272 672 211 l 672 708 q 601 841 672 799 q 432 883 529 883 q 263 841 335 883 q 192 708 192 799 z "},"1":{"ha":443,"x_min":11,"x_max":349,"o":"m 349 0 l 236 0 l 236 818 l 97 669 l 11 739 l 243 983 l 349 983 l 349 0 z "},"2":{"ha":792,"x_min":50,"x_max":728,"o":"m 400 883 q 252 846 317 883 q 157 743 188 808 l 54 786 q 191 942 97 888 q 403 997 285 997 q 637 915 546 997 q 728 718 728 833 q 695 592 728 660 q 607 468 663 525 l 250 115 l 728 115 l 728 1 l 86 1 l 50 85 l 524 547 q 613 719 613 632 q 553 836 613 789 q 400 883 494 883 z "},"3":{"ha":807,"x_min":40,"x_max":749,"o":"m 40 186 l 144 236 q 246 135 176 172 q 394 97 315 97 q 563 147 492 97 q 635 282 635 196 q 578 428 635 379 q 421 475 522 476 l 325 475 l 325 575 l 421 575 q 544 615 497 575 q 592 731 592 656 q 534 846 592 806 q 394 886 476 886 q 267 856 326 886 q 178 769 208 825 l 79 821 q 208 951 121 904 q 394 997 296 997 q 613 928 522 997 q 704 731 704 858 q 676 612 704 667 q 592 531 649 557 q 709 435 669 504 q 749 281 749 367 q 695 117 747 186 q 565 17 643 49 q 394 -14 486 -14 q 185 38 283 -14 q 40 186 86 90 z "},"4":{"ha":785,"x_min":17,"x_max":731,"o":"m 731 351 l 731 246 l 653 246 l 653 3 l 539 3 l 539 246 l 92 246 l 17 347 l 533 983 l 653 983 l 653 351 l 731 351 m 164 351 l 539 351 l 542 822 l 164 351 z "},"5":{"ha":807,"x_min":54,"x_max":756,"o":"m 54 183 l 158 232 q 256 137 189 171 q 399 103 322 103 q 569 158 496 103 q 642 303 642 213 l 642 347 q 573 486 642 436 q 406 536 504 536 q 157 478 282 536 l 93 475 l 93 983 l 707 983 l 707 867 l 207 867 l 207 615 q 406 653 310 654 q 572 619 494 651 q 701 517 649 588 q 756 349 754 446 l 756 303 q 647 72 756 158 q 396 -14 539 -14 q 194 38 288 -14 q 54 183 100 89 z "},"6":{"ha":857,"x_min":76,"x_max":800,"o":"m 442 883 q 265 837 339 883 q 192 706 192 790 l 192 513 q 303 596 235 569 q 442 622 372 622 q 694 544 588 622 q 800 331 800 467 l 800 274 q 694 63 800 138 q 442 -11 589 -11 q 266 19 347 -12 q 131 119 185 51 q 76 279 76 188 l 76 707 q 185 922 76 844 q 442 997 293 999 q 644 947 551 997 q 783 806 738 897 l 679 754 q 442 883 618 883 m 685 281 l 685 329 q 613 460 685 414 q 442 507 542 507 q 265 460 339 507 q 192 329 192 414 l 192 281 q 265 149 192 196 q 442 103 339 103 q 613 149 542 103 q 685 281 685 196 z "},"7":{"ha":713,"x_min":39,"x_max":699,"o":"m 39 983 l 661 983 l 699 907 l 214 0 l 88 0 l 546 869 l 39 869 l 39 983 z "},"8":{"ha":851,"x_min":58,"x_max":793,"o":"m 438 -14 l 413 -14 q 165 64 269 -14 q 58 282 60 142 q 99 427 58 361 q 217 528 139 493 q 132 601 163 547 q 101 714 101 656 q 194 913 103 842 q 413 983 285 983 l 438 983 q 657 913 565 983 q 749 714 749 842 q 721 602 749 656 q 643 526 693 549 q 754 433 715 501 q 793 282 793 364 q 738 120 792 188 q 608 22 685 53 q 438 -14 532 -8 m 438 872 l 413 872 q 272 832 329 872 q 214 714 214 792 q 413 574 214 574 l 438 574 q 636 714 636 574 q 578 832 636 792 q 438 872 521 872 m 413 100 l 438 100 q 606 146 532 100 q 679 283 679 192 q 438 475 679 475 l 413 475 q 171 283 171 475 q 244 146 171 192 q 413 100 318 100 z "},"9":{"ha":857,"x_min":57,"x_max":781,"o":"m 75 179 l 179 232 q 273 135 208 168 q 417 101 338 101 q 593 148 519 101 q 667 279 667 194 l 667 461 q 417 356 597 356 q 163 433 269 357 q 57 644 57 508 l 57 707 q 163 921 57 844 q 417 997 269 997 q 672 922 564 999 q 781 707 779 844 l 781 278 q 672 64 781 140 q 417 -12 564 -12 q 214 38 307 -12 q 75 179 121 88 m 172 706 l 172 646 q 244 515 172 561 q 417 468 315 468 q 593 515 519 468 q 667 646 667 561 l 667 706 q 594 838 667 792 q 417 883 521 883 q 244 837 315 883 q 172 706 172 790 z "}," ":{"ha":292,"x_min":0,"x_max":0,"o":""},"!":{"ha":300,"x_min":68,"x_max":232,"o":"m 93 239 l 93 964 l 207 964 l 207 239 l 93 239 m 92 10 q 80 22 92 10 q 68 68 68 33 q 92 126 68 103 q 150 150 115 150 q 208 126 185 150 q 232 68 232 103 q 208 10 232 33 q 150 -14 185 -14 q 92 10 115 -14 z "},"\"":{"ha":453,"x_min":83,"x_max":383,"o":"m 201 969 l 176 632 l 83 632 l 83 969 l 201 969 m 383 969 l 357 632 l 265 632 l 265 969 l 383 969 z "},"#":{"ha":836,"x_min":40,"x_max":797,"o":"m 740 403 l 715 293 l 565 293 q 523 150 553 250 q 479 -1 493 50 l 360 -1 l 446 293 l 271 293 q 227 140 257 240 q 186 -1 197 39 l 65 -1 l 151 293 l 40 293 l 64 403 l 185 403 q 210 483 192 428 q 238 576 228 539 l 94 576 l 118 688 l 271 688 l 353 968 l 474 968 l 390 688 l 564 688 l 647 968 l 768 968 l 683 688 l 797 688 l 767 576 l 650 576 l 600 403 l 740 403 m 531 576 l 357 576 q 333 497 350 554 q 306 403 315 440 l 478 403 q 531 576 522 546 z "},"$":{"ha":803,"x_min":39,"x_max":756,"o":"m 449 874 l 449 551 q 566 521 519 538 q 662 472 613 504 q 733 383 711 439 q 751 249 756 328 q 658 65 744 135 q 449 -14 572 -4 l 449 -150 l 347 -150 l 347 -14 q 160 50 244 -3 q 39 193 76 103 l 144 240 q 224 147 169 182 q 347 101 278 111 l 347 457 q 235 488 278 472 q 145 532 192 503 q 77 611 99 561 q 60 731 56 661 l 60 729 q 144 908 64 842 q 347 988 225 974 l 347 1122 l 449 1122 l 449 988 q 634 925 550 978 q 756 785 718 872 l 651 738 q 571 831 625 796 q 449 874 517 867 m 174 724 q 213 625 168 657 q 347 572 257 593 l 347 872 q 226 824 275 863 q 174 724 178 785 m 449 435 l 449 101 q 576 151 524 111 q 638 254 629 192 q 590 372 639 331 q 449 435 540 413 z "},"%":{"ha":1083,"x_min":39,"x_max":1043,"o":"m 144 -39 l 821 1032 l 914 972 l 236 -99 l 144 -39 m 465 729 q 406 532 465 606 q 251 458 346 458 q 94 528 150 458 q 39 729 39 597 q 98 924 39 850 q 251 997 157 997 q 408 927 351 997 q 465 729 465 857 m 251 572 q 351 729 351 572 q 250 886 351 886 q 153 729 153 886 q 176 609 153 646 q 251 572 200 572 m 1043 256 q 984 59 1043 132 q 831 -14 925 -14 q 673 55 728 -14 q 618 256 618 124 q 677 451 618 378 q 831 524 736 524 q 987 453 931 524 q 1043 256 1043 383 m 931 256 q 829 414 931 414 q 731 256 731 414 q 755 135 731 172 q 831 99 779 99 q 931 256 931 99 z "},"&":{"ha":875,"x_min":49,"x_max":860,"o":"m 426 542 l 618 314 q 654 374 629 332 q 689 433 679 415 l 786 385 l 697 236 l 860 49 l 711 49 l 631 138 q 503 24 571 63 q 346 -14 436 -14 q 134 63 219 -14 q 49 267 49 140 q 247 563 49 442 q 146 774 146 681 q 219 936 146 875 q 394 997 293 997 q 553 938 486 997 q 621 788 621 879 q 570 645 621 699 q 426 542 519 592 m 390 893 q 299 860 336 893 q 263 775 263 826 q 351 614 263 715 q 406 644 383 631 q 453 678 428 657 q 492 726 479 700 q 506 782 506 751 q 473 862 506 831 q 390 893 440 893 m 557 217 l 319 488 q 210 390 257 449 q 164 269 164 332 q 219 144 164 192 q 358 97 275 97 q 557 217 468 97 z "},"'":{"ha":274,"x_min":83,"x_max":200,"o":"m 200 969 l 182 632 l 83 632 l 83 969 l 200 969 z "},"(":{"ha":383,"x_min":58,"x_max":351,"o":"m 256 1078 l 350 1015 q 218 756 264 904 q 172 468 172 608 q 351 -83 172 203 l 261 -142 q 111 153 164 -7 q 58 468 58 314 q 110 787 58 626 q 256 1078 163 947 z "},")":{"ha":386,"x_min":32,"x_max":329,"o":"m 131 -183 l 32 -121 q 166 138 119 -11 q 213 426 213 286 q 35 1003 213 722 l 125 1063 q 275 756 221 929 q 329 426 329 583 q 277 109 329 269 q 131 -183 225 -51 z "},"*":{"ha":622,"x_min":46,"x_max":575,"o":"m 546 836 l 575 739 l 393 682 l 508 525 l 431 465 l 313 625 l 197 464 l 114 524 l 232 683 l 46 743 l 74 839 l 264 778 l 264 969 l 363 969 l 363 776 l 546 836 z "},"+":{"ha":810,"x_min":51,"x_max":760,"o":"m 356 525 l 356 821 l 468 821 l 468 525 l 760 525 l 760 411 l 468 411 l 468 113 l 356 113 l 356 411 l 51 411 l 51 525 l 356 525 z "},",":{"ha":306,"x_min":4,"x_max":232,"o":"m 232 122 l 118 -182 l 4 -182 l 101 122 l 232 122 z "},"-":{"ha":524,"x_min":81,"x_max":443,"o":"m 443 471 l 443 357 l 81 357 l 81 471 l 443 471 z "},".":{"ha":297,"x_min":67,"x_max":231,"o":"m 90 15 q 78 27 90 15 q 67 74 67 39 q 90 132 67 108 q 149 156 114 156 q 207 132 183 156 q 231 74 231 108 q 207 15 231 39 q 149 -8 183 -8 q 90 15 114 -8 z "},"/":{"ha":576,"x_min":31,"x_max":547,"o":"m 547 986 l 135 -53 l 31 -15 l 444 1022 l 547 986 z "},":":{"ha":325,"x_min":81,"x_max":244,"o":"m 104 533 q 92 545 104 533 q 81 592 81 557 q 104 650 81 626 q 163 674 128 674 q 221 650 197 674 q 244 592 244 626 q 221 533 244 557 q 163 510 197 510 q 104 533 128 510 m 104 35 q 92 47 104 35 q 81 93 81 58 q 104 151 81 128 q 163 175 128 175 q 221 151 197 175 q 244 93 244 128 q 221 35 244 58 q 163 13 197 13 q 104 35 128 13 z "},";":{"ha":353,"x_min":40,"x_max":268,"o":"m 111 514 q 99 526 111 514 q 88 572 88 538 q 111 631 88 607 q 169 654 135 654 q 227 631 204 654 q 250 572 250 607 q 227 514 250 538 q 169 490 204 490 q 111 514 135 490 m 268 156 l 154 -182 l 40 -182 l 125 156 l 268 156 z "},"<":{"ha":614,"x_min":40,"x_max":540,"o":"m 540 628 l 181 418 q 358 315 238 385 q 540 211 479 246 l 540 82 l 40 375 l 40 460 l 540 758 l 540 628 z "},"=":{"ha":740,"x_min":83,"x_max":657,"o":"m 657 571 l 657 463 l 83 463 l 83 571 l 657 571 m 657 361 l 657 251 l 83 251 l 83 361 l 657 361 z "},">":{"ha":615,"x_min":74,"x_max":575,"o":"m 575 460 l 575 375 l 74 82 l 74 211 l 433 418 q 74 628 333 475 l 74 758 l 575 460 z "},"?":{"ha":675,"x_min":32,"x_max":633,"o":"m 32 860 l 44 875 q 164 965 92 933 q 317 997 236 997 q 540 921 447 997 q 632 710 633 844 q 554 508 631 581 q 358 411 478 435 q 353 313 357 375 q 349 217 350 250 l 250 217 l 242 507 q 438 564 356 508 q 519 711 521 619 q 458 840 518 794 q 314 885 397 885 q 119 792 196 885 l 32 860 m 247 8 q 236 19 247 8 q 225 61 225 31 q 247 114 225 92 q 300 136 269 136 q 353 114 331 136 q 375 61 375 92 q 353 8 375 31 q 300 -14 331 -14 q 247 8 269 -14 z "},"@":{"ha":1056,"x_min":60,"x_max":1015,"o":"m 853 757 l 850 761 q 724 853 801 821 q 558 886 647 886 q 279 767 393 886 q 165 488 165 649 q 265 195 165 304 q 554 86 365 86 q 697 115 625 86 l 744 26 q 554 -12 643 -12 q 185 127 310 -12 q 60 488 60 267 q 203 842 60 697 q 556 986 347 986 q 883 869 751 986 q 1015 579 1015 753 q 916 297 1015 415 q 696 179 817 179 q 607 265 611 179 q 538 206 582 226 q 447 185 494 185 q 314 248 369 185 q 258 390 258 311 q 346 663 258 543 q 576 782 433 782 q 660 756 619 782 q 710 688 701 731 l 728 736 l 838 732 l 717 358 q 708 292 699 303 q 725 286 715 286 q 849 382 788 286 q 910 579 910 478 q 853 757 910 685 m 364 393 q 390 318 364 347 q 458 289 415 289 q 597 381 536 289 q 657 561 657 474 q 571 678 657 678 q 419 588 475 679 q 364 393 364 496 z "},"A":{"ha":860,"x_min":6,"x_max":856,"o":"m 500 983 l 856 0 l 733 0 l 619 315 l 240 315 q 192 181 235 300 q 129 0 150 61 l 6 0 l 358 983 l 500 983 m 279 432 l 579 432 q 500 656 549 515 q 429 858 451 796 q 279 432 349 626 z "},"B":{"ha":869,"x_min":103,"x_max":815,"o":"m 769 725 q 688 526 769 594 q 815 282 815 461 q 479 0 810 0 l 103 0 l 103 983 l 481 983 q 688 917 606 983 q 769 725 769 850 m 219 579 l 481 579 q 656 725 656 579 q 481 867 656 867 l 219 867 l 219 579 m 219 117 l 481 117 q 642 151 585 114 q 699 283 699 189 q 481 463 699 465 l 219 463 l 219 117 z "},"C":{"ha":828,"x_min":74,"x_max":796,"o":"m 74 293 l 74 686 q 185 914 74 831 q 449 997 297 997 q 656 947 561 997 q 796 800 751 896 l 692 750 q 590 849 658 814 q 444 883 522 883 q 266 831 342 883 q 190 689 190 779 l 190 293 q 266 153 190 203 q 444 103 342 103 q 592 137 524 103 q 692 235 660 171 l 796 186 q 653 38 750 90 q 444 -14 556 -14 q 184 67 294 -14 q 74 293 74 149 z "},"D":{"ha":886,"x_min":103,"x_max":810,"o":"m 103 983 l 436 983 q 701 908 592 983 q 810 688 810 833 l 810 294 q 754 127 810 196 q 617 29 699 58 q 436 0 535 0 l 103 0 l 103 983 m 219 117 l 436 117 q 619 161 544 117 q 693 294 693 206 l 693 688 q 619 822 693 778 q 436 867 544 867 l 219 867 l 219 117 z "},"E":{"ha":793,"x_min":103,"x_max":733,"o":"m 219 867 l 219 550 l 693 550 l 693 433 l 219 433 l 219 117 l 733 117 l 733 0 l 103 0 l 103 983 l 733 983 l 733 867 l 219 867 z "},"F":{"ha":775,"x_min":103,"x_max":732,"o":"m 219 867 l 219 522 l 669 522 l 669 406 l 219 406 l 219 0 l 103 0 l 103 983 l 732 983 l 732 867 l 219 867 z "},"G":{"ha":878,"x_min":74,"x_max":819,"o":"m 74 297 l 74 690 q 128 859 74 788 q 267 964 183 931 q 446 997 350 997 q 651 945 556 997 q 793 797 747 893 l 688 750 q 589 849 657 814 q 443 883 521 883 q 265 833 340 883 q 189 693 189 783 l 189 297 q 265 154 189 206 q 446 103 342 103 q 627 154 550 103 q 704 297 704 206 l 704 396 l 414 396 l 414 511 l 819 511 l 819 297 q 709 68 819 150 q 446 -14 599 -14 q 183 68 293 -14 q 74 297 74 150 z "},"H":{"ha":953,"x_min":103,"x_max":850,"o":"m 219 433 l 219 0 l 103 0 l 103 983 l 219 983 l 219 549 l 733 549 l 733 983 l 850 983 l 850 0 l 733 0 l 733 433 l 219 433 z "},"I":{"ha":321,"x_min":103,"x_max":218,"o":"m 218 983 l 218 0 l 103 0 l 103 983 l 218 983 z "},"J":{"ha":826,"x_min":19,"x_max":731,"o":"m 299 983 l 731 983 l 731 292 q 624 67 731 149 q 374 -14 518 -14 q 146 56 247 -14 q 19 254 44 126 l 135 278 q 219 149 150 196 q 374 103 288 103 q 542 153 471 103 q 614 296 614 204 l 614 867 l 299 867 l 299 983 z "},"K":{"ha":875,"x_min":103,"x_max":876,"o":"m 219 489 l 722 983 l 876 983 l 403 510 q 619 274 449 460 q 871 0 789 88 l 719 0 l 319 426 l 219 326 l 219 0 l 103 0 l 103 983 l 219 983 l 219 489 z "},"L":{"ha":711,"x_min":103,"x_max":692,"o":"m 103 0 l 103 983 l 219 983 l 219 117 l 692 117 l 692 0 l 103 0 z "},"M":{"ha":1106,"x_min":103,"x_max":1003,"o":"m 219 764 l 219 0 l 103 0 l 103 983 l 249 983 l 553 297 l 857 983 l 1003 983 l 1003 0 l 886 0 l 886 765 l 603 129 l 504 129 l 219 764 z "},"N":{"ha":953,"x_min":103,"x_max":850,"o":"m 733 171 l 733 983 l 850 983 l 850 0 l 703 0 l 219 779 l 219 0 l 103 0 l 103 983 l 228 983 l 733 171 z "},"O":{"ha":935,"x_min":74,"x_max":860,"o":"m 74 296 l 74 689 q 190 916 74 835 q 467 997 307 997 q 656 964 568 997 q 801 859 743 931 q 860 689 860 788 l 860 296 q 801 125 860 197 q 656 19 743 53 q 467 -14 568 -14 q 190 68 307 -14 q 74 296 74 150 m 189 689 l 189 297 q 271 154 189 206 q 467 103 353 103 q 662 154 579 103 q 744 297 744 206 l 744 689 q 663 834 744 785 q 465 883 581 883 q 270 833 351 882 q 189 689 189 783 z "},"P":{"ha":849,"x_min":103,"x_max":810,"o":"m 103 0 l 103 983 l 478 983 q 722 890 635 983 q 810 668 810 796 q 722 447 810 540 q 479 354 635 354 l 218 354 l 218 0 l 103 0 m 218 471 l 478 471 q 638 529 581 471 q 694 668 694 588 q 638 808 694 749 q 478 867 581 867 l 218 867 l 218 471 z "},"Q":{"ha":935,"x_min":74,"x_max":864,"o":"m 860 689 l 860 296 q 788 108 860 185 l 864 11 l 783 -46 l 710 46 q 467 -14 601 -14 q 190 68 307 -14 q 74 296 74 150 l 74 689 q 190 916 74 835 q 467 997 307 997 q 656 964 568 997 q 801 859 743 931 q 860 689 860 788 m 640 293 l 718 194 q 744 296 744 236 l 744 689 q 663 834 744 785 q 465 883 581 883 q 270 833 351 883 q 189 689 189 783 l 189 296 q 271 153 189 204 q 467 103 353 103 q 642 131 579 103 l 560 233 l 640 293 z "},"R":{"ha":860,"x_min":103,"x_max":832,"o":"m 689 0 l 371 401 l 219 401 l 219 0 l 103 0 l 103 983 l 478 983 q 719 911 628 983 q 814 689 811 839 q 732 480 814 550 q 515 403 650 410 l 832 0 l 689 0 m 219 510 l 479 510 q 641 551 585 510 q 697 689 697 593 q 479 867 697 867 l 219 867 l 219 510 z "},"S":{"ha":824,"x_min":43,"x_max":769,"o":"m 179 729 q 190 669 176 694 q 221 628 204 643 q 279 600 238 614 q 342 582 321 586 q 419 567 364 578 q 494 551 469 557 q 564 533 519 546 q 632 506 608 519 q 687 469 656 493 q 733 417 718 446 q 758 347 749 389 q 765 256 768 306 q 654 57 758 128 q 408 -14 550 -14 q 189 41 290 -14 q 43 197 88 96 l 150 246 q 253 140 181 178 q 411 101 326 101 q 574 143 506 101 q 649 261 643 185 q 638 334 653 303 q 606 383 624 365 q 544 416 588 400 q 475 438 500 432 q 392 457 450 444 q 295 480 333 469 q 209 512 257 490 q 133 560 161 533 q 84 632 104 588 q 64 733 64 676 q 172 927 71 857 q 410 997 274 997 q 626 944 525 997 q 769 792 726 890 l 664 744 q 563 848 635 811 q 410 885 492 885 q 251 844 318 885 q 179 729 185 803 z "},"T":{"ha":786,"x_min":19,"x_max":767,"o":"m 767 867 l 451 867 l 451 0 l 335 0 l 335 867 l 19 867 l 19 983 l 767 983 l 767 867 z "},"U":{"ha":939,"x_min":96,"x_max":843,"o":"m 213 983 l 213 300 q 288 154 213 206 q 469 103 364 103 q 650 154 574 103 q 726 300 726 206 l 726 983 l 843 983 l 843 300 q 732 69 843 153 q 469 -14 621 -14 q 207 69 318 -14 q 96 300 96 153 l 96 983 l 213 983 z "},"V":{"ha":857,"x_min":3,"x_max":853,"o":"m 3 983 l 126 983 l 429 132 l 731 983 l 853 983 l 500 0 l 357 0 l 3 983 z "},"W":{"ha":1296,"x_min":14,"x_max":1282,"o":"m 1163 983 l 1282 983 l 997 0 l 856 0 l 649 654 l 440 0 l 299 0 l 14 983 l 135 983 l 371 139 l 597 860 l 700 860 l 925 140 l 1163 983 z "},"X":{"ha":826,"x_min":6,"x_max":819,"o":"m 819 0 l 678 0 l 413 394 l 147 0 l 6 0 l 343 490 l 8 983 l 147 983 l 413 594 l 678 983 l 818 983 l 482 490 l 819 0 z "},"Y":{"ha":804,"x_min":1,"x_max":803,"o":"m 460 0 l 343 0 l 343 383 l 1 983 l 136 983 l 403 507 l 667 983 l 803 983 l 460 383 l 460 0 z "},"Z":{"ha":810,"x_min":31,"x_max":775,"o":"m 57 983 l 738 983 l 775 903 l 200 117 l 758 117 l 758 0 l 64 0 l 31 82 l 606 867 l 57 867 l 57 983 z "},"[":{"ha":368,"x_min":86,"x_max":321,"o":"m 201 928 l 201 -71 l 321 -71 l 321 -175 l 86 -175 l 86 1032 l 321 1032 l 321 928 l 201 928 z "},"\\":{"ha":578,"x_min":31,"x_max":549,"o":"m 443 -51 l 31 986 l 135 1022 l 549 -15 l 443 -51 z "},"]":{"ha":368,"x_min":47,"x_max":282,"o":"m 165 -74 l 165 933 l 47 933 l 47 1033 l 282 1033 l 282 -174 l 47 -174 l 47 -74 l 165 -74 z "},"^":{"ha":776,"x_min":54,"x_max":722,"o":"m 424 969 l 722 579 l 586 579 l 385 843 l 192 579 l 54 579 l 344 969 l 424 969 z "},"_":{"ha":863,"x_min":83,"x_max":779,"o":"m 779 -4 l 779 -115 l 83 -115 l 83 -4 l 779 -4 z "},"`":{"ha":292,"x_min":-58,"x_max":204,"o":"m -58 1238 l 90 1238 l 204 1051 l 90 1051 l -58 1238 z "},"a":{"ha":678,"x_min":46,"x_max":600,"o":"m 489 406 l 489 501 q 439 596 489 561 q 319 631 389 631 q 142 553 206 631 l 72 621 q 190 704 121 675 q 328 733 258 733 q 519 672 439 733 q 600 501 600 611 l 600 35 q 303 -14 454 -17 q 117 44 188 -12 q 46 211 46 100 q 124 382 47 324 q 317 440 201 440 q 489 406 407 440 m 489 94 l 489 325 q 328 353 408 353 q 206 318 254 353 q 156 211 157 283 q 197 114 156 146 q 306 81 238 82 q 489 94 411 78 z "},"b":{"ha":710,"x_min":86,"x_max":643,"o":"m 197 972 l 197 689 q 372 733 282 733 q 565 672 486 733 q 643 493 643 610 l 643 225 q 562 51 643 113 q 368 -14 481 -11 q 86 38 238 -14 l 86 972 l 197 972 m 197 594 l 197 108 q 368 86 269 86 q 482 124 433 86 q 531 225 531 163 l 531 494 q 483 596 531 558 q 368 635 435 633 q 197 594 272 635 z "},"c":{"ha":644,"x_min":65,"x_max":613,"o":"m 601 590 l 514 539 q 441 606 482 589 q 343 622 400 622 q 226 589 275 622 q 176 493 176 556 l 176 224 q 225 126 176 163 q 344 90 274 90 q 524 204 479 90 l 613 163 q 508 32 583 78 q 343 -14 432 -14 q 148 49 231 -14 q 65 226 65 113 l 65 493 q 148 670 65 607 q 343 733 231 733 q 489 702 426 733 q 601 590 551 671 z "},"d":{"ha":710,"x_min":67,"x_max":624,"o":"m 624 972 l 624 38 q 342 -14 472 -14 q 148 51 229 -11 q 67 225 67 113 l 67 492 q 150 667 67 603 q 344 732 233 732 q 513 688 444 732 l 513 972 l 624 972 m 342 85 q 513 106 444 85 l 513 593 q 344 633 433 633 q 228 596 276 633 q 179 492 179 558 l 179 226 q 228 125 179 165 q 342 85 278 85 z "},"e":{"ha":678,"x_min":67,"x_max":621,"o":"m 179 304 l 179 217 q 228 122 179 154 q 346 89 276 89 q 444 114 399 89 q 510 186 489 139 l 607 144 q 499 27 571 68 q 346 -14 428 -14 q 150 49 233 -14 q 67 225 67 113 l 67 494 q 149 671 67 608 q 346 733 232 733 q 539 671 457 733 q 621 494 621 608 l 621 304 l 179 304 m 515 397 l 515 500 q 464 596 515 560 q 346 632 413 632 q 226 597 274 632 q 179 497 178 561 l 179 397 l 515 397 z "},"f":{"ha":372,"x_min":89,"x_max":357,"o":"m 357 985 l 357 876 q 241 842 282 876 q 200 744 200 807 l 200 697 l 347 697 l 347 597 l 200 597 l 200 0 l 89 0 l 89 744 q 164 922 89 860 q 357 985 239 983 z "},"g":{"ha":703,"x_min":67,"x_max":617,"o":"m 92 -162 l 160 -94 q 235 -144 182 -124 q 335 -165 288 -165 q 507 -36 507 -165 l 507 24 q 343 -14 436 -14 q 149 49 232 -15 q 67 225 67 114 l 67 497 q 147 671 67 608 q 338 733 228 733 q 617 676 476 733 l 617 -36 q 537 -209 617 -150 q 344 -268 457 -268 q 92 -162 189 -268 m 507 115 l 507 603 q 338 632 432 632 q 225 594 274 632 q 178 494 176 556 l 178 219 q 224 122 178 158 q 340 85 271 85 q 507 115 425 85 z "},"h":{"ha":725,"x_min":89,"x_max":642,"o":"m 200 969 l 200 692 q 376 733 283 733 q 565 674 489 736 q 642 494 642 613 l 642 0 l 532 0 l 532 496 q 483 595 532 561 q 367 631 435 629 q 200 594 283 631 l 200 0 l 89 0 l 89 969 l 200 969 z "},"i":{"ha":289,"x_min":64,"x_max":219,"o":"m 64 919 q 87 975 64 953 q 142 997 110 997 q 197 975 175 997 q 219 919 219 953 q 197 865 219 888 q 142 842 175 842 q 87 865 110 842 q 64 919 64 888 m 89 719 l 200 719 l 200 0 l 89 0 l 89 719 z "},"j":{"ha":289,"x_min":-44,"x_max":221,"o":"m 65 919 q 88 975 65 953 q 143 997 111 997 q 199 975 176 997 q 221 919 221 953 q 199 865 221 888 q 143 842 176 842 q 88 865 111 842 q 65 919 65 888 m -44 -136 l -44 -247 q 136 -185 72 -247 q 200 -12 200 -124 l 200 719 l 89 719 l 89 -12 q -44 -136 89 -136 z "},"k":{"ha":690,"x_min":89,"x_max":678,"o":"m 200 386 l 533 719 l 678 719 l 353 392 l 671 0 l 531 0 l 275 313 l 200 238 l 200 0 l 89 0 l 89 969 l 200 969 l 200 386 z "},"l":{"ha":336,"x_min":83,"x_max":328,"o":"m 328 90 l 328 -14 q 147 48 211 -14 q 83 221 83 110 l 83 971 l 194 971 l 194 221 q 228 125 194 160 q 328 90 261 90 z "},"m":{"ha":1103,"x_min":86,"x_max":1019,"o":"m 86 0 l 86 668 q 331 733 207 733 q 547 651 467 733 q 750 733 628 733 q 946 673 872 733 q 1019 493 1019 613 l 1019 0 l 908 0 l 908 501 q 863 603 908 572 q 749 632 818 633 q 648 603 693 631 q 603 528 603 575 l 603 0 l 494 0 l 494 519 q 446 603 494 575 q 326 632 397 632 q 197 599 247 632 l 197 0 l 86 0 z "},"n":{"ha":721,"x_min":86,"x_max":638,"o":"m 86 0 l 86 674 q 367 733 257 733 q 558 670 479 731 q 638 497 638 610 l 638 0 l 528 0 l 528 501 q 479 597 528 563 q 367 631 431 631 q 197 599 282 631 l 197 0 l 86 0 z "},"o":{"ha":688,"x_min":65,"x_max":621,"o":"m 65 226 l 65 493 q 148 669 65 606 q 344 733 231 732 q 539 669 457 732 q 621 493 621 606 l 621 226 q 539 50 621 113 q 344 -14 457 -12 q 148 50 231 -12 q 65 226 65 113 m 344 628 q 227 594 278 628 q 176 496 176 560 l 176 225 q 227 126 176 161 q 344 92 278 92 q 460 126 410 92 q 510 225 510 161 l 510 496 q 460 593 510 558 q 344 628 410 628 z "},"p":{"ha":711,"x_min":88,"x_max":644,"o":"m 88 -251 l 88 682 q 369 733 246 733 q 563 670 482 732 q 644 494 644 608 l 644 228 q 561 51 644 115 q 365 -12 478 -14 q 199 26 275 -12 l 199 -251 l 88 -251 m 199 610 l 199 125 q 367 93 285 93 q 483 130 433 94 q 532 226 532 165 l 532 496 q 483 591 532 556 q 369 626 435 626 q 199 610 256 626 z "},"q":{"ha":711,"x_min":67,"x_max":624,"o":"m 513 -251 l 513 25 q 332 -14 447 -14 q 144 49 221 -15 q 67 226 67 114 l 67 494 q 148 670 67 608 q 342 733 229 732 q 624 685 476 733 l 624 -251 l 513 -251 m 513 115 l 513 611 q 342 633 436 633 q 227 597 276 633 q 179 499 178 560 l 179 217 q 228 121 179 157 q 344 83 278 85 q 513 115 426 83 z "},"r":{"ha":433,"x_min":83,"x_max":415,"o":"m 415 728 l 415 624 q 357 628 396 628 q 241 592 288 628 q 194 493 194 557 l 194 0 l 83 0 l 83 493 q 165 669 83 607 q 353 733 247 732 q 415 728 389 733 z "},"s":{"ha":615,"x_min":39,"x_max":571,"o":"m 39 136 l 122 193 q 213 115 157 142 q 328 89 268 89 q 422 119 381 89 q 461 203 463 150 q 452 242 461 225 q 431 271 443 260 q 397 290 418 282 q 359 303 375 299 q 319 311 343 307 q 228 332 265 321 q 151 366 192 343 q 88 428 110 389 q 67 522 67 467 q 147 680 67 626 q 328 733 226 733 q 544 647 457 733 l 476 568 q 328 631 415 631 q 224 605 271 631 q 176 525 176 579 q 191 475 176 496 q 236 442 206 454 q 285 426 267 431 q 339 415 303 422 q 506 348 442 396 q 571 201 569 300 q 499 43 571 100 q 328 -14 428 -14 q 39 136 133 -14 z "},"t":{"ha":394,"x_min":83,"x_max":378,"o":"m 378 85 l 378 -11 q 335 -14 347 -14 q 153 50 224 -14 q 83 222 83 114 l 83 901 l 193 901 l 193 719 l 340 719 l 340 617 l 193 617 l 193 222 q 244 113 193 156 q 378 85 296 69 z "},"u":{"ha":722,"x_min":83,"x_max":636,"o":"m 636 719 l 636 39 q 356 -14 486 -14 q 164 50 244 -12 q 83 225 83 113 l 83 719 l 194 719 l 194 224 q 242 128 194 164 q 356 92 290 93 q 525 115 456 92 l 525 719 l 636 719 z "},"v":{"ha":665,"x_min":13,"x_max":653,"o":"m 336 100 l 394 301 l 539 719 l 653 719 l 399 0 l 267 0 l 13 719 l 128 719 l 272 299 l 333 100 l 336 100 z "},"w":{"ha":990,"x_min":18,"x_max":971,"o":"m 444 708 l 544 708 l 692 110 l 696 110 l 744 317 l 863 719 l 971 719 l 756 0 l 622 0 l 546 322 l 496 563 l 446 321 l 368 0 l 235 0 l 18 719 l 131 719 l 249 317 l 297 110 l 301 110 l 444 708 z "},"x":{"ha":671,"x_min":21,"x_max":650,"o":"m 403 360 l 650 0 l 514 0 l 336 275 l 157 0 l 21 0 l 269 360 l 21 719 l 157 719 l 336 439 l 514 719 l 650 719 l 403 360 z "},"y":{"ha":740,"x_min":83,"x_max":651,"o":"m 110 -157 l 186 -87 q 263 -141 214 -122 q 363 -160 311 -160 q 489 -127 438 -160 q 540 -25 540 -94 l 540 31 q 368 -14 479 -11 q 169 52 254 -15 q 83 233 83 119 l 83 719 l 197 719 l 197 231 q 248 131 197 168 q 365 93 299 94 q 540 128 451 93 l 540 719 l 651 719 l 651 -25 q 569 -206 651 -143 q 371 -268 488 -268 q 228 -239 299 -268 q 110 -157 157 -210 z "},"z":{"ha":650,"x_min":31,"x_max":608,"o":"m 61 719 l 564 719 l 608 647 l 181 101 l 601 101 l 601 0 l 75 0 l 31 71 l 451 617 l 61 617 l 61 719 z "},"{":{"ha":407,"x_min":49,"x_max":360,"o":"m 360 933 l 293 933 q 263 915 268 933 q 257 847 257 896 l 257 636 q 193 428 258 504 q 257 222 258 356 l 257 7 q 265 -56 257 -37 q 299 -74 272 -74 l 360 -74 l 360 -174 l 275 -174 q 177 -126 213 -174 q 142 4 142 -79 l 142 196 q 49 379 142 379 l 49 479 q 142 664 142 479 l 142 856 q 177 986 142 939 q 275 1033 213 1033 l 360 1033 l 360 933 z "},"|":{"ha":283,"x_min":86,"x_max":197,"o":"m 197 -235 l 86 -235 l 86 1031 l 197 1031 l 197 -235 z "},"}":{"ha":408,"x_min":49,"x_max":360,"o":"m 49 1033 l 133 1033 q 231 986 196 1033 q 267 856 267 939 l 267 664 q 360 479 267 479 l 360 379 q 267 196 267 379 l 267 4 q 231 -126 267 -79 q 133 -174 196 -174 l 49 -174 l 49 -74 l 108 -74 q 144 -56 136 -74 q 151 7 151 -37 l 151 222 q 214 431 150 356 q 151 636 150 501 l 151 847 q 151 884 151 872 q 147 910 150 896 q 135 928 143 924 q 115 933 128 933 l 49 933 l 49 1033 z "},"~":{"ha":721,"x_min":67,"x_max":656,"o":"m 586 526 l 656 463 q 469 319 589 319 q 339 371 414 319 q 250 410 275 410 q 139 314 201 410 l 67 374 q 254 517 144 517 q 397 463 321 517 q 474 426 454 426 q 529 452 504 426 q 586 526 554 478 z "}," ":{"ha":292,"x_min":0,"x_max":0,"o":""},"¡":{"ha":290,"x_min":64,"x_max":226,"o":"m 203 710 q 215 699 203 710 q 226 653 226 688 q 203 594 226 618 q 146 571 181 571 q 88 594 111 571 q 64 653 64 617 q 88 710 64 688 q 146 733 111 733 q 203 710 181 733 m 203 481 l 203 -244 l 88 -244 l 88 481 l 203 481 z "},"¢":{"ha":660,"x_min":69,"x_max":614,"o":"m 604 583 l 504 542 q 389 613 472 599 l 389 111 q 515 211 490 129 l 614 169 q 526 56 589 100 q 389 0 463 11 l 389 -124 l 292 -124 l 292 0 q 133 76 197 15 q 69 236 69 138 l 69 486 q 132 647 69 588 q 292 719 194 707 l 292 846 l 389 846 l 389 719 q 604 583 535 703 m 181 486 l 181 233 q 211 156 179 186 q 292 114 243 125 l 292 608 q 210 567 242 599 q 181 486 179 536 z "},"£":{"ha":732,"x_min":57,"x_max":683,"o":"m 193 104 l 193 454 l 57 454 l 57 554 l 193 554 l 193 711 q 208 810 193 763 q 253 901 222 857 q 341 971 283 944 q 476 997 399 997 q 683 907 583 997 l 601 831 q 472 889 543 889 q 348 832 390 889 q 306 711 306 775 l 306 554 l 522 554 l 522 454 l 306 454 l 306 104 l 667 104 l 667 0 l 57 0 l 57 104 l 193 104 z "},"¤":{"ha":854,"x_min":78,"x_max":776,"o":"m 78 207 l 151 279 q 81 485 81 369 q 151 690 81 600 q 114 727 139 701 q 78 763 89 753 l 149 839 l 225 763 q 428 828 311 828 q 631 763 542 828 q 655 787 638 769 q 686 818 672 804 q 707 839 700 832 l 776 763 l 703 690 q 774 485 774 600 q 703 279 774 369 q 740 242 714 268 q 776 207 765 217 l 707 131 l 631 207 q 428 142 540 142 q 225 207 314 142 q 185 167 214 196 q 149 131 157 138 l 78 207 m 189 483 q 259 315 189 385 q 425 246 329 246 q 592 315 522 246 q 663 483 663 385 q 592 654 663 583 q 425 725 522 725 q 259 654 329 725 q 189 483 189 583 z "},"¥":{"ha":853,"x_min":32,"x_max":822,"o":"m 697 444 l 676 349 l 483 349 l 483 281 l 699 281 l 678 185 l 483 185 l 483 1 l 369 1 l 369 185 l 151 185 l 172 281 l 369 281 l 369 349 l 156 349 l 176 444 l 332 444 l 32 983 l 165 983 l 426 490 l 688 983 l 822 983 l 521 444 l 697 444 z "},"¦":{"ha":297,"x_min":92,"x_max":206,"o":"m 206 469 l 92 469 l 92 967 l 206 967 l 206 469 m 206 -190 l 92 -190 l 92 308 l 206 308 l 206 -190 z "},"§":{"ha":664,"x_min":46,"x_max":604,"o":"m 46 -4 l 150 44 q 218 -46 171 -14 q 321 -78 265 -78 q 424 -47 378 -78 q 469 36 469 -15 q 442 97 469 68 q 388 140 415 125 q 304 181 360 156 q 217 223 246 207 q 147 269 188 239 q 88 340 106 300 q 69 431 69 379 q 189 604 69 539 q 101 768 101 668 q 180 933 101 872 q 364 993 258 993 q 505 956 442 993 q 597 843 568 919 l 496 788 q 360 883 456 883 q 260 852 304 883 q 217 768 217 821 q 228 725 217 744 q 267 688 239 706 q 314 659 294 669 q 376 629 333 649 q 444 597 422 608 q 502 562 465 586 q 557 515 539 538 q 590 459 575 493 q 604 385 604 425 q 503 210 604 274 q 586 49 586 143 q 508 -126 586 -61 q 322 -190 431 -190 q 155 -144 229 -190 q 46 -4 81 -97 m 269 326 l 401 264 q 492 378 492 322 q 394 493 492 443 l 303 546 q 188 433 188 503 q 208 369 188 392 q 269 325 228 346 l 269 326 z "},"¨":{"ha":390,"x_min":-4,"x_max":392,"o":"m 17 1090 q 6 1101 17 1090 q -4 1142 -4 1111 q 17 1194 -4 1172 q 68 1215 38 1215 q 119 1194 99 1215 q 140 1142 140 1172 q 119 1090 140 1111 q 68 1069 99 1069 q 17 1090 38 1069 m 247 1142 q 268 1194 247 1174 q 319 1215 289 1215 q 371 1194 350 1215 q 392 1142 392 1172 q 371 1090 392 1111 q 319 1069 350 1069 q 268 1090 289 1069 q 247 1142 247 1111 z "},"©":{"ha":1135,"x_min":58,"x_max":1076,"o":"m 208 126 q 133 200 208 126 q 58 485 58 275 q 208 844 58 694 q 568 993 357 993 q 927 844 778 993 q 1076 485 1076 694 q 927 126 1076 275 q 568 -24 778 -24 q 208 126 357 -24 m 165 485 q 283 201 165 319 q 568 82 401 82 q 851 201 733 82 q 969 485 969 319 q 851 769 969 651 q 568 888 733 888 q 283 769 401 888 q 165 485 165 651 m 725 618 l 810 668 q 707 767 772 732 q 568 801 642 801 q 386 742 464 801 q 308 576 308 683 l 308 382 q 386 216 308 275 q 568 157 464 157 q 722 199 651 157 q 819 321 793 240 l 725 367 q 667 288 711 315 q 568 260 622 260 q 458 291 504 260 q 413 379 413 322 l 413 576 q 458 666 413 635 q 568 697 504 697 q 717 631 681 697 l 725 618 z "},"ª":{"ha":533,"x_min":61,"x_max":454,"o":"m 346 771 l 346 819 q 318 865 346 847 q 256 883 290 883 q 139 828 185 883 l 71 892 q 261 983 154 983 q 397 940 340 983 q 454 817 454 896 l 454 500 q 244 468 350 465 q 113 514 164 469 q 61 639 61 558 q 264 792 63 792 q 346 771 308 792 m 346 569 l 346 699 q 261 710 296 710 q 197 692 222 710 q 169 639 171 675 q 191 584 169 604 q 246 563 213 564 q 346 569 288 563 z "},"«":{"ha":621,"x_min":46,"x_max":560,"o":"m 243 700 l 339 642 l 178 407 q 247 307 185 397 q 339 172 310 217 l 243 115 l 46 407 l 243 700 m 464 700 l 560 642 l 400 407 q 560 172 519 232 l 464 115 l 268 407 l 464 700 z "},"¬":{"ha":831,"x_min":78,"x_max":743,"o":"m 78 453 l 78 563 l 743 563 l 743 224 l 633 224 l 633 453 l 78 453 z "},"­":{"ha":501,"x_min":69,"x_max":432,"o":"m 432 394 l 432 281 l 69 281 l 69 394 l 432 394 z "},"®":{"ha":1133,"x_min":58,"x_max":1075,"o":"m 207 126 q 133 200 207 126 q 58 485 58 275 q 207 844 58 694 q 567 993 356 993 q 926 844 778 993 q 1075 485 1075 694 q 926 126 1075 275 q 567 -24 778 -24 q 207 126 356 -24 m 169 485 q 286 205 169 321 q 567 89 403 89 q 847 205 731 89 q 963 485 963 321 q 847 765 963 649 q 567 882 731 882 q 286 766 403 882 q 169 485 169 650 m 378 217 l 378 760 l 586 760 q 736 715 685 760 q 788 589 788 671 q 664 418 788 456 l 808 218 l 690 218 l 549 413 l 478 413 l 478 217 l 378 217 m 478 507 l 547 507 q 647 523 610 507 q 685 589 685 539 q 654 647 685 628 q 582 665 624 665 l 478 665 l 478 507 z "},"¯":{"ha":333,"x_min":-17,"x_max":340,"o":"m -17 1082 l -17 1182 l 340 1182 l 340 1082 l -17 1082 z "},"°":{"ha":499,"x_min":54,"x_max":444,"o":"m 250 592 q 112 649 169 592 q 54 788 54 706 q 111 925 54 868 q 250 982 168 982 q 388 925 331 982 q 444 788 444 868 q 387 649 444 707 q 250 592 329 592 m 185 722 q 199 708 185 722 q 250 694 213 694 q 315 722 288 694 q 342 786 342 749 q 315 851 342 824 q 250 879 288 879 q 185 851 213 879 q 157 786 157 824 q 185 722 157 749 z "},"±":{"ha":763,"x_min":79,"x_max":683,"o":"m 322 611 l 322 840 l 435 840 l 435 611 l 681 611 l 681 500 l 435 500 l 435 269 l 322 269 l 322 500 l 82 500 l 82 611 l 322 611 m 683 200 l 683 90 l 79 90 l 79 200 l 683 200 z "},"²":{"ha":575,"x_min":65,"x_max":496,"o":"m 496 481 l 496 376 l 99 376 l 68 450 l 346 717 q 396 792 392 750 q 367 861 400 833 q 282 889 335 889 q 199 862 235 888 q 149 807 163 836 l 65 844 q 279 983 119 983 q 433 931 371 983 q 496 804 496 879 q 417 653 496 722 l 418 653 l 229 481 l 496 481 z "},"³":{"ha":553,"x_min":51,"x_max":496,"o":"m 469 815 q 451 751 469 783 q 401 701 433 718 q 471 647 446 685 q 496 564 496 610 q 432 428 493 479 q 275 378 371 376 q 51 522 121 378 l 142 567 q 275 475 189 475 q 360 499 326 475 q 393 572 393 522 q 365 631 392 608 q 292 654 338 654 l 231 654 l 231 733 l 292 733 q 347 756 324 733 q 369 817 369 779 q 343 866 369 846 q 275 886 317 886 q 165 818 203 886 l 75 857 q 275 985 126 985 q 416 938 363 985 q 469 815 469 892 z "},"´":{"ha":296,"x_min":82,"x_max":346,"o":"m 200 1235 l 346 1235 l 204 1050 l 82 1050 l 200 1235 z "},"µ":{"ha":728,"x_min":83,"x_max":646,"o":"m 533 -3 l 532 64 q 335 -15 467 -15 q 199 31 256 -15 l 199 -300 l 83 -300 l 83 711 l 200 711 l 200 269 q 335 92 200 92 q 472 151 418 92 q 526 322 526 211 l 526 711 l 643 711 l 646 -3 l 533 -3 z "},"¶":{"ha":785,"x_min":35,"x_max":693,"o":"m 336 -167 l 336 350 q 115 446 194 356 q 35 656 35 536 q 124 876 35 783 q 375 969 214 969 l 693 969 l 693 -167 l 579 -167 l 579 869 l 451 869 l 451 -167 l 336 -167 z "},"·":{"ha":314,"x_min":76,"x_max":239,"o":"m 100 379 q 88 391 100 379 q 76 438 76 403 q 100 496 76 472 q 158 519 124 519 q 216 496 193 519 q 239 438 239 472 q 216 379 239 403 q 158 356 193 356 q 100 379 124 356 z "},"¸":{"ha":333,"x_min":-11,"x_max":292,"o":"m 208 -1 l 174 -89 q 263 -119 235 -87 q 288 -199 292 -150 q 228 -303 281 -271 q 110 -331 175 -336 q -11 -293 46 -325 l 19 -218 q 127 -244 76 -249 q 181 -203 178 -240 q 155 -162 183 -174 q 79 -164 126 -151 l 61 -147 l 119 -1 l 208 -1 z "},"¹":{"ha":358,"x_min":31,"x_max":271,"o":"m 108 747 l 31 810 l 181 983 l 271 983 l 271 388 l 168 388 l 168 828 l 108 747 z "},"º":{"ha":571,"x_min":65,"x_max":506,"o":"m 285 464 q 131 513 197 464 q 65 647 65 561 l 65 800 q 131 935 65 886 q 285 983 197 983 q 440 935 374 983 q 506 800 506 886 l 506 647 q 440 513 506 561 q 285 464 374 464 m 169 800 l 169 647 q 203 586 169 606 q 285 567 238 567 q 367 586 332 567 q 401 647 401 606 l 401 800 q 367 861 401 842 q 285 881 332 881 q 203 861 238 881 q 169 800 169 842 z "},"»":{"ha":626,"x_min":61,"x_max":581,"o":"m 157 115 l 61 171 l 222 407 q 153 507 215 417 q 61 642 90 597 l 157 700 l 354 407 l 157 115 m 385 115 l 289 171 l 449 407 q 289 642 329 582 l 385 700 l 581 407 l 385 115 z "},"¼":{"ha":1004,"x_min":32,"x_max":956,"o":"m 835 965 l 214 -51 l 122 4 l 742 1021 l 835 965 m 272 388 l 272 983 l 182 983 l 32 810 l 110 747 l 169 828 l 169 388 l 272 388 m 901 619 l 803 619 l 475 224 l 533 139 l 797 139 l 797 -3 l 901 -3 l 901 139 l 956 139 l 956 238 l 901 238 l 901 619 m 615 238 l 801 467 l 797 238 l 615 238 z "},"½":{"ha":1085,"x_min":33,"x_max":1029,"o":"m 818 965 l 197 -51 l 107 4 l 726 1021 l 818 965 m 274 388 l 274 983 l 183 983 l 33 810 l 111 747 l 171 828 l 171 388 l 274 388 m 951 276 l 950 276 q 1029 428 1029 346 q 1019 486 1029 457 q 935 576 993 544 q 813 607 878 607 q 599 468 653 607 l 682 431 q 732 485 696 460 q 815 513 768 511 q 901 485 868 513 q 929 415 933 457 q 879 340 925 374 l 601 74 l 632 0 l 1029 0 l 1029 104 l 763 104 l 951 276 z "},"¾":{"ha":1118,"x_min":38,"x_max":1075,"o":"m 951 965 l 331 -51 l 240 4 l 860 1021 l 951 965 m 456 815 q 402 938 456 892 q 261 985 349 985 q 61 857 113 985 l 151 818 q 261 886 189 886 q 329 866 303 886 q 356 817 356 846 q 333 756 356 779 q 278 733 310 733 l 217 733 l 217 654 l 278 654 q 351 631 324 654 q 379 572 378 608 q 346 499 379 522 q 261 475 313 475 q 128 567 175 475 l 38 522 q 261 378 107 378 q 418 428 357 376 q 482 564 479 479 q 457 647 482 610 q 388 701 432 685 q 438 751 419 718 q 456 815 456 783 m 922 619 l 594 224 l 653 139 l 917 139 l 917 -3 l 1021 -3 l 1021 139 l 1075 139 l 1075 238 l 1021 238 l 1021 619 l 922 619 m 921 467 l 917 238 l 735 238 l 921 467 z "},"¿":{"ha":668,"x_min":39,"x_max":640,"o":"m 425 711 q 436 700 425 711 q 447 658 447 689 q 425 606 447 628 q 372 583 403 583 q 319 606 342 583 q 297 658 297 628 q 319 711 297 689 q 372 733 342 733 q 425 711 403 733 m 640 -140 l 628 -156 q 508 -246 581 -214 q 356 -278 436 -278 q 132 -201 225 -278 q 40 10 39 -125 q 118 212 42 139 q 314 308 194 285 q 319 407 315 344 q 324 503 322 469 l 422 503 l 431 213 q 234 156 317 211 q 153 8 151 100 q 215 -120 154 -75 q 358 -165 275 -165 q 553 -72 476 -165 l 640 -140 z "},"À":{"ha":860,"x_min":6,"x_max":856,"o":"m 243 1238 l 392 1238 l 506 1051 l 392 1051 l 243 1238 m 500 983 l 856 0 l 733 0 l 619 315 l 240 315 q 192 181 235 300 q 129 0 150 61 l 6 0 l 358 983 l 500 983 m 279 432 l 579 432 q 500 656 549 515 q 429 858 451 796 q 279 432 349 626 z "},"Á":{"ha":860,"x_min":6,"x_max":856,"o":"m 465 1235 l 611 1235 l 469 1050 l 347 1050 l 465 1235 m 500 983 l 856 0 l 733 0 l 619 315 l 240 315 q 192 181 235 300 q 129 0 150 61 l 6 0 l 358 983 l 500 983 m 279 432 l 579 432 q 500 656 549 515 q 429 858 451 796 q 279 432 349 626 z "},"Â":{"ha":860,"x_min":6,"x_max":856,"o":"m 490 1235 l 653 1050 l 521 1050 l 436 1146 l 347 1050 l 211 1050 l 388 1235 l 490 1235 m 500 983 l 856 0 l 733 0 l 619 315 l 240 315 q 192 181 235 300 q 129 0 150 61 l 6 0 l 358 983 l 500 983 m 279 432 l 579 432 q 500 656 549 515 q 429 858 451 796 q 279 432 349 626 z "},"Ã":{"ha":860,"x_min":6,"x_max":856,"o":"m 307 1072 l 228 1101 q 278 1196 239 1160 q 363 1232 317 1232 q 450 1198 403 1232 q 508 1164 497 1164 q 561 1214 547 1164 l 643 1185 q 517 1060 611 1060 q 437 1094 485 1060 q 363 1129 389 1129 q 331 1113 347 1129 q 307 1072 314 1096 m 500 983 l 856 0 l 733 0 l 619 315 l 240 315 q 192 181 235 300 q 129 0 150 61 l 6 0 l 358 983 l 500 983 m 279 432 l 579 432 q 500 656 549 515 q 429 858 451 796 q 279 432 349 626 z "},"Ä":{"ha":860,"x_min":6,"x_max":856,"o":"m 253 1090 q 242 1101 253 1090 q 232 1142 232 1111 q 253 1194 232 1172 q 304 1215 274 1215 q 356 1194 335 1215 q 376 1142 376 1172 q 356 1090 376 1111 q 304 1069 335 1069 q 253 1090 274 1069 m 483 1142 q 504 1194 483 1174 q 556 1215 525 1215 q 607 1194 586 1215 q 628 1142 628 1172 q 607 1090 628 1111 q 556 1069 586 1069 q 504 1090 525 1069 q 483 1142 483 1111 m 500 983 l 856 0 l 733 0 l 619 315 l 240 315 q 192 181 235 300 q 129 0 150 61 l 6 0 l 358 983 l 500 983 m 279 432 l 579 432 q 500 656 549 515 q 429 858 451 796 q 279 432 349 626 z "},"Å":{"ha":860,"x_min":6,"x_max":856,"o":"m 733 0 l 619 315 l 240 315 q 192 181 235 300 q 129 0 150 61 l 6 0 l 357 978 q 281 1107 281 1022 q 324 1212 281 1168 q 429 1256 368 1256 q 531 1210 489 1256 q 574 1106 574 1165 q 501 979 574 1024 l 856 0 l 733 0 m 474 1156 q 465 1165 474 1156 q 428 1175 456 1175 q 382 1154 400 1175 q 364 1106 364 1133 q 383 1058 364 1078 q 428 1039 401 1039 q 474 1058 456 1039 q 492 1107 492 1078 q 474 1156 492 1136 m 279 432 l 579 432 q 500 656 549 515 q 429 858 451 796 q 279 432 349 626 z "},"Æ":{"ha":1113,"x_min":-11,"x_max":1054,"o":"m 1054 867 l 651 867 l 651 549 l 1014 549 l 1014 433 l 651 433 l 651 114 l 1054 114 l 1054 0 l 535 0 l 535 315 l 279 315 l 122 0 l -11 0 l 490 983 l 1054 983 l 1054 867 m 535 421 l 542 868 l 328 421 l 535 421 z "},"Ç":{"ha":828,"x_min":74,"x_max":796,"o":"m 444 103 q 592 137 524 103 q 692 235 660 171 l 796 186 q 669 47 754 99 q 483 -12 585 -4 l 453 -89 q 542 -119 514 -87 q 567 -199 571 -150 q 507 -303 560 -271 q 390 -331 454 -336 q 268 -293 325 -325 l 299 -218 q 406 -244 356 -249 q 460 -203 457 -240 q 434 -162 463 -174 q 358 -164 406 -151 l 340 -147 l 394 -11 q 167 82 260 3 q 74 293 74 161 l 74 686 q 185 914 74 831 q 449 997 297 997 q 656 947 561 997 q 796 800 751 896 l 692 750 q 590 849 658 814 q 444 883 522 883 q 266 831 342 883 q 190 689 190 779 l 190 293 q 266 153 190 203 q 444 103 342 103 z "},"È":{"ha":793,"x_min":103,"x_max":733,"o":"m 232 1240 l 381 1240 l 494 1054 l 381 1054 l 232 1240 m 219 867 l 219 550 l 693 550 l 693 433 l 219 433 l 219 117 l 733 117 l 733 0 l 103 0 l 103 983 l 733 983 l 733 867 l 219 867 z "},"É":{"ha":793,"x_min":103,"x_max":733,"o":"m 454 1238 l 600 1238 l 458 1053 l 336 1053 l 454 1238 m 219 867 l 219 550 l 693 550 l 693 433 l 219 433 l 219 117 l 733 117 l 733 0 l 103 0 l 103 983 l 733 983 l 733 867 l 219 867 z "},"Ê":{"ha":793,"x_min":103,"x_max":733,"o":"m 479 1238 l 642 1053 l 510 1053 l 425 1149 l 336 1053 l 200 1053 l 376 1238 l 479 1238 m 219 867 l 219 550 l 693 550 l 693 433 l 219 433 l 219 117 l 733 117 l 733 0 l 103 0 l 103 983 l 733 983 l 733 867 l 219 867 z "},"Ë":{"ha":793,"x_min":103,"x_max":733,"o":"m 242 1093 q 231 1103 242 1093 q 221 1144 221 1114 q 242 1197 221 1175 q 293 1218 263 1218 q 344 1197 324 1218 q 365 1144 365 1175 q 344 1093 365 1114 q 293 1072 324 1072 q 242 1093 263 1072 m 472 1144 q 493 1197 472 1176 q 544 1218 514 1218 q 596 1197 575 1218 q 617 1144 617 1175 q 596 1093 617 1114 q 544 1072 575 1072 q 493 1093 514 1072 q 472 1144 472 1114 m 219 867 l 219 550 l 693 550 l 693 433 l 219 433 l 219 117 l 733 117 l 733 0 l 103 0 l 103 983 l 733 983 l 733 867 l 219 867 z "},"Ì":{"ha":321,"x_min":-25,"x_max":238,"o":"m -25 1236 l 124 1236 l 238 1050 l 124 1050 l -25 1236 m 218 983 l 218 0 l 103 0 l 103 983 l 218 983 z "},"Í":{"ha":321,"x_min":79,"x_max":343,"o":"m 197 1233 l 343 1233 l 201 1049 l 79 1049 l 197 1233 m 218 983 l 218 0 l 103 0 l 103 983 l 218 983 z "},"Î":{"ha":321,"x_min":-57,"x_max":385,"o":"m 222 1233 l 385 1049 l 253 1049 l 168 1144 l 79 1049 l -57 1049 l 119 1233 l 222 1233 m 218 983 l 218 0 l 103 0 l 103 983 l 218 983 z "},"Ï":{"ha":321,"x_min":-36,"x_max":360,"o":"m -15 1089 q -26 1099 -15 1089 q -36 1140 -36 1110 q -15 1192 -36 1171 q 36 1214 6 1214 q 88 1192 67 1214 q 108 1140 108 1171 q 88 1089 108 1110 q 36 1068 67 1068 q -15 1089 6 1068 m 215 1140 q 236 1193 215 1172 q 288 1214 257 1214 q 339 1192 318 1214 q 360 1140 360 1171 q 339 1089 360 1110 q 288 1068 318 1068 q 236 1089 257 1068 q 215 1140 215 1110 m 218 983 l 218 0 l 103 0 l 103 983 l 218 983 z "},"Ð":{"ha":892,"x_min":25,"x_max":815,"o":"m 108 540 l 108 983 l 443 983 q 706 908 597 983 q 815 688 815 833 l 815 294 q 760 127 815 196 q 623 29 704 58 q 443 0 542 0 l 108 0 l 108 432 l 25 432 l 25 540 l 108 540 m 225 117 l 443 117 q 625 161 550 117 q 700 294 700 206 l 700 688 q 625 822 700 778 q 443 867 550 867 l 225 867 l 225 540 l 392 540 l 392 432 l 225 432 l 225 117 z "},"Ñ":{"ha":953,"x_min":103,"x_max":850,"o":"m 357 1072 l 278 1101 q 328 1196 289 1160 q 413 1232 367 1232 q 500 1198 453 1232 q 558 1164 547 1164 q 611 1214 597 1164 l 693 1185 q 567 1060 661 1060 q 487 1094 535 1060 q 413 1129 439 1129 q 381 1113 397 1129 q 357 1072 364 1096 m 733 171 l 733 983 l 850 983 l 850 0 l 703 0 l 219 779 l 219 0 l 103 0 l 103 983 l 228 983 l 733 171 z "},"Ò":{"ha":935,"x_min":74,"x_max":860,"o":"m 281 1238 l 429 1238 l 543 1051 l 429 1051 l 281 1238 m 74 296 l 74 689 q 190 916 74 835 q 467 997 307 997 q 656 964 568 997 q 801 859 743 931 q 860 689 860 788 l 860 296 q 801 125 860 197 q 656 19 743 53 q 467 -14 568 -14 q 190 68 307 -14 q 74 296 74 150 m 189 689 l 189 297 q 271 154 189 206 q 467 103 353 103 q 662 154 579 103 q 744 297 744 206 l 744 689 q 663 834 744 785 q 465 883 581 883 q 270 833 351 882 q 189 689 189 783 z "},"Ó":{"ha":935,"x_min":74,"x_max":860,"o":"m 503 1235 l 649 1235 l 507 1050 l 385 1050 l 503 1235 m 74 296 l 74 689 q 190 916 74 835 q 467 997 307 997 q 656 964 568 997 q 801 859 743 931 q 860 689 860 788 l 860 296 q 801 125 860 197 q 656 19 743 53 q 467 -14 568 -14 q 190 68 307 -14 q 74 296 74 150 m 189 689 l 189 297 q 271 154 189 206 q 467 103 353 103 q 662 154 579 103 q 744 297 744 206 l 744 689 q 663 834 744 785 q 465 883 581 883 q 270 833 351 882 q 189 689 189 783 z "},"Ô":{"ha":935,"x_min":74,"x_max":860,"o":"m 528 1235 l 690 1050 l 558 1050 l 474 1146 l 385 1050 l 249 1050 l 425 1235 l 528 1235 m 74 296 l 74 689 q 190 916 74 835 q 467 997 307 997 q 656 964 568 997 q 801 859 743 931 q 860 689 860 788 l 860 296 q 801 125 860 197 q 656 19 743 53 q 467 -14 568 -14 q 190 68 307 -14 q 74 296 74 150 m 189 689 l 189 297 q 271 154 189 206 q 467 103 353 103 q 662 154 579 103 q 744 297 744 206 l 744 689 q 663 834 744 785 q 465 883 581 883 q 270 833 351 882 q 189 689 189 783 z "},"Õ":{"ha":935,"x_min":74,"x_max":860,"o":"m 344 1072 l 265 1101 q 315 1196 276 1160 q 400 1232 354 1232 q 488 1198 442 1232 q 546 1164 533 1164 q 599 1214 585 1164 l 681 1185 q 554 1060 649 1060 q 474 1094 522 1060 q 400 1129 426 1129 q 368 1113 385 1129 q 344 1072 351 1096 m 74 296 l 74 689 q 190 916 74 835 q 467 997 307 997 q 656 964 568 997 q 801 859 743 931 q 860 689 860 788 l 860 296 q 801 125 860 197 q 656 19 743 53 q 467 -14 568 -14 q 190 68 307 -14 q 74 296 74 150 m 189 689 l 189 297 q 271 154 189 206 q 467 103 353 103 q 662 154 579 103 q 744 297 744 206 l 744 689 q 663 834 744 785 q 465 883 581 883 q 270 833 351 882 q 189 689 189 783 z "},"Ö":{"ha":935,"x_min":74,"x_max":860,"o":"m 290 1090 q 280 1101 290 1090 q 269 1142 269 1111 q 290 1194 269 1172 q 342 1215 311 1215 q 393 1194 372 1215 q 414 1142 414 1172 q 393 1090 414 1111 q 342 1069 372 1069 q 290 1090 311 1069 m 521 1142 q 542 1194 521 1174 q 593 1215 563 1215 q 644 1194 624 1215 q 665 1142 665 1172 q 644 1090 665 1111 q 593 1069 624 1069 q 542 1090 563 1069 q 521 1142 521 1111 m 74 296 l 74 689 q 190 916 74 835 q 467 997 307 997 q 656 964 568 997 q 801 859 743 931 q 860 689 860 788 l 860 296 q 801 125 860 197 q 656 19 743 53 q 467 -14 568 -14 q 190 68 307 -14 q 74 296 74 150 m 189 689 l 189 297 q 271 154 189 206 q 467 103 353 103 q 662 154 579 103 q 744 297 744 206 l 744 689 q 663 834 744 785 q 465 883 581 883 q 270 833 351 882 q 189 689 189 783 z "},"×":{"ha":708,"x_min":61,"x_max":646,"o":"m 357 494 l 568 707 l 646 628 l 438 418 l 644 211 l 565 131 l 357 339 l 143 125 l 65 206 l 276 417 l 61 632 l 140 711 l 357 494 z "},"Ø":{"ha":935,"x_min":74,"x_max":860,"o":"m 726 1063 l 682 951 q 860 689 860 867 l 860 296 q 801 125 860 197 q 656 19 743 53 q 467 -14 568 -14 q 311 8 382 -14 l 267 -103 l 188 -76 l 233 40 q 74 296 74 128 l 74 689 q 190 916 74 835 q 467 997 307 997 q 601 981 536 997 l 644 1090 l 726 1063 m 189 689 l 189 296 q 276 150 189 203 l 560 874 q 465 883 517 883 q 270 833 351 882 q 189 689 189 783 m 744 296 l 744 689 q 642 846 744 794 l 353 117 q 467 101 410 101 q 662 153 579 101 q 744 296 744 204 z "},"Ù":{"ha":939,"x_min":96,"x_max":843,"o":"m 283 1238 l 432 1238 l 546 1051 l 432 1051 l 283 1238 m 213 983 l 213 300 q 288 154 213 206 q 469 103 364 103 q 650 154 574 103 q 726 300 726 206 l 726 983 l 843 983 l 843 300 q 732 69 843 153 q 469 -14 621 -14 q 207 69 318 -14 q 96 300 96 153 l 96 983 l 213 983 z "},"Ú":{"ha":939,"x_min":96,"x_max":843,"o":"m 506 1235 l 651 1235 l 510 1050 l 388 1050 l 506 1235 m 213 983 l 213 300 q 288 154 213 206 q 469 103 364 103 q 650 154 574 103 q 726 300 726 206 l 726 983 l 843 983 l 843 300 q 732 69 843 153 q 469 -14 621 -14 q 207 69 318 -14 q 96 300 96 153 l 96 983 l 213 983 z "},"Û":{"ha":939,"x_min":96,"x_max":843,"o":"m 531 1235 l 693 1050 l 561 1050 l 476 1146 l 388 1050 l 251 1050 l 428 1235 l 531 1235 m 213 983 l 213 300 q 288 154 213 206 q 469 103 364 103 q 650 154 574 103 q 726 300 726 206 l 726 983 l 843 983 l 843 300 q 732 69 843 153 q 469 -14 621 -14 q 207 69 318 -14 q 96 300 96 153 l 96 983 l 213 983 z "},"Ü":{"ha":939,"x_min":96,"x_max":843,"o":"m 293 1090 q 283 1101 293 1090 q 272 1142 272 1111 q 293 1194 272 1172 q 344 1215 314 1215 q 396 1194 375 1215 q 417 1142 417 1172 q 396 1090 417 1111 q 344 1069 375 1069 q 293 1090 314 1069 m 524 1142 q 544 1194 524 1174 q 596 1215 565 1215 q 647 1194 626 1215 q 668 1142 668 1172 q 647 1090 668 1111 q 596 1069 626 1069 q 544 1090 565 1069 q 524 1142 524 1111 m 213 983 l 213 300 q 288 154 213 206 q 469 103 364 103 q 650 154 574 103 q 726 300 726 206 l 726 983 l 843 983 l 843 300 q 732 69 843 153 q 469 -14 621 -14 q 207 69 318 -14 q 96 300 96 153 l 96 983 l 213 983 z "},"Ý":{"ha":804,"x_min":1,"x_max":803,"o":"m 439 1235 l 585 1235 l 443 1050 l 321 1050 l 439 1235 m 460 0 l 343 0 l 343 383 l 1 983 l 136 983 l 403 507 l 667 983 l 803 983 l 460 383 l 460 0 z "},"Þ":{"ha":849,"x_min":103,"x_max":810,"o":"m 103 0 l 103 983 l 218 983 l 218 806 l 478 806 q 722 712 635 806 q 810 490 810 618 q 722 269 810 363 q 479 176 635 176 l 218 176 l 218 0 l 103 0 m 218 293 l 478 293 q 638 351 581 293 q 694 490 694 410 q 638 631 694 572 q 478 689 581 690 l 218 689 l 218 293 z "},"ß":{"ha":811,"x_min":89,"x_max":758,"o":"m 403 103 q 572 153 501 100 q 642 296 642 206 q 583 433 642 388 q 426 476 524 478 l 286 476 l 286 588 l 426 588 q 550 629 500 588 q 600 747 600 671 q 542 860 600 824 q 401 897 483 897 q 261 857 321 897 q 201 739 201 817 l 201 -1 l 89 -1 l 89 739 q 183 936 89 864 q 401 1008 276 1008 q 622 940 528 1008 q 715 747 715 871 q 626 540 715 610 q 758 296 758 478 q 651 67 756 150 q 404 -14 547 -17 q 258 22 328 -12 l 260 146 q 403 103 326 103 z "},"à":{"ha":678,"x_min":46,"x_max":600,"o":"m 190 988 l 332 988 l 446 801 l 339 801 l 190 988 m 489 406 l 489 501 q 439 596 489 561 q 319 631 389 631 q 142 553 206 631 l 72 621 q 190 704 121 675 q 328 733 258 733 q 519 672 439 733 q 600 501 600 611 l 600 35 q 303 -14 454 -17 q 117 44 188 -12 q 46 211 46 100 q 124 382 47 324 q 317 440 201 440 q 489 406 407 440 m 489 94 l 489 325 q 328 353 408 353 q 206 318 254 353 q 156 211 157 283 q 197 114 156 146 q 306 81 238 82 q 489 94 411 78 z "},"á":{"ha":678,"x_min":46,"x_max":600,"o":"m 378 985 l 513 985 l 371 800 l 260 800 l 378 985 m 489 406 l 489 501 q 439 596 489 561 q 319 631 389 631 q 142 553 206 631 l 72 621 q 190 704 121 675 q 328 733 258 733 q 519 672 439 733 q 600 501 600 611 l 600 35 q 303 -14 454 -17 q 117 44 188 -12 q 46 211 46 100 q 124 382 47 324 q 317 440 201 440 q 489 406 407 440 m 489 94 l 489 325 q 328 353 408 353 q 206 318 254 353 q 156 211 157 283 q 197 114 156 146 q 306 81 238 82 q 489 94 411 78 z "},"â":{"ha":678,"x_min":46,"x_max":600,"o":"m 403 985 l 565 800 l 433 800 l 349 896 l 260 800 l 124 800 l 300 985 l 403 985 m 489 406 l 489 501 q 439 596 489 561 q 319 631 389 631 q 142 553 206 631 l 72 621 q 190 704 121 675 q 328 733 258 733 q 519 672 439 733 q 600 501 600 611 l 600 35 q 303 -14 454 -17 q 117 44 188 -12 q 46 211 46 100 q 124 382 47 324 q 317 440 201 440 q 489 406 407 440 m 489 94 l 489 325 q 328 353 408 353 q 206 318 254 353 q 156 211 157 283 q 197 114 156 146 q 306 81 238 82 q 489 94 411 78 z "},"ã":{"ha":678,"x_min":46,"x_max":600,"o":"m 211 822 l 135 850 q 183 941 146 906 q 265 976 221 976 q 351 944 306 976 q 407 911 396 911 q 458 960 444 911 l 538 931 q 415 810 508 810 q 338 843 383 810 q 265 876 292 876 q 235 861 251 876 q 211 822 218 846 m 489 406 l 489 501 q 439 596 489 561 q 319 631 389 631 q 142 553 206 631 l 72 621 q 190 704 121 675 q 328 733 258 733 q 519 672 439 733 q 600 501 600 611 l 600 35 q 303 -14 454 -17 q 117 44 188 -12 q 46 211 46 100 q 124 382 47 324 q 317 440 201 440 q 489 406 407 440 m 489 94 l 489 325 q 328 353 408 353 q 206 318 254 353 q 156 211 157 283 q 197 114 156 146 q 306 81 238 82 q 489 94 411 78 z "},"ä":{"ha":678,"x_min":46,"x_max":600,"o":"m 165 840 q 155 851 165 840 q 144 892 144 861 q 165 944 144 922 q 217 965 186 965 q 268 944 247 965 q 289 892 289 922 q 268 840 289 861 q 217 819 247 819 q 165 840 186 819 m 396 892 q 417 944 396 924 q 468 965 438 965 q 519 944 499 965 q 540 892 540 922 q 519 840 540 861 q 468 819 499 819 q 417 840 438 819 q 396 892 396 861 m 489 406 l 489 501 q 439 596 489 561 q 319 631 389 631 q 142 553 206 631 l 72 621 q 190 704 121 675 q 328 733 258 733 q 519 672 439 733 q 600 501 600 611 l 600 35 q 303 -14 454 -17 q 117 44 188 -12 q 46 211 46 100 q 124 382 47 324 q 317 440 201 440 q 489 406 407 440 m 489 94 l 489 325 q 328 353 408 353 q 206 318 254 353 q 156 211 157 283 q 197 114 156 146 q 306 81 238 82 q 489 94 411 78 z "},"å":{"ha":678,"x_min":46,"x_max":600,"o":"m 240 818 q 219 838 240 818 q 199 915 199 857 q 240 1013 199 974 q 342 1051 282 1051 q 440 1011 400 1051 q 481 914 481 971 q 440 819 481 858 q 342 779 400 779 q 240 818 282 779 m 392 866 q 401 875 392 866 q 411 915 411 885 q 392 965 411 946 q 340 983 372 983 q 290 964 310 983 q 269 914 269 944 q 290 865 269 883 q 340 847 310 847 q 392 866 372 847 m 489 406 l 489 501 q 439 596 489 561 q 319 631 389 631 q 142 553 206 631 l 72 621 q 190 704 121 675 q 328 733 258 733 q 519 672 439 733 q 600 501 600 611 l 600 35 q 303 -14 454 -17 q 117 44 188 -12 q 46 211 46 100 q 124 382 47 324 q 317 440 201 440 q 489 406 407 440 m 489 94 l 489 325 q 328 353 408 353 q 206 318 254 353 q 156 211 157 283 q 197 114 156 146 q 306 81 238 82 q 489 94 411 78 z "},"æ":{"ha":1099,"x_min":46,"x_max":1042,"o":"m 489 419 l 489 500 q 439 592 489 560 q 319 624 389 624 q 149 546 210 624 l 72 619 q 326 732 172 732 q 455 701 392 732 q 547 617 518 669 q 637 702 576 674 q 765 731 697 731 q 960 667 878 731 q 1042 490 1042 604 l 1042 314 l 599 314 l 599 222 q 648 129 599 163 q 765 96 697 96 q 865 121 819 96 q 931 193 911 146 l 1031 144 q 922 27 994 68 q 765 -14 849 -14 q 558 60 639 -14 q 324 -14 464 -14 q 126 48 207 -14 q 46 229 46 110 q 124 403 46 342 q 311 465 201 465 q 489 419 415 465 m 932 403 l 932 493 q 883 586 932 553 q 765 619 833 619 q 649 588 699 619 q 599 497 600 556 l 599 403 l 932 403 m 501 143 q 489 225 489 179 l 489 335 q 332 368 408 368 q 207 335 256 368 q 157 229 158 303 q 206 128 158 161 q 325 94 253 94 q 501 143 421 94 z "},"ç":{"ha":644,"x_min":65,"x_max":613,"o":"m 511 211 l 613 163 q 524 42 586 88 q 382 -11 461 -3 l 351 -89 q 441 -119 413 -87 q 465 -199 469 -150 q 406 -303 458 -271 q 288 -331 353 -336 q 167 -293 224 -325 l 197 -218 q 305 -244 254 -249 q 358 -203 356 -240 q 333 -162 361 -174 q 257 -164 304 -151 l 239 -147 l 293 -11 q 131 65 196 4 q 65 226 65 126 l 65 493 q 148 670 65 607 q 343 733 231 733 q 492 697 422 733 q 601 590 563 660 l 511 536 l 501 550 q 439 604 483 586 q 343 622 394 622 q 226 589 275 622 q 176 493 176 556 l 176 224 q 226 131 176 164 q 343 97 275 97 q 449 126 401 97 q 511 211 496 156 z "},"è":{"ha":678,"x_min":67,"x_max":621,"o":"m 160 988 l 308 988 l 422 801 l 308 801 l 160 988 m 179 304 l 179 217 q 228 122 179 154 q 346 89 276 89 q 444 114 399 89 q 510 186 489 139 l 607 144 q 499 27 571 68 q 346 -14 428 -14 q 150 49 233 -14 q 67 225 67 113 l 67 494 q 149 671 67 608 q 346 733 232 733 q 539 671 457 733 q 621 494 621 608 l 621 304 l 179 304 m 515 397 l 515 500 q 464 596 515 560 q 346 632 413 632 q 226 597 274 632 q 179 497 178 561 l 179 397 l 515 397 z "},"é":{"ha":678,"x_min":67,"x_max":621,"o":"m 382 985 l 528 985 l 386 800 l 264 800 l 382 985 m 179 304 l 179 217 q 228 122 179 154 q 346 89 276 89 q 444 114 399 89 q 510 186 489 139 l 607 144 q 499 27 571 68 q 346 -14 428 -14 q 150 49 233 -14 q 67 225 67 113 l 67 494 q 149 671 67 608 q 346 733 232 733 q 539 671 457 733 q 621 494 621 608 l 621 304 l 179 304 m 515 397 l 515 500 q 464 596 515 560 q 346 632 413 632 q 226 597 274 632 q 179 497 178 561 l 179 397 l 515 397 z "},"ê":{"ha":678,"x_min":67,"x_max":621,"o":"m 397 985 l 560 800 l 432 800 l 343 901 l 250 800 l 118 800 l 294 985 l 397 985 m 179 304 l 179 217 q 228 122 179 154 q 346 89 276 89 q 444 114 399 89 q 510 186 489 139 l 607 144 q 499 27 571 68 q 346 -14 428 -14 q 150 49 233 -14 q 67 225 67 113 l 67 494 q 149 671 67 608 q 346 733 232 733 q 539 671 457 733 q 621 494 621 608 l 621 304 l 179 304 m 515 397 l 515 500 q 464 596 515 560 q 346 632 413 632 q 226 597 274 632 q 179 497 178 561 l 179 397 l 515 397 z "},"ë":{"ha":678,"x_min":67,"x_max":621,"o":"m 169 840 q 159 851 169 840 q 149 892 149 861 q 169 944 149 922 q 221 965 190 965 q 272 944 251 965 q 293 892 293 922 q 272 840 293 861 q 221 819 251 819 q 169 840 190 819 m 400 892 q 421 944 400 924 q 472 965 442 965 q 524 944 503 965 q 544 892 544 922 q 524 840 544 861 q 472 819 503 819 q 421 840 442 819 q 400 892 400 861 m 179 304 l 179 217 q 228 122 179 154 q 346 89 276 89 q 444 114 399 89 q 510 186 489 139 l 607 144 q 499 27 571 68 q 346 -14 428 -14 q 150 49 233 -14 q 67 225 67 113 l 67 494 q 149 671 67 608 q 346 733 232 733 q 539 671 457 733 q 621 494 621 608 l 621 304 l 179 304 m 515 397 l 515 500 q 464 596 515 560 q 346 632 413 632 q 226 597 274 632 q 179 497 178 561 l 179 397 l 515 397 z "},"ì":{"ha":294,"x_min":-39,"x_max":224,"o":"m -39 974 l 110 974 l 224 788 l 110 788 l -39 974 m 206 719 l 206 0 l 89 0 l 89 719 l 206 719 z "},"í":{"ha":294,"x_min":65,"x_max":329,"o":"m 183 971 l 329 971 l 188 786 l 65 786 l 183 971 m 206 719 l 206 0 l 89 0 l 89 719 l 206 719 z "},"î":{"ha":294,"x_min":-71,"x_max":371,"o":"m 208 971 l 371 786 l 239 786 l 154 882 l 65 786 l -71 786 l 106 971 l 208 971 m 206 719 l 206 0 l 89 0 l 89 719 l 206 719 z "},"ï":{"ha":294,"x_min":-31,"x_max":324,"o":"m -10 826 q -20 837 -10 826 q -31 878 -31 847 q -10 930 -31 908 q 42 951 11 951 q 93 930 72 951 q 114 878 114 908 q 93 826 114 847 q 42 806 72 806 q -10 826 11 806 m 179 878 q 200 931 179 910 q 251 951 221 951 q 303 930 282 951 q 324 878 324 908 q 303 826 324 847 q 251 806 282 806 q 200 826 221 806 q 179 878 179 847 m 206 719 l 206 0 l 89 0 l 89 719 l 206 719 z "},"ð":{"ha":700,"x_min":65,"x_max":614,"o":"m 485 1040 l 460 961 q 614 746 614 901 l 614 44 l 528 18 q 333 -14 408 -14 q 145 50 225 -12 q 65 224 65 113 l 65 429 q 147 603 65 539 q 339 667 229 668 q 504 636 432 667 l 504 746 q 426 857 504 818 l 393 753 l 311 779 l 342 874 q 244 856 292 875 q 168 800 197 836 l 90 871 q 221 960 144 932 q 375 981 297 988 l 403 1068 l 485 1040 m 504 122 l 504 525 q 336 557 421 557 q 222 523 269 556 q 175 429 175 490 l 175 215 q 222 122 175 154 q 335 89 269 89 q 504 122 421 89 z "},"ñ":{"ha":721,"x_min":86,"x_max":638,"o":"m 236 822 l 157 851 q 207 946 168 910 q 292 982 246 982 q 379 948 333 982 q 438 914 425 914 q 490 964 476 914 l 572 935 q 446 810 540 810 q 366 844 414 810 q 292 879 318 879 q 260 863 276 879 q 236 822 243 846 m 86 0 l 86 674 q 367 733 257 733 q 558 670 479 731 q 638 497 638 610 l 638 0 l 528 0 l 528 501 q 479 597 528 563 q 367 631 431 631 q 197 599 282 631 l 197 0 l 86 0 z "},"ò":{"ha":688,"x_min":65,"x_max":621,"o":"m 179 988 l 321 988 l 435 801 l 328 801 l 179 988 m 65 226 l 65 493 q 148 669 65 606 q 344 733 231 732 q 539 669 457 732 q 621 493 621 606 l 621 226 q 539 50 621 113 q 344 -14 457 -12 q 148 50 231 -12 q 65 226 65 113 m 344 628 q 227 594 278 628 q 176 496 176 560 l 176 225 q 227 126 176 161 q 344 92 278 92 q 460 126 410 92 q 510 225 510 161 l 510 496 q 460 593 510 558 q 344 628 410 628 z "},"ó":{"ha":688,"x_min":65,"x_max":621,"o":"m 375 985 l 513 985 l 371 800 l 257 800 l 375 985 m 65 226 l 65 493 q 148 669 65 606 q 344 733 231 732 q 539 669 457 732 q 621 493 621 606 l 621 226 q 539 50 621 113 q 344 -14 457 -12 q 148 50 231 -12 q 65 226 65 113 m 344 628 q 227 594 278 628 q 176 496 176 560 l 176 225 q 227 126 176 161 q 344 92 278 92 q 460 126 410 92 q 510 225 510 161 l 510 496 q 460 593 510 558 q 344 628 410 628 z "},"ô":{"ha":688,"x_min":65,"x_max":621,"o":"m 399 985 l 561 800 l 429 800 l 344 896 l 256 800 l 119 800 l 296 985 l 399 985 m 65 226 l 65 493 q 148 669 65 606 q 344 733 231 732 q 539 669 457 732 q 621 493 621 606 l 621 226 q 539 50 621 113 q 344 -14 457 -12 q 148 50 231 -12 q 65 226 65 113 m 344 628 q 227 594 278 628 q 176 496 176 560 l 176 225 q 227 126 176 161 q 344 92 278 92 q 460 126 410 92 q 510 225 510 161 l 510 496 q 460 593 510 558 q 344 628 410 628 z "},"õ":{"ha":688,"x_min":65,"x_max":621,"o":"m 217 822 l 138 851 q 188 946 149 910 q 272 982 226 982 q 360 948 314 982 q 418 914 406 914 q 471 964 457 914 l 553 935 q 426 810 521 810 q 347 844 394 810 q 272 879 299 879 q 240 863 257 879 q 217 822 224 846 m 65 226 l 65 493 q 148 669 65 606 q 344 733 231 732 q 539 669 457 732 q 621 493 621 606 l 621 226 q 539 50 621 113 q 344 -14 457 -12 q 148 50 231 -12 q 65 226 65 113 m 344 628 q 227 594 278 628 q 176 496 176 560 l 176 225 q 227 126 176 161 q 344 92 278 92 q 460 126 410 92 q 510 225 510 161 l 510 496 q 460 593 510 558 q 344 628 410 628 z "},"ö":{"ha":688,"x_min":65,"x_max":621,"o":"m 168 840 q 158 851 168 840 q 147 892 147 861 q 168 944 147 922 q 219 965 189 965 q 271 944 250 965 q 292 892 292 922 q 271 840 292 861 q 219 819 250 819 q 168 840 189 819 m 399 892 q 419 944 399 924 q 471 965 440 965 q 522 944 501 965 q 543 892 543 922 q 522 840 543 861 q 471 819 501 819 q 419 840 440 819 q 399 892 399 861 m 65 226 l 65 493 q 148 669 65 606 q 344 733 231 732 q 539 669 457 732 q 621 493 621 606 l 621 226 q 539 50 621 113 q 344 -14 457 -12 q 148 50 231 -12 q 65 226 65 113 m 344 628 q 227 594 278 628 q 176 496 176 560 l 176 225 q 227 126 176 161 q 344 92 278 92 q 460 126 410 92 q 510 225 510 161 l 510 496 q 460 593 510 558 q 344 628 410 628 z "},"÷":{"ha":735,"x_min":64,"x_max":672,"o":"m 308 605 q 295 618 308 605 q 282 665 282 631 q 307 725 282 700 q 368 750 332 750 q 429 725 404 750 q 454 665 454 700 q 428 605 454 631 q 368 579 403 579 q 308 605 333 579 m 672 513 l 672 397 l 64 397 l 64 513 l 672 513 m 314 183 q 301 196 314 183 q 289 244 289 208 q 314 304 289 281 q 375 329 339 328 q 436 304 411 329 q 461 244 461 279 q 436 183 461 208 q 375 158 411 158 q 314 183 339 158 z "},"ø":{"ha":688,"x_min":65,"x_max":621,"o":"m 561 785 l 519 683 q 621 493 621 615 l 621 226 q 539 50 621 113 q 344 -14 457 -12 q 242 1 292 -14 l 197 -106 l 126 -75 l 171 33 q 65 226 65 101 l 65 493 q 148 669 65 606 q 344 733 231 732 q 447 717 397 733 l 486 813 l 561 785 m 176 493 l 176 228 q 214 142 176 176 l 406 614 q 344 622 376 622 q 226 589 276 622 q 176 493 176 556 m 510 228 l 510 493 q 476 576 510 540 l 283 106 q 344 97 313 97 q 460 131 410 97 q 510 228 510 165 z "},"ù":{"ha":722,"x_min":83,"x_max":636,"o":"m 174 974 l 322 974 l 436 788 l 322 788 l 174 974 m 636 719 l 636 39 q 356 -14 486 -14 q 164 50 244 -12 q 83 225 83 113 l 83 719 l 194 719 l 194 224 q 242 128 194 164 q 356 92 290 93 q 525 115 456 92 l 525 719 l 636 719 z "},"ú":{"ha":722,"x_min":83,"x_max":636,"o":"m 396 971 l 542 971 l 400 786 l 278 786 l 396 971 m 636 719 l 636 39 q 356 -14 486 -14 q 164 50 244 -12 q 83 225 83 113 l 83 719 l 194 719 l 194 224 q 242 128 194 164 q 356 92 290 93 q 525 115 456 92 l 525 719 l 636 719 z "},"û":{"ha":722,"x_min":83,"x_max":636,"o":"m 421 971 l 583 786 l 451 786 l 367 882 l 278 786 l 142 786 l 318 971 l 421 971 m 636 719 l 636 39 q 356 -14 486 -14 q 164 50 244 -12 q 83 225 83 113 l 83 719 l 194 719 l 194 224 q 242 128 194 164 q 356 92 290 93 q 525 115 456 92 l 525 719 l 636 719 z "},"ü":{"ha":722,"x_min":83,"x_max":636,"o":"m 183 826 q 173 837 183 826 q 163 878 163 847 q 183 930 163 908 q 235 951 204 951 q 286 930 265 951 q 307 878 307 908 q 286 826 307 847 q 235 806 265 806 q 183 826 204 806 m 414 878 q 435 931 414 910 q 486 951 456 951 q 538 930 517 951 q 558 878 558 908 q 538 826 558 847 q 486 806 517 806 q 435 826 456 806 q 414 878 414 847 m 636 719 l 636 39 q 356 -14 486 -14 q 164 50 244 -12 q 83 225 83 113 l 83 719 l 194 719 l 194 224 q 242 128 194 164 q 356 92 290 93 q 525 115 456 92 l 525 719 l 636 719 z "},"ý":{"ha":740,"x_min":83,"x_max":651,"o":"m 404 971 l 550 971 l 408 786 l 286 786 l 404 971 m 110 -157 l 186 -87 q 263 -141 214 -122 q 363 -160 311 -160 q 489 -127 438 -160 q 540 -25 540 -94 l 540 31 q 368 -14 479 -11 q 169 52 254 -15 q 83 233 83 119 l 83 719 l 197 719 l 197 231 q 248 131 197 168 q 365 93 299 94 q 540 128 451 93 l 540 719 l 651 719 l 651 -25 q 569 -206 651 -143 q 371 -268 488 -268 q 228 -239 299 -268 q 110 -157 157 -210 z "},"þ":{"ha":711,"x_min":89,"x_max":644,"o":"m 200 968 l 200 715 q 371 733 288 733 q 564 670 483 732 q 644 494 644 608 l 644 226 q 562 50 644 115 q 367 -14 479 -15 q 200 18 282 -12 l 200 -258 l 89 -258 l 89 968 l 200 968 m 200 614 l 200 119 q 369 88 281 88 q 485 122 436 89 q 533 217 533 156 l 533 506 q 486 598 533 565 q 371 631 439 631 q 200 614 260 631 z "},"ÿ":{"ha":740,"x_min":83,"x_max":651,"o":"m 192 826 q 181 837 192 826 q 171 878 171 847 q 192 930 171 908 q 243 951 213 951 q 294 930 274 951 q 315 878 315 908 q 294 826 315 847 q 243 806 274 806 q 192 826 213 806 m 422 878 q 443 931 422 910 q 494 951 464 951 q 546 930 525 951 q 567 878 567 908 q 546 826 567 847 q 494 806 525 806 q 443 826 464 806 q 422 878 422 847 m 110 -157 l 186 -87 q 263 -141 214 -122 q 363 -160 311 -160 q 489 -127 438 -160 q 540 -25 540 -94 l 540 31 q 368 -14 479 -11 q 169 52 254 -15 q 83 233 83 119 l 83 719 l 197 719 l 197 231 q 248 131 197 168 q 365 93 299 94 q 540 128 451 93 l 540 719 l 651 719 l 651 -25 q 569 -206 651 -143 q 371 -268 488 -268 q 228 -239 299 -268 q 110 -157 157 -210 z "},"Ā":{"ha":860,"x_min":6,"x_max":856,"o":"m 250 1082 l 250 1182 l 607 1182 l 607 1082 l 250 1082 m 500 983 l 856 0 l 733 0 l 619 315 l 240 315 q 192 181 235 300 q 129 0 150 61 l 6 0 l 358 983 l 500 983 m 279 432 l 579 432 q 500 656 549 515 q 429 858 451 796 q 279 432 349 626 z "},"ā":{"ha":678,"x_min":46,"x_max":600,"o":"m 163 832 l 163 932 l 519 932 l 519 832 l 163 832 m 489 406 l 489 501 q 439 596 489 561 q 319 631 389 631 q 142 553 206 631 l 72 621 q 190 704 121 675 q 328 733 258 733 q 519 672 439 733 q 600 501 600 611 l 600 35 q 303 -14 454 -17 q 117 44 188 -12 q 46 211 46 100 q 124 382 47 324 q 317 440 201 440 q 489 406 407 440 m 489 94 l 489 325 q 328 353 408 353 q 206 318 254 353 q 156 211 157 283 q 197 114 156 146 q 306 81 238 82 q 489 94 411 78 z "},"Ă":{"ha":860,"x_min":6,"x_max":856,"o":"m 429 1050 q 303 1104 356 1050 q 250 1235 250 1158 l 351 1235 q 374 1176 351 1200 q 429 1151 397 1151 q 485 1176 461 1151 q 508 1235 508 1200 l 614 1235 q 560 1104 614 1158 q 429 1050 506 1050 m 500 983 l 856 0 l 733 0 l 619 315 l 240 315 q 192 181 235 300 q 129 0 150 61 l 6 0 l 358 983 l 500 983 m 279 432 l 579 432 q 500 656 549 515 q 429 858 451 796 q 279 432 349 626 z "},"ă":{"ha":678,"x_min":46,"x_max":600,"o":"m 342 800 q 215 854 268 800 q 163 985 163 908 l 264 985 q 287 926 264 950 q 342 901 310 901 q 397 926 374 901 q 421 985 421 950 l 526 985 q 472 854 526 908 q 342 800 418 800 m 489 406 l 489 501 q 439 596 489 561 q 319 631 389 631 q 142 553 206 631 l 72 621 q 190 704 121 675 q 328 733 258 733 q 519 672 439 733 q 600 501 600 611 l 600 35 q 303 -14 454 -17 q 117 44 188 -12 q 46 211 46 100 q 124 382 47 324 q 317 440 201 440 q 489 406 407 440 m 489 94 l 489 325 q 328 353 408 353 q 206 318 254 353 q 156 211 157 283 q 197 114 156 146 q 306 81 238 82 q 489 94 411 78 z "},"Ą":{"ha":857,"x_min":4,"x_max":886,"o":"m 854 -215 l 886 -293 q 771 -335 829 -332 q 675 -310 713 -339 q 633 -233 638 -282 q 758 0 622 -106 l 732 0 l 618 315 l 239 315 q 191 181 233 300 q 128 0 149 61 l 4 0 l 357 983 l 499 983 l 854 0 q 756 -111 785 -57 q 738 -196 728 -165 q 789 -238 750 -236 q 854 -215 828 -240 m 278 432 l 578 432 q 499 656 547 515 q 428 858 450 796 q 278 432 347 626 z "},"ą":{"ha":683,"x_min":47,"x_max":633,"o":"m 601 -207 l 633 -285 q 518 -327 576 -324 q 422 -302 460 -331 q 381 -225 385 -274 q 476 1 371 -111 q 304 -14 386 -15 q 120 55 193 -12 q 47 235 47 122 q 130 411 49 356 q 333 467 211 467 q 490 425 418 467 l 490 501 q 440 593 490 561 q 321 625 390 625 q 150 547 211 625 l 74 621 q 191 704 122 675 q 329 733 260 733 q 521 672 440 733 q 601 501 601 611 l 601 35 q 498 -95 521 -36 q 485 -187 475 -154 q 536 -230 497 -228 q 601 -207 575 -232 m 307 85 q 490 99 413 82 l 490 331 q 329 360 406 360 q 157 235 158 360 q 199 127 157 168 q 307 85 242 86 z "},"Ć":{"ha":828,"x_min":74,"x_max":796,"o":"m 485 1244 l 631 1244 l 489 1060 l 367 1060 l 485 1244 m 74 293 l 74 686 q 185 914 74 831 q 449 997 297 997 q 656 947 561 997 q 796 800 751 896 l 692 750 q 590 849 658 814 q 444 883 522 883 q 266 831 342 883 q 190 689 190 779 l 190 293 q 266 153 190 203 q 444 103 342 103 q 592 137 524 103 q 692 235 660 171 l 796 186 q 653 38 750 90 q 444 -14 556 -14 q 184 67 294 -14 q 74 293 74 149 z "},"ć":{"ha":644,"x_min":65,"x_max":613,"o":"m 379 985 l 525 985 l 383 800 l 261 800 l 379 985 m 511 536 l 501 550 q 439 604 483 586 q 343 622 394 622 q 226 589 275 622 q 176 493 176 556 l 176 224 q 226 131 176 164 q 343 97 275 97 q 449 126 401 97 q 511 211 496 156 l 613 163 q 508 32 583 78 q 343 -14 432 -14 q 148 49 231 -14 q 65 226 65 113 l 65 493 q 148 670 65 607 q 343 733 231 733 q 492 697 422 733 q 601 590 563 660 l 511 536 z "},"Ċ":{"ha":828,"x_min":74,"x_max":796,"o":"m 391 1097 q 380 1108 391 1097 q 368 1153 368 1119 q 391 1209 368 1186 q 447 1232 414 1232 q 503 1209 481 1232 q 526 1153 526 1186 q 503 1097 526 1119 q 447 1074 481 1074 q 391 1097 414 1074 m 74 293 l 74 686 q 185 914 74 831 q 449 997 297 997 q 656 947 561 997 q 796 800 751 896 l 692 750 q 590 849 658 814 q 444 883 522 883 q 266 831 342 883 q 190 689 190 779 l 190 293 q 266 153 190 203 q 444 103 342 103 q 592 137 524 103 q 692 235 660 171 l 796 186 q 653 38 750 90 q 444 -14 556 -14 q 184 67 294 -14 q 74 293 74 149 z "},"ċ":{"ha":644,"x_min":65,"x_max":613,"o":"m 285 837 q 274 848 285 837 q 263 893 263 860 q 285 949 263 926 q 342 972 308 972 q 398 949 375 972 q 421 893 421 926 q 398 837 421 860 q 342 814 375 814 q 285 837 308 814 m 511 536 l 501 550 q 439 604 483 586 q 343 622 394 622 q 226 589 275 622 q 176 493 176 556 l 176 224 q 226 131 176 164 q 343 97 275 97 q 449 126 401 97 q 511 211 496 156 l 613 163 q 508 32 583 78 q 343 -14 432 -14 q 148 49 231 -14 q 65 226 65 113 l 65 493 q 148 670 65 607 q 343 733 231 733 q 492 697 422 733 q 601 590 563 660 l 511 536 z "},"Č":{"ha":828,"x_min":74,"x_max":796,"o":"m 393 1060 l 215 1244 l 353 1244 l 449 1153 l 539 1244 l 679 1244 l 501 1060 l 393 1060 m 74 293 l 74 686 q 185 914 74 831 q 449 997 297 997 q 656 947 561 997 q 796 800 751 896 l 692 750 q 590 849 658 814 q 444 883 522 883 q 266 831 342 883 q 190 689 190 779 l 190 293 q 266 153 190 203 q 444 103 342 103 q 592 137 524 103 q 692 235 660 171 l 796 186 q 653 38 750 90 q 444 -14 556 -14 q 184 67 294 -14 q 74 293 74 149 z "},"č":{"ha":644,"x_min":65,"x_max":613,"o":"m 288 800 l 110 985 l 247 985 l 343 893 l 433 985 l 574 985 l 396 800 l 288 800 m 511 536 l 501 550 q 439 604 483 586 q 343 622 394 622 q 226 589 275 622 q 176 493 176 556 l 176 224 q 226 131 176 164 q 343 97 275 97 q 449 126 401 97 q 511 211 496 156 l 613 163 q 508 32 583 78 q 343 -14 432 -14 q 148 49 231 -14 q 65 226 65 113 l 65 493 q 148 670 65 607 q 343 733 231 733 q 492 697 422 733 q 601 590 563 660 l 511 536 z "},"Ď":{"ha":886,"x_min":103,"x_max":810,"o":"m 381 1050 l 203 1235 l 340 1235 l 436 1143 l 526 1235 l 667 1235 l 489 1050 l 381 1050 m 103 983 l 436 983 q 701 908 592 983 q 810 688 810 833 l 810 294 q 754 127 810 196 q 617 29 699 58 q 436 0 535 0 l 103 0 l 103 983 m 219 117 l 436 117 q 619 161 544 117 q 693 294 693 206 l 693 688 q 619 822 693 778 q 436 867 544 867 l 219 867 l 219 117 z "},"ď":{"ha":724,"x_min":67,"x_max":806,"o":"m 624 972 l 624 38 q 342 -14 472 -14 q 148 51 229 -11 q 67 225 67 113 l 67 492 q 150 667 67 603 q 344 732 233 732 q 513 688 454 732 l 513 972 l 624 972 m 806 972 l 754 742 l 674 742 l 701 972 l 806 972 m 342 89 q 513 110 444 89 l 513 588 q 344 631 429 631 q 228 592 278 631 q 179 492 178 553 l 179 226 q 228 127 179 165 q 342 89 276 89 z "},"Đ":{"ha":892,"x_min":25,"x_max":815,"o":"m 108 540 l 108 983 l 443 983 q 706 908 597 983 q 815 688 815 833 l 815 294 q 760 127 815 196 q 623 29 704 58 q 443 0 542 0 l 108 0 l 108 432 l 25 432 l 25 540 l 108 540 m 225 117 l 443 117 q 625 161 550 117 q 700 294 700 206 l 700 688 q 625 822 700 778 q 443 867 550 867 l 225 867 l 225 540 l 392 540 l 392 432 l 225 432 l 225 117 z "},"đ":{"ha":710,"x_min":67,"x_max":700,"o":"m 700 815 l 624 815 l 624 38 q 342 -14 472 -14 q 148 51 229 -11 q 67 225 67 113 l 67 492 q 150 667 67 603 q 344 732 233 732 q 513 688 454 732 l 513 815 l 368 815 l 368 885 l 513 885 l 513 972 l 624 972 l 624 885 l 700 885 l 700 815 m 513 110 l 513 588 q 344 631 429 631 q 228 592 278 631 q 179 492 178 553 l 179 226 q 228 127 179 165 q 342 89 276 89 q 513 110 444 89 z "},"Ē":{"ha":793,"x_min":103,"x_max":733,"o":"m 239 1085 l 239 1185 l 596 1185 l 596 1085 l 239 1085 m 219 867 l 219 550 l 693 550 l 693 433 l 219 433 l 219 117 l 733 117 l 733 0 l 103 0 l 103 983 l 733 983 l 733 867 l 219 867 z "},"ē":{"ha":678,"x_min":67,"x_max":621,"o":"m 167 832 l 167 932 l 524 932 l 524 832 l 167 832 m 179 304 l 179 217 q 228 122 179 154 q 346 89 276 89 q 444 114 399 89 q 510 186 489 139 l 607 144 q 499 27 571 68 q 346 -14 428 -14 q 150 49 233 -14 q 67 225 67 113 l 67 494 q 149 671 67 608 q 346 733 232 733 q 539 671 457 733 q 621 494 621 608 l 621 304 l 179 304 m 515 397 l 515 500 q 464 596 515 560 q 346 632 413 632 q 226 597 274 632 q 179 497 178 561 l 179 397 l 515 397 z "},"Ė":{"ha":793,"x_min":103,"x_max":733,"o":"m 360 1090 q 349 1101 360 1090 q 338 1146 338 1113 q 360 1202 338 1179 q 417 1225 383 1225 q 473 1202 450 1225 q 496 1146 496 1179 q 473 1090 496 1113 q 417 1067 450 1067 q 360 1090 383 1067 m 219 867 l 219 550 l 693 550 l 693 433 l 219 433 l 219 117 l 733 117 l 733 0 l 103 0 l 103 983 l 733 983 l 733 867 l 219 867 z "},"ė":{"ha":678,"x_min":67,"x_max":621,"o":"m 288 837 q 277 848 288 837 q 265 893 265 860 q 288 949 265 926 q 344 972 311 972 q 401 949 378 972 q 424 893 424 926 q 401 837 424 860 q 344 814 378 814 q 288 837 311 814 m 179 304 l 179 217 q 228 122 179 154 q 346 89 276 89 q 444 114 399 89 q 510 186 489 139 l 607 144 q 499 27 571 68 q 346 -14 428 -14 q 150 49 233 -14 q 67 225 67 113 l 67 494 q 149 671 67 608 q 346 733 232 733 q 539 671 457 733 q 621 494 621 608 l 621 304 l 179 304 m 515 397 l 515 500 q 464 596 515 560 q 346 632 413 632 q 226 597 274 632 q 179 497 178 561 l 179 397 l 515 397 z "},"Ę":{"ha":792,"x_min":101,"x_max":765,"o":"m 733 -215 l 765 -293 q 650 -335 708 -332 q 554 -310 592 -339 q 513 -233 517 -282 q 639 0 501 -107 l 101 0 l 101 983 l 732 983 l 732 867 l 218 867 l 218 550 l 692 550 l 692 433 l 218 433 l 218 117 l 732 117 l 732 0 q 637 -112 665 -56 q 617 -196 608 -168 q 668 -238 629 -236 q 733 -215 707 -240 z "},"ę":{"ha":676,"x_min":65,"x_max":619,"o":"m 178 304 l 178 217 q 226 122 178 154 q 344 89 275 89 q 442 114 397 89 q 508 186 488 139 l 608 144 q 535 51 581 88 q 430 -85 453 -22 q 418 -182 407 -147 q 469 -224 431 -222 q 535 -201 508 -226 l 567 -279 q 451 -322 510 -318 q 356 -297 393 -325 q 314 -219 318 -268 q 394 -10 304 -106 q 344 -14 369 -14 q 149 49 232 -14 q 65 225 65 113 l 65 494 q 148 671 65 608 q 344 733 231 733 q 538 671 456 733 q 619 494 619 608 l 619 304 l 178 304 m 514 397 l 514 497 q 463 590 514 557 q 344 622 413 622 q 226 589 275 622 q 178 494 176 556 l 178 397 l 514 397 z "},"Ě":{"ha":793,"x_min":103,"x_max":733,"o":"m 363 1053 l 185 1238 l 322 1238 l 418 1146 l 508 1238 l 649 1238 l 471 1053 l 363 1053 m 219 867 l 219 550 l 693 550 l 693 433 l 219 433 l 219 117 l 733 117 l 733 0 l 103 0 l 103 983 l 733 983 l 733 867 l 219 867 z "},"ě":{"ha":678,"x_min":67,"x_max":621,"o":"m 290 800 l 113 985 l 250 985 l 346 893 l 436 985 l 576 985 l 399 800 l 290 800 m 179 304 l 179 217 q 228 122 179 154 q 346 89 276 89 q 444 114 399 89 q 510 186 489 139 l 607 144 q 499 27 571 68 q 346 -14 428 -14 q 150 49 233 -14 q 67 225 67 113 l 67 494 q 149 671 67 608 q 346 733 232 733 q 539 671 457 733 q 621 494 621 608 l 621 304 l 179 304 m 515 397 l 515 500 q 464 596 515 560 q 346 632 413 632 q 226 597 274 632 q 179 497 178 561 l 179 397 l 515 397 z "},"Ğ":{"ha":878,"x_min":74,"x_max":819,"o":"m 446 1050 q 319 1104 372 1050 q 267 1235 267 1158 l 368 1235 q 391 1176 368 1200 q 446 1151 414 1151 q 501 1176 478 1151 q 525 1235 525 1200 l 631 1235 q 576 1104 631 1158 q 446 1050 522 1050 m 74 297 l 74 690 q 128 859 74 788 q 267 964 183 931 q 446 997 350 997 q 651 945 556 997 q 793 797 747 893 l 688 750 q 589 849 657 814 q 443 883 521 883 q 265 833 340 883 q 189 693 189 783 l 189 297 q 265 154 189 206 q 446 103 342 103 q 627 154 550 103 q 704 297 704 206 l 704 396 l 414 396 l 414 511 l 819 511 l 819 297 q 709 68 819 150 q 446 -14 599 -14 q 183 68 293 -14 q 74 297 74 150 z "},"ğ":{"ha":703,"x_min":67,"x_max":617,"o":"m 365 800 q 239 854 292 800 q 186 985 186 908 l 288 985 q 310 926 288 950 q 365 901 333 901 q 421 926 397 901 q 444 985 444 950 l 550 985 q 496 854 550 908 q 365 800 442 800 m 92 -162 l 160 -94 q 235 -144 182 -124 q 335 -165 288 -165 q 507 -36 507 -165 l 507 24 q 343 -14 436 -14 q 149 49 232 -15 q 67 225 67 114 l 67 497 q 147 671 67 608 q 338 733 228 733 q 617 676 476 733 l 617 -36 q 537 -209 617 -150 q 344 -268 457 -268 q 92 -162 189 -268 m 507 115 l 507 603 q 338 632 432 632 q 225 594 274 632 q 178 494 176 556 l 178 219 q 224 122 178 158 q 340 85 271 85 q 507 115 425 85 z "},"Ġ":{"ha":878,"x_min":74,"x_max":819,"o":"m 388 1087 q 377 1098 388 1087 q 365 1143 365 1110 q 388 1199 365 1176 q 444 1222 411 1222 q 501 1199 478 1222 q 524 1143 524 1176 q 501 1087 524 1110 q 444 1064 478 1064 q 388 1087 411 1064 m 74 297 l 74 690 q 128 859 74 788 q 267 964 183 931 q 446 997 350 997 q 651 945 556 997 q 793 797 747 893 l 688 750 q 589 849 657 814 q 443 883 521 883 q 265 833 340 883 q 189 693 189 783 l 189 297 q 265 154 189 206 q 446 103 342 103 q 627 154 550 103 q 704 297 704 206 l 704 396 l 414 396 l 414 511 l 819 511 l 819 297 q 709 68 819 150 q 446 -14 599 -14 q 183 68 293 -14 q 74 297 74 150 z "},"ġ":{"ha":703,"x_min":67,"x_max":617,"o":"m 308 837 q 296 848 308 837 q 285 893 285 860 q 308 949 285 926 q 364 972 331 972 q 420 949 397 972 q 443 893 443 926 q 420 837 443 860 q 364 814 397 814 q 308 837 331 814 m 92 -162 l 160 -94 q 235 -144 182 -124 q 335 -165 288 -165 q 507 -36 507 -165 l 507 24 q 343 -14 436 -14 q 149 49 232 -15 q 67 225 67 114 l 67 497 q 147 671 67 608 q 338 733 228 733 q 617 676 476 733 l 617 -36 q 537 -209 617 -150 q 344 -268 457 -268 q 92 -162 189 -268 m 507 115 l 507 603 q 338 632 432 632 q 225 594 274 632 q 178 494 176 556 l 178 219 q 224 122 178 158 q 340 85 271 85 q 507 115 425 85 z "},"Ģ":{"ha":878,"x_min":74,"x_max":819,"o":"m 74 297 l 74 690 q 128 859 74 788 q 267 964 183 931 q 446 997 350 997 q 651 945 556 997 q 793 797 747 893 l 688 750 q 589 849 657 814 q 443 883 521 883 q 265 833 340 883 q 189 693 189 783 l 189 297 q 265 154 189 206 q 446 103 342 103 q 627 154 550 103 q 704 297 704 206 l 704 396 l 414 396 l 414 511 l 819 511 l 819 297 q 709 68 819 150 q 446 -14 599 -14 q 183 68 293 -14 q 74 297 74 150 m 524 -122 l 436 -353 l 333 -353 l 403 -122 l 524 -122 z "},"ģ":{"ha":703,"x_min":67,"x_max":617,"o":"m 279 815 l 342 983 l 456 983 l 410 815 l 279 815 m 92 -162 l 160 -94 q 235 -144 182 -124 q 335 -165 288 -165 q 507 -36 507 -165 l 507 24 q 343 -14 436 -14 q 149 49 232 -15 q 67 225 67 114 l 67 497 q 147 671 67 608 q 338 733 228 733 q 617 676 476 733 l 617 -36 q 537 -209 617 -150 q 344 -268 457 -268 q 92 -162 189 -268 m 507 115 l 507 603 q 338 632 432 632 q 225 594 274 632 q 178 494 176 556 l 178 219 q 224 122 178 158 q 340 85 271 85 q 507 115 425 85 z "},"Ħ":{"ha":975,"x_min":19,"x_max":956,"o":"m 861 733 l 861 0 l 744 0 l 744 433 l 231 433 l 231 0 l 114 0 l 114 733 l 19 733 l 19 824 l 114 824 l 114 983 l 231 983 l 231 824 l 744 824 l 744 983 l 861 983 l 861 824 l 956 824 l 956 733 l 861 733 m 231 733 l 231 549 l 744 549 l 744 733 l 231 733 z "},"ħ":{"ha":725,"x_min":13,"x_max":642,"o":"m 365 733 q 559 671 476 736 q 642 494 642 606 l 642 0 l 532 0 l 532 496 q 483 588 532 556 q 367 622 435 621 q 200 592 276 622 l 200 0 l 89 0 l 89 813 l 13 813 l 13 882 l 89 882 l 89 969 l 200 969 l 200 882 l 349 882 l 349 813 l 200 813 l 200 692 q 365 733 272 733 z "},"Ī":{"ha":321,"x_min":-18,"x_max":339,"o":"m -18 1081 l -18 1181 l 339 1181 l 339 1081 l -18 1081 m 218 983 l 218 0 l 103 0 l 103 983 l 218 983 z "},"ī":{"ha":294,"x_min":-6,"x_max":297,"o":"m -6 813 l -6 913 l 297 913 l 297 813 l -6 813 m 206 719 l 206 0 l 89 0 l 89 719 l 206 719 z "},"Į":{"ha":321,"x_min":14,"x_max":278,"o":"m 246 -215 l 278 -293 q 163 -335 221 -332 q 67 -310 104 -339 q 25 -233 29 -282 q 124 0 14 -107 l 103 0 l 103 983 l 218 983 l 218 0 l 217 0 q 139 -112 158 -60 q 129 -196 119 -165 q 181 -238 142 -236 q 246 -215 219 -240 z "},"į":{"ha":294,"x_min":4,"x_max":268,"o":"m 207 850 q 194 838 207 850 q 146 825 182 825 q 85 850 110 825 q 60 911 60 875 q 85 972 60 947 q 146 997 110 997 q 207 972 182 997 q 232 911 232 947 q 207 850 232 875 m 236 -215 l 268 -293 q 153 -335 211 -332 q 57 -310 94 -339 q 15 -233 19 -282 q 114 0 4 -118 l 89 0 l 89 719 l 206 719 l 206 0 q 119 -196 94 -114 q 171 -238 132 -236 q 236 -215 210 -240 z "},"İ":{"ha":321,"x_min":81,"x_max":239,"o":"m 103 1085 q 92 1097 103 1085 q 81 1142 81 1108 q 103 1198 81 1175 q 160 1221 126 1221 q 216 1198 193 1221 q 239 1142 239 1175 q 216 1085 239 1108 q 160 1063 193 1063 q 103 1085 126 1063 m 218 983 l 218 0 l 103 0 l 103 983 l 218 983 z "},"ı":{"ha":294,"x_min":89,"x_max":206,"o":"m 206 719 l 206 0 l 89 0 l 89 719 l 206 719 z "},"Ĳ":{"ha":1147,"x_min":103,"x_max":1051,"o":"m 218 983 l 218 0 l 103 0 l 103 983 l 218 983 m 619 983 l 1051 983 l 1051 292 q 945 67 1051 149 q 694 -14 839 -14 q 467 56 568 -14 q 340 254 365 126 l 456 278 q 540 149 471 196 q 694 103 608 103 q 863 153 792 103 q 935 296 935 204 l 935 867 l 619 867 l 619 983 z "},"ĳ":{"ha":578,"x_min":64,"x_max":510,"o":"m 64 919 q 87 975 64 953 q 142 997 110 997 q 197 975 175 997 q 219 919 219 953 q 197 865 219 888 q 142 842 175 842 q 87 865 110 842 q 64 919 64 888 m 89 719 l 200 719 l 200 0 l 89 0 l 89 719 m 354 919 q 377 975 354 953 q 432 997 400 997 q 488 975 465 997 q 510 919 510 953 q 488 865 510 888 q 432 842 465 842 q 377 865 400 842 q 354 919 354 888 m 244 -136 l 244 -247 q 425 -185 361 -247 q 489 -12 489 -124 l 489 719 l 378 719 l 378 -12 q 244 -136 378 -136 z "},"Ķ":{"ha":875,"x_min":103,"x_max":876,"o":"m 219 489 l 722 983 l 876 983 l 403 510 q 619 274 449 460 q 871 0 789 88 l 719 0 l 319 426 l 219 326 l 219 0 l 103 0 l 103 983 l 219 983 l 219 489 m 518 -122 l 431 -353 l 328 -353 l 397 -122 l 518 -122 z "},"ķ":{"ha":690,"x_min":89,"x_max":678,"o":"m 200 386 l 533 719 l 678 719 l 353 392 l 671 0 l 531 0 l 275 313 l 200 238 l 200 0 l 89 0 l 89 969 l 200 969 l 200 386 m 414 -122 l 326 -353 l 224 -353 l 293 -122 l 414 -122 z "},"Ĺ":{"ha":711,"x_min":89,"x_max":692,"o":"m 207 1235 l 353 1235 l 211 1050 l 89 1050 l 207 1235 m 103 0 l 103 983 l 219 983 l 219 117 l 692 117 l 692 0 l 103 0 z "},"ĺ":{"ha":338,"x_min":83,"x_max":347,"o":"m 201 1235 l 347 1235 l 206 1050 l 83 1050 l 201 1235 m 328 97 l 328 -14 q 147 48 211 -14 q 83 221 83 110 l 83 971 l 194 971 l 194 221 q 328 97 194 97 z "},"Ļ":{"ha":711,"x_min":103,"x_max":692,"o":"m 103 0 l 103 983 l 219 983 l 219 117 l 692 117 l 692 0 l 103 0 m 475 -122 l 388 -353 l 285 -353 l 354 -122 l 475 -122 z "},"ļ":{"ha":338,"x_min":83,"x_max":328,"o":"m 328 97 l 328 -14 q 147 48 211 -14 q 83 221 83 110 l 83 971 l 194 971 l 194 221 q 328 97 194 97 m 283 -122 l 196 -353 l 93 -353 l 163 -122 l 283 -122 z "},"Ľ":{"ha":714,"x_min":103,"x_max":692,"o":"m 103 0 l 103 983 l 219 983 l 219 117 l 692 117 l 692 0 l 103 0 m 635 983 l 547 753 l 433 753 l 503 983 l 635 983 z "},"ľ":{"ha":351,"x_min":83,"x_max":436,"o":"m 328 97 l 328 -14 q 147 48 211 -14 q 83 221 83 110 l 83 971 l 194 971 l 194 221 q 328 97 194 97 m 436 963 l 349 732 l 254 732 l 324 963 l 436 963 z "},"Ŀ":{"ha":719,"x_min":103,"x_max":692,"o":"m 103 0 l 103 983 l 219 983 l 219 117 l 692 117 l 692 0 l 103 0 m 419 451 q 408 463 419 451 q 396 510 396 475 q 419 568 396 544 q 478 592 443 592 q 535 568 513 592 q 558 510 558 544 q 535 451 558 475 q 478 428 513 428 q 419 451 443 428 z "},"ŀ":{"ha":400,"x_min":83,"x_max":424,"o":"m 328 97 l 328 -14 q 147 48 211 -14 q 83 221 83 110 l 83 971 l 194 971 l 194 221 q 328 97 194 97 m 285 451 q 273 463 285 451 q 261 510 261 475 q 285 568 261 544 q 343 592 308 592 q 401 568 378 592 q 424 510 424 544 q 401 451 424 475 q 343 428 378 428 q 285 451 308 428 z "},"Ł":{"ha":728,"x_min":-3,"x_max":688,"o":"m 688 118 l 688 0 l 121 0 l 121 361 l 32 324 l -3 411 l 121 464 l 121 983 l 239 983 l 239 514 l 403 583 l 436 496 l 239 411 l 239 118 l 688 118 z "},"ł":{"ha":371,"x_min":4,"x_max":354,"o":"m 219 476 l 219 233 q 354 110 219 110 l 354 -1 q 174 60 238 -1 q 110 233 110 122 l 110 431 l 39 400 l 4 488 l 110 532 l 110 979 l 219 979 l 219 578 l 319 621 l 353 533 l 219 476 z "},"Ń":{"ha":953,"x_min":103,"x_max":850,"o":"m 513 1235 l 658 1235 l 517 1050 l 394 1050 l 513 1235 m 733 171 l 733 983 l 850 983 l 850 0 l 703 0 l 219 779 l 219 0 l 103 0 l 103 983 l 228 983 l 733 171 z "},"ń":{"ha":721,"x_min":86,"x_max":638,"o":"m 394 985 l 540 985 l 399 800 l 276 800 l 394 985 m 86 0 l 86 674 q 367 733 257 733 q 558 670 479 731 q 638 497 638 610 l 638 0 l 528 0 l 528 501 q 479 597 528 563 q 367 631 431 631 q 197 599 282 631 l 197 0 l 86 0 z "},"Ņ":{"ha":953,"x_min":103,"x_max":850,"o":"m 733 171 l 733 983 l 850 983 l 850 0 l 703 0 l 219 779 l 219 0 l 103 0 l 103 983 l 228 983 l 733 171 m 554 -122 l 467 -353 l 364 -353 l 433 -122 l 554 -122 z "},"ņ":{"ha":721,"x_min":86,"x_max":638,"o":"m 86 0 l 86 674 q 367 733 257 733 q 558 670 479 731 q 638 497 638 610 l 638 0 l 528 0 l 528 501 q 479 597 528 563 q 367 631 431 631 q 197 599 282 631 l 197 0 l 86 0 m 440 -122 l 353 -353 l 250 -353 l 319 -122 l 440 -122 z "},"Ň":{"ha":953,"x_min":103,"x_max":850,"o":"m 421 1050 l 243 1235 l 381 1235 l 476 1143 l 567 1235 l 707 1235 l 529 1050 l 421 1050 m 733 171 l 733 983 l 850 983 l 850 0 l 703 0 l 219 779 l 219 0 l 103 0 l 103 983 l 228 983 l 733 171 z "},"ň":{"ha":721,"x_min":86,"x_max":638,"o":"m 303 800 l 125 985 l 263 985 l 358 893 l 449 985 l 589 985 l 411 800 l 303 800 m 86 0 l 86 674 q 367 733 257 733 q 558 670 479 731 q 638 497 638 610 l 638 0 l 528 0 l 528 501 q 479 597 528 563 q 367 631 431 631 q 197 599 282 631 l 197 0 l 86 0 z "},"Ŋ":{"ha":951,"x_min":101,"x_max":849,"o":"m 849 983 l 849 -12 q 785 -185 849 -124 q 604 -247 721 -247 l 604 -136 q 738 -12 738 -136 l 738 0 l 218 779 l 218 0 l 101 0 l 101 983 l 226 983 l 629 367 q 747 163 714 231 q 732 388 735 261 l 732 983 l 849 983 z "},"ŋ":{"ha":718,"x_min":83,"x_max":635,"o":"m 364 733 q 556 670 476 731 q 635 497 635 610 l 635 -12 q 572 -185 635 -124 q 392 -247 508 -247 l 392 -136 q 525 -12 525 -136 l 525 497 q 476 592 525 558 q 364 626 428 626 q 194 594 279 626 l 194 0 l 83 0 l 83 674 q 364 733 254 733 z "},"Ō":{"ha":935,"x_min":74,"x_max":860,"o":"m 288 1082 l 288 1182 l 644 1182 l 644 1082 l 288 1082 m 74 296 l 74 689 q 190 916 74 835 q 467 997 307 997 q 656 964 568 997 q 801 859 743 931 q 860 689 860 788 l 860 296 q 801 125 860 197 q 656 19 743 53 q 467 -14 568 -14 q 190 68 307 -14 q 74 296 74 150 m 189 689 l 189 297 q 271 154 189 206 q 467 103 353 103 q 662 154 579 103 q 744 297 744 206 l 744 689 q 663 834 744 785 q 465 883 581 883 q 270 833 351 882 q 189 689 189 783 z "},"ō":{"ha":688,"x_min":65,"x_max":621,"o":"m 164 836 l 164 932 l 514 932 l 514 836 l 164 836 m 65 226 l 65 493 q 148 669 65 606 q 344 733 231 732 q 539 669 457 732 q 621 493 621 606 l 621 226 q 539 50 621 113 q 344 -14 457 -12 q 148 50 231 -12 q 65 226 65 113 m 344 628 q 227 594 278 628 q 176 496 176 560 l 176 225 q 227 126 176 161 q 344 92 278 92 q 460 126 410 92 q 510 225 510 161 l 510 496 q 460 593 510 558 q 344 628 410 628 z "},"Ő":{"ha":935,"x_min":74,"x_max":860,"o":"m 511 1224 l 394 1050 l 290 1050 l 375 1224 l 511 1224 m 732 1224 l 603 1050 l 499 1050 l 592 1224 l 732 1224 m 74 296 l 74 689 q 190 916 74 835 q 467 997 307 997 q 656 964 568 997 q 801 859 743 931 q 860 689 860 788 l 860 296 q 801 125 860 197 q 656 19 743 53 q 467 -14 568 -14 q 190 68 307 -14 q 74 296 74 150 m 189 689 l 189 297 q 271 154 189 206 q 467 103 353 103 q 662 154 579 103 q 744 297 744 206 l 744 689 q 663 834 744 785 q 465 883 581 883 q 270 833 351 882 q 189 689 189 783 z "},"ő":{"ha":688,"x_min":65,"x_max":622,"o":"m 401 974 l 285 800 l 181 800 l 265 974 l 401 974 m 622 974 l 493 800 l 389 800 l 482 974 l 622 974 m 65 226 l 65 493 q 148 669 65 606 q 344 733 231 732 q 539 669 457 732 q 621 493 621 606 l 621 226 q 539 50 621 113 q 344 -14 457 -12 q 148 50 231 -12 q 65 226 65 113 m 344 628 q 227 594 278 628 q 176 496 176 560 l 176 225 q 227 126 176 161 q 344 92 278 92 q 460 126 410 92 q 510 225 510 161 l 510 496 q 460 593 510 558 q 344 628 410 628 z "},"Œ":{"ha":1251,"x_min":75,"x_max":1192,"o":"m 733 867 l 733 547 l 1150 547 l 1150 432 l 733 432 l 733 117 l 1192 117 l 1192 0 l 618 0 l 618 49 q 444 -14 576 -17 q 182 70 289 -11 q 75 296 75 151 l 75 688 q 184 915 75 833 q 450 997 293 996 q 548 981 497 997 q 618 940 599 965 l 618 983 l 1192 983 l 1192 867 l 733 867 m 451 103 q 618 136 544 103 l 618 851 q 451 881 547 883 q 265 832 340 881 q 190 688 190 783 l 190 296 q 265 153 190 203 q 451 103 340 103 z "},"œ":{"ha":1117,"x_min":67,"x_max":1060,"o":"m 67 229 l 67 493 q 148 669 67 606 q 342 732 229 732 q 473 701 413 732 q 561 608 533 669 q 783 733 621 731 q 977 669 894 732 q 1060 494 1060 607 l 1060 311 l 617 311 l 617 229 q 667 133 617 167 q 783 100 717 100 q 881 125 836 100 q 947 197 926 150 l 1047 149 q 939 31 1011 72 q 783 -11 867 -10 q 561 90 629 -11 q 342 -10 497 -7 q 148 53 229 -8 q 67 229 67 115 m 949 406 l 949 496 q 899 590 949 557 q 783 624 850 624 q 667 590 717 624 q 617 493 617 557 l 617 406 l 949 406 m 342 621 q 226 588 275 621 q 176 493 176 556 l 176 229 q 226 134 176 167 q 342 101 275 101 q 456 135 407 101 q 506 229 506 168 l 506 494 q 456 588 506 556 q 342 621 407 621 z "},"Ŕ":{"ha":860,"x_min":103,"x_max":832,"o":"m 454 1235 l 600 1235 l 458 1050 l 336 1050 l 454 1235 m 689 0 l 371 401 l 219 401 l 219 0 l 103 0 l 103 983 l 478 983 q 719 911 628 983 q 814 689 811 839 q 732 480 814 550 q 515 403 650 410 l 832 0 l 689 0 m 219 510 l 479 510 q 641 551 585 510 q 697 689 697 593 q 479 867 697 867 l 219 867 l 219 510 z "},"ŕ":{"ha":435,"x_min":83,"x_max":433,"o":"m 288 985 l 433 985 l 292 800 l 169 800 l 288 985 m 415 728 l 415 617 q 357 622 397 622 q 241 588 288 622 q 194 493 194 553 l 194 0 l 83 0 l 83 493 q 165 669 83 607 q 353 733 247 732 q 415 728 389 733 z "},"Ŗ":{"ha":860,"x_min":103,"x_max":832,"o":"m 689 0 l 371 401 l 219 401 l 219 0 l 103 0 l 103 983 l 478 983 q 719 911 628 983 q 814 689 811 839 q 732 480 814 550 q 515 403 650 410 l 832 0 l 689 0 m 219 510 l 479 510 q 641 551 585 510 q 697 689 697 593 q 479 867 697 867 l 219 867 l 219 510 m 546 -122 l 458 -353 l 356 -353 l 425 -122 l 546 -122 z "},"ŗ":{"ha":435,"x_min":22,"x_max":415,"o":"m 415 728 l 415 617 q 357 622 397 622 q 241 588 288 622 q 194 493 194 553 l 194 0 l 83 0 l 83 493 q 165 669 83 607 q 353 733 247 732 q 415 728 389 733 m 204 -126 l 121 -349 l 22 -349 l 89 -126 l 204 -126 z "},"Ř":{"ha":860,"x_min":103,"x_max":832,"o":"m 363 1050 l 185 1235 l 322 1235 l 418 1143 l 508 1235 l 649 1235 l 471 1050 l 363 1050 m 689 0 l 371 401 l 219 401 l 219 0 l 103 0 l 103 983 l 478 983 q 719 911 628 983 q 814 689 811 839 q 732 480 814 550 q 515 403 650 410 l 832 0 l 689 0 m 219 510 l 479 510 q 641 551 585 510 q 697 689 697 593 q 479 867 697 867 l 219 867 l 219 510 z "},"ř":{"ha":433,"x_min":17,"x_max":481,"o":"m 194 800 l 17 985 l 154 985 l 250 893 l 340 985 l 481 985 l 303 800 l 194 800 m 414 728 l 414 617 q 356 622 396 622 q 240 588 286 622 q 193 493 193 553 l 193 0 l 82 0 l 82 493 q 164 669 82 607 q 351 733 246 732 q 414 728 388 733 z "},"Ś":{"ha":824,"x_min":43,"x_max":769,"o":"m 446 1235 l 592 1235 l 450 1050 l 328 1050 l 446 1235 m 179 729 q 190 669 176 694 q 221 628 204 643 q 279 600 238 614 q 342 582 321 586 q 419 567 364 578 q 494 551 469 557 q 564 533 519 546 q 632 506 608 519 q 687 469 656 493 q 733 417 718 446 q 758 347 749 389 q 765 256 768 306 q 654 57 758 128 q 408 -14 550 -14 q 189 41 290 -14 q 43 197 88 96 l 150 246 q 253 140 181 178 q 411 101 326 101 q 574 143 506 101 q 649 261 643 185 q 638 334 653 303 q 606 383 624 365 q 544 416 588 400 q 475 438 500 432 q 392 457 450 444 q 295 480 333 469 q 209 512 257 490 q 133 560 161 533 q 84 632 104 588 q 64 733 64 676 q 172 927 71 857 q 410 997 274 997 q 626 944 525 997 q 769 792 726 890 l 664 744 q 563 848 635 811 q 410 885 492 885 q 251 844 318 885 q 179 729 185 803 z "},"ś":{"ha":615,"x_min":39,"x_max":571,"o":"m 350 985 l 496 985 l 354 800 l 232 800 l 350 985 m 39 136 l 122 193 q 213 115 157 142 q 328 89 268 89 q 422 119 382 89 q 461 200 463 149 q 437 260 461 236 q 386 293 413 285 q 318 310 360 301 l 319 310 q 228 331 267 319 q 150 367 190 343 q 88 430 110 390 q 67 525 67 469 q 146 681 67 629 q 328 733 225 733 q 544 647 457 733 l 472 563 q 328 631 406 631 q 224 605 271 631 q 176 525 176 579 q 339 417 178 446 q 571 194 569 374 q 500 40 571 93 q 328 -14 429 -14 q 39 136 133 -14 z "},"Ş":{"ha":824,"x_min":43,"x_max":769,"o":"m 419 567 q 494 551 469 557 q 564 533 519 546 q 632 506 608 519 q 687 469 656 493 q 733 417 718 446 q 758 347 749 389 q 765 256 768 306 q 668 67 760 138 q 447 -12 576 -3 l 417 -89 q 506 -119 478 -87 q 531 -199 535 -150 q 471 -303 524 -271 q 353 -331 418 -336 q 232 -293 289 -325 l 263 -218 q 370 -244 319 -249 q 424 -203 421 -240 q 398 -162 426 -174 q 322 -164 369 -151 l 304 -147 l 358 -11 q 168 53 254 0 q 43 197 82 107 l 150 246 q 253 140 181 178 q 411 101 326 101 q 574 143 506 101 q 649 261 643 185 q 638 334 653 303 q 606 383 624 365 q 544 416 588 400 q 475 438 500 432 q 392 457 450 444 q 295 480 333 469 q 209 512 257 490 q 133 560 161 533 q 84 632 104 588 q 64 733 64 676 q 172 927 71 857 q 410 997 274 997 q 626 944 525 997 q 769 792 726 890 l 664 744 q 563 848 635 811 q 410 885 492 885 q 251 844 318 885 q 179 729 185 803 q 190 669 176 694 q 221 628 204 643 q 279 600 238 614 q 342 582 321 586 q 419 567 364 578 z "},"ş":{"ha":615,"x_min":39,"x_max":571,"o":"m 571 194 q 513 51 571 104 q 367 -11 454 -1 l 336 -89 q 426 -119 397 -87 q 450 -199 454 -150 q 390 -303 443 -271 q 273 -331 338 -336 q 151 -293 208 -325 l 182 -218 q 290 -244 239 -249 q 343 -203 340 -240 q 317 -162 346 -174 q 242 -164 289 -151 l 224 -147 l 278 -11 q 39 136 122 6 l 122 193 q 213 115 157 142 q 328 89 268 89 q 422 119 382 89 q 461 200 463 149 q 437 260 461 236 q 386 293 413 285 q 318 310 360 301 l 319 310 q 228 331 267 319 q 150 367 190 343 q 88 430 110 390 q 67 525 67 469 q 146 681 67 629 q 328 733 225 733 q 544 647 457 733 l 472 563 q 328 631 406 631 q 224 605 271 631 q 176 525 176 579 q 339 417 178 446 q 571 194 569 374 z "},"Š":{"ha":824,"x_min":43,"x_max":769,"o":"m 354 1050 l 176 1235 l 314 1235 l 410 1143 l 500 1235 l 640 1235 l 463 1050 l 354 1050 m 179 729 q 190 669 176 694 q 221 628 204 643 q 279 600 238 614 q 342 582 321 586 q 419 567 364 578 q 494 551 469 557 q 564 533 519 546 q 632 506 608 519 q 687 469 656 493 q 733 417 718 446 q 758 347 749 389 q 765 256 768 306 q 654 57 758 128 q 408 -14 550 -14 q 189 41 290 -14 q 43 197 88 96 l 150 246 q 253 140 181 178 q 411 101 326 101 q 574 143 506 101 q 649 261 643 185 q 638 334 653 303 q 606 383 624 365 q 544 416 588 400 q 475 438 500 432 q 392 457 450 444 q 295 480 333 469 q 209 512 257 490 q 133 560 161 533 q 84 632 104 588 q 64 733 64 676 q 172 927 71 857 q 410 997 274 997 q 626 944 525 997 q 769 792 726 890 l 664 744 q 563 848 635 811 q 410 885 492 885 q 251 844 318 885 q 179 729 185 803 z "},"š":{"ha":615,"x_min":39,"x_max":571,"o":"m 258 800 l 81 985 l 218 985 l 314 893 l 404 985 l 544 985 l 367 800 l 258 800 m 39 136 l 122 193 q 213 115 157 142 q 328 89 268 89 q 422 119 382 89 q 461 200 463 149 q 437 260 461 236 q 386 293 413 285 q 318 310 360 301 l 319 310 q 228 331 267 319 q 150 367 190 343 q 88 430 110 390 q 67 525 67 469 q 146 681 67 629 q 328 733 225 733 q 544 647 457 733 l 472 563 q 328 631 406 631 q 224 605 271 631 q 176 525 176 579 q 339 417 178 446 q 571 194 569 374 q 500 40 571 93 q 328 -14 429 -14 q 39 136 133 -14 z "},"Ţ":{"ha":786,"x_min":19,"x_max":767,"o":"m 767 867 l 451 867 l 451 0 l 335 0 l 335 867 l 19 867 l 19 983 l 767 983 l 767 867 m 471 -122 l 383 -353 l 281 -353 l 350 -122 l 471 -122 z "},"ţ":{"ha":394,"x_min":83,"x_max":378,"o":"m 378 85 l 378 -11 q 335 -14 347 -14 q 153 50 224 -14 q 83 222 83 114 l 83 901 l 193 901 l 193 719 l 340 719 l 340 608 l 193 608 l 193 222 q 244 113 193 156 q 378 85 296 69 m 306 -122 l 218 -353 l 115 -353 l 185 -122 l 306 -122 z "},"Ť":{"ha":786,"x_min":19,"x_max":767,"o":"m 338 1050 l 160 1235 l 297 1235 l 393 1143 l 483 1235 l 624 1235 l 446 1050 l 338 1050 m 767 867 l 451 867 l 451 0 l 335 0 l 335 867 l 19 867 l 19 983 l 767 983 l 767 867 z "},"ť":{"ha":394,"x_min":83,"x_max":431,"o":"m 378 85 l 378 -11 q 335 -14 347 -14 q 153 50 224 -14 q 83 222 83 114 l 83 901 l 193 901 l 193 719 l 340 719 l 340 608 l 193 608 l 193 222 q 244 113 193 156 q 378 85 296 69 m 431 983 l 375 801 l 282 801 l 322 983 l 431 983 z "},"Ŧ":{"ha":792,"x_min":22,"x_max":769,"o":"m 454 867 l 454 565 l 588 565 l 588 465 l 454 465 l 454 0 l 338 0 l 338 465 l 203 465 l 203 565 l 338 565 l 338 867 l 22 867 l 22 983 l 769 983 l 769 867 l 454 867 z "},"ŧ":{"ha":403,"x_min":21,"x_max":386,"o":"m 201 364 l 201 222 q 253 113 201 156 q 386 85 304 69 l 386 -11 q 343 -14 356 -14 q 162 50 232 -14 q 92 222 92 114 l 92 364 l 21 364 l 21 456 l 92 456 l 92 901 l 201 901 l 201 719 l 349 719 l 349 608 l 201 608 l 201 456 l 314 456 l 314 364 l 201 364 z "},"Ū":{"ha":939,"x_min":96,"x_max":843,"o":"m 290 1082 l 290 1182 l 647 1182 l 647 1082 l 290 1082 m 213 983 l 213 300 q 288 154 213 206 q 469 103 364 103 q 650 154 574 103 q 726 300 726 206 l 726 983 l 843 983 l 843 300 q 732 69 843 153 q 469 -14 621 -14 q 207 69 318 -14 q 96 300 96 153 l 96 983 l 213 983 z "},"ū":{"ha":722,"x_min":83,"x_max":636,"o":"m 181 818 l 181 918 l 538 918 l 538 818 l 181 818 m 636 719 l 636 39 q 356 -14 486 -14 q 164 50 244 -12 q 83 225 83 113 l 83 719 l 194 719 l 194 224 q 242 128 194 164 q 356 92 290 93 q 525 115 456 92 l 525 719 l 636 719 z "},"Ů":{"ha":939,"x_min":96,"x_max":843,"o":"m 365 1033 q 343 1055 365 1033 q 321 1138 321 1076 q 365 1242 321 1199 q 469 1286 408 1286 q 572 1241 529 1286 q 614 1136 614 1196 q 572 1033 614 1078 q 469 989 529 989 q 365 1033 408 989 m 514 1089 q 523 1099 514 1089 q 532 1138 532 1108 q 514 1186 532 1167 q 468 1206 496 1206 q 422 1185 440 1206 q 404 1136 404 1164 q 423 1089 404 1108 q 468 1069 442 1069 q 514 1089 496 1069 m 213 983 l 213 300 q 288 154 213 206 q 469 103 364 103 q 650 154 574 103 q 726 300 726 206 l 726 983 l 843 983 l 843 300 q 732 69 843 153 q 469 -14 621 -14 q 207 69 318 -14 q 96 300 96 153 l 96 983 l 213 983 z "},"ů":{"ha":721,"x_min":83,"x_max":636,"o":"m 255 769 q 233 791 255 769 q 211 874 211 813 q 255 978 211 935 q 360 1022 299 1022 q 462 977 419 1022 q 504 872 504 932 q 462 769 504 814 q 360 725 419 725 q 255 769 299 725 m 404 825 q 413 835 404 825 q 422 874 422 844 q 404 922 422 903 q 358 942 386 942 q 313 921 331 942 q 294 872 294 900 q 313 825 294 844 q 358 806 332 806 q 404 825 386 806 m 636 719 l 636 39 q 356 -14 486 -14 q 164 50 244 -12 q 83 225 83 113 l 83 719 l 194 719 l 194 224 q 242 128 194 164 q 356 92 290 93 q 525 115 456 92 l 525 719 l 636 719 z "},"Ű":{"ha":939,"x_min":96,"x_max":843,"o":"m 526 1224 l 410 1050 l 306 1050 l 390 1224 l 526 1224 m 747 1224 l 618 1050 l 514 1050 l 607 1224 l 747 1224 m 213 983 l 213 300 q 288 154 213 206 q 469 103 364 103 q 650 154 574 103 q 726 300 726 206 l 726 983 l 843 983 l 843 300 q 732 69 843 153 q 469 -14 621 -14 q 207 69 318 -14 q 96 300 96 153 l 96 983 l 213 983 z "},"ű":{"ha":722,"x_min":83,"x_max":644,"o":"m 424 982 l 304 804 l 200 804 l 288 982 l 424 982 m 644 982 l 513 804 l 408 804 l 504 982 l 644 982 m 636 719 l 636 39 q 356 -14 486 -14 q 164 50 244 -12 q 83 225 83 113 l 83 719 l 194 719 l 194 224 q 242 128 194 164 q 356 92 290 93 q 525 115 456 92 l 525 719 l 636 719 z "},"Ų":{"ha":939,"x_min":96,"x_max":843,"o":"m 843 983 l 843 300 q 707 47 843 153 q 592 -65 631 -11 q 547 -147 553 -119 q 549 -196 542 -175 q 600 -238 561 -236 q 665 -215 639 -240 l 697 -293 q 582 -335 640 -332 q 486 -310 524 -339 q 444 -233 449 -282 q 563 -4 433 -107 q 469 -14 518 -14 q 207 69 318 -14 q 96 300 96 153 l 96 983 l 213 983 l 213 300 q 288 154 213 206 q 469 103 364 103 q 650 154 574 103 q 726 300 726 206 l 726 983 l 843 983 z "},"ų":{"ha":724,"x_min":83,"x_max":674,"o":"m 642 -215 l 674 -293 q 558 -335 617 -332 q 462 -310 500 -339 q 419 -233 424 -282 q 513 3 411 -125 q 356 -14 431 -14 q 164 50 244 -12 q 83 225 83 113 l 83 719 l 194 719 l 194 224 q 242 128 194 164 q 356 92 290 93 q 525 115 456 92 l 525 719 l 636 719 l 636 39 q 542 -103 568 -40 q 525 -196 517 -167 q 576 -238 538 -236 q 642 -215 615 -240 z "},"Ŵ":{"ha":1296,"x_min":14,"x_max":1282,"o":"m 710 1235 l 872 1050 l 740 1050 l 656 1146 l 567 1050 l 431 1050 l 607 1235 l 710 1235 m 1163 983 l 1282 983 l 997 0 l 856 0 l 649 654 l 440 0 l 299 0 l 14 983 l 135 983 l 371 139 l 597 860 l 700 860 l 925 140 l 1163 983 z "},"ŵ":{"ha":990,"x_min":18,"x_max":971,"o":"m 556 971 l 718 786 l 586 786 l 501 882 l 413 786 l 276 786 l 453 971 l 556 971 m 444 708 l 544 708 l 692 110 l 696 110 l 744 317 l 863 719 l 971 719 l 756 0 l 622 0 l 546 322 l 496 563 l 446 321 l 368 0 l 235 0 l 18 719 l 131 719 l 249 317 l 297 110 l 301 110 l 444 708 z "},"Ŷ":{"ha":804,"x_min":1,"x_max":803,"o":"m 464 1235 l 626 1050 l 494 1050 l 410 1146 l 321 1050 l 185 1050 l 361 1235 l 464 1235 m 460 0 l 343 0 l 343 383 l 1 983 l 136 983 l 403 507 l 667 983 l 803 983 l 460 383 l 460 0 z "},"ŷ":{"ha":740,"x_min":83,"x_max":651,"o":"m 429 971 l 592 786 l 460 786 l 375 882 l 286 786 l 150 786 l 326 971 l 429 971 m 110 -157 l 186 -87 q 263 -141 214 -122 q 363 -160 311 -160 q 489 -127 438 -160 q 540 -25 540 -94 l 540 31 q 368 -14 479 -11 q 169 52 254 -15 q 83 233 83 119 l 83 719 l 197 719 l 197 231 q 248 131 197 168 q 365 93 299 94 q 540 128 451 93 l 540 719 l 651 719 l 651 -25 q 569 -206 651 -143 q 371 -268 488 -268 q 228 -239 299 -268 q 110 -157 157 -210 z "},"Ÿ":{"ha":804,"x_min":1,"x_max":803,"o":"m 226 1090 q 216 1101 226 1090 q 206 1142 206 1111 q 226 1194 206 1172 q 278 1215 247 1215 q 329 1194 308 1215 q 350 1142 350 1172 q 329 1090 350 1111 q 278 1069 308 1069 q 226 1090 247 1069 m 457 1142 q 478 1194 457 1174 q 529 1215 499 1215 q 581 1194 560 1215 q 601 1142 601 1172 q 581 1090 601 1111 q 529 1069 560 1069 q 478 1090 499 1069 q 457 1142 457 1111 m 460 0 l 343 0 l 343 383 l 1 983 l 136 983 l 403 507 l 667 983 l 803 983 l 460 383 l 460 0 z "},"Ź":{"ha":810,"x_min":31,"x_max":775,"o":"m 444 1235 l 590 1235 l 449 1050 l 326 1050 l 444 1235 m 57 983 l 738 983 l 775 903 l 200 117 l 758 117 l 758 0 l 64 0 l 31 82 l 606 867 l 57 867 l 57 983 z "},"ź":{"ha":650,"x_min":31,"x_max":608,"o":"m 368 971 l 514 971 l 372 786 l 250 786 l 368 971 m 61 719 l 564 719 l 608 647 l 181 101 l 601 101 l 601 0 l 75 0 l 31 71 l 451 617 l 61 617 l 61 719 z "},"Ż":{"ha":810,"x_min":31,"x_max":775,"o":"m 351 1087 q 339 1098 351 1087 q 328 1143 328 1110 q 351 1199 328 1176 q 407 1222 374 1222 q 463 1199 440 1222 q 486 1143 486 1176 q 463 1087 486 1110 q 407 1064 440 1064 q 351 1087 374 1064 m 57 983 l 738 983 l 775 903 l 200 117 l 758 117 l 758 0 l 64 0 l 31 82 l 606 867 l 57 867 l 57 983 z "},"ż":{"ha":650,"x_min":31,"x_max":608,"o":"m 274 823 q 263 834 274 823 q 251 879 251 846 q 274 935 251 913 q 331 958 297 958 q 387 935 364 958 q 410 879 410 913 q 387 823 410 846 q 331 800 364 800 q 274 823 297 800 m 61 719 l 564 719 l 608 647 l 181 101 l 601 101 l 601 0 l 75 0 l 31 71 l 451 617 l 61 617 l 61 719 z "},"Ž":{"ha":810,"x_min":31,"x_max":775,"o":"m 353 1050 l 175 1235 l 313 1235 l 408 1143 l 499 1235 l 639 1235 l 461 1050 l 353 1050 m 57 983 l 738 983 l 775 903 l 200 117 l 758 117 l 758 0 l 64 0 l 31 82 l 606 867 l 57 867 l 57 983 z "},"ž":{"ha":650,"x_min":31,"x_max":608,"o":"m 276 786 l 99 971 l 236 971 l 332 879 l 422 971 l 563 971 l 385 786 l 276 786 m 61 719 l 564 719 l 608 647 l 181 101 l 601 101 l 601 0 l 75 0 l 31 71 l 451 617 l 61 617 l 61 719 z "},"ƒ":{"ha":676,"x_min":-51,"x_max":664,"o":"m 376 482 l 285 -12 q 78 -190 251 -190 q -51 -143 6 -190 l 10 -50 q 83 -82 47 -82 q 145 -50 124 -82 q 179 49 167 -18 l 179 50 l 260 482 l 121 482 l 121 589 l 278 589 q 314 776 308 744 q 379 926 331 865 q 521 986 428 986 q 664 932 589 986 l 601 842 q 521 878 550 878 q 429 774 450 878 l 429 775 q 412 682 424 742 q 394 589 400 622 l 533 589 l 533 482 l 376 482 z "},"Ș":{"ha":824,"x_min":43,"x_max":769,"o":"m 179 729 q 190 669 176 694 q 221 628 204 643 q 279 600 238 614 q 342 582 321 586 q 419 567 364 578 q 494 551 469 557 q 564 533 519 546 q 632 506 608 519 q 687 469 656 493 q 733 417 718 446 q 758 347 749 389 q 765 256 768 306 q 654 57 758 128 q 408 -14 550 -14 q 189 41 290 -14 q 43 197 88 96 l 150 246 q 253 140 181 178 q 411 101 326 101 q 574 143 506 101 q 649 261 643 185 q 638 334 653 303 q 606 383 624 365 q 544 416 588 400 q 475 438 500 432 q 392 457 450 444 q 295 480 333 469 q 209 512 257 490 q 133 560 161 533 q 84 632 104 588 q 64 733 64 676 q 172 927 71 857 q 410 997 274 997 q 626 944 525 997 q 769 792 726 890 l 664 744 q 563 848 635 811 q 410 885 492 885 q 251 844 318 885 q 179 729 185 803 m 486 -122 l 399 -353 l 296 -353 l 365 -122 l 486 -122 z "},"ș":{"ha":615,"x_min":39,"x_max":571,"o":"m 39 136 l 122 193 q 213 115 157 142 q 328 89 268 89 q 422 119 382 89 q 461 200 463 149 q 437 260 461 236 q 386 293 413 285 q 318 310 360 301 l 319 310 q 228 331 267 319 q 150 367 190 343 q 88 430 110 390 q 67 525 67 469 q 146 681 67 629 q 328 733 225 733 q 544 647 457 733 l 472 563 q 328 631 406 631 q 224 605 271 631 q 176 525 176 579 q 339 417 178 446 q 571 194 569 374 q 500 40 571 93 q 328 -14 429 -14 q 39 136 133 -14 m 406 -122 l 318 -353 l 215 -353 l 285 -122 l 406 -122 z "},"Ț":{"ha":786,"x_min":19,"x_max":767,"o":"m 767 867 l 451 867 l 451 0 l 335 0 l 335 867 l 19 867 l 19 983 l 767 983 l 767 867 m 471 -122 l 383 -353 l 281 -353 l 350 -122 l 471 -122 z "},"ț":{"ha":394,"x_min":83,"x_max":378,"o":"m 378 85 l 378 -11 q 335 -14 347 -14 q 153 50 224 -14 q 83 222 83 114 l 83 901 l 193 901 l 193 719 l 340 719 l 340 608 l 193 608 l 193 222 q 244 113 193 156 q 378 85 296 69 m 306 -122 l 218 -353 l 115 -353 l 185 -122 l 306 -122 z "},"ˆ":{"ha":364,"x_min":-47,"x_max":394,"o":"m 232 1235 l 394 1050 l 263 1050 l 178 1146 l 89 1050 l -47 1050 l 129 1235 l 232 1235 z "},"ˇ":{"ha":357,"x_min":-62,"x_max":401,"o":"m 115 1050 l -62 1235 l 75 1235 l 171 1143 l 261 1235 l 401 1235 l 224 1050 l 115 1050 z "},"ˉ":{"ha":333,"x_min":-31,"x_max":354,"o":"m -31 831 l -31 938 l 354 938 l 354 831 l -31 831 z "},"˘":{"ha":333,"x_min":-35,"x_max":329,"o":"m 144 1050 q 18 1104 71 1050 q -35 1235 -35 1158 l 67 1235 q 90 1176 67 1200 q 144 1151 113 1151 q 200 1176 176 1151 q 224 1235 224 1200 l 329 1235 q 275 1104 329 1158 q 144 1050 221 1050 z "},"˙":{"ha":333,"x_min":96,"x_max":254,"o":"m 119 1087 q 107 1098 119 1087 q 96 1143 96 1110 q 119 1199 96 1176 q 175 1222 142 1222 q 231 1199 208 1222 q 254 1143 254 1176 q 231 1087 254 1110 q 175 1064 208 1064 q 119 1087 142 1064 z "},"˚":{"ha":333,"x_min":15,"x_max":308,"o":"m 59 769 q 37 791 59 769 q 15 874 15 813 q 59 978 15 935 q 164 1022 103 1022 q 266 977 224 1022 q 308 872 308 932 q 266 769 308 814 q 164 725 224 725 q 59 769 103 725 m 208 825 q 217 835 208 825 q 226 874 226 844 q 208 922 226 903 q 163 942 190 942 q 117 921 135 942 q 99 872 99 900 q 117 825 99 844 q 163 806 136 806 q 208 825 190 806 z "},"˛":{"ha":333,"x_min":4,"x_max":268,"o":"m 236 -215 l 268 -293 q 153 -335 211 -332 q 57 -310 94 -339 q 15 -233 19 -282 q 143 0 4 -108 l 235 0 q 140 -112 168 -56 q 119 -196 111 -168 q 171 -238 132 -236 q 236 -215 210 -240 z "},"˜":{"ha":376,"x_min":-21,"x_max":394,"o":"m 58 1072 l -21 1101 q 29 1196 -10 1160 q 114 1232 68 1232 q 201 1198 156 1232 q 260 1164 247 1164 q 313 1214 299 1164 l 394 1185 q 268 1060 363 1060 q 188 1094 236 1060 q 114 1129 140 1129 q 82 1113 99 1129 q 58 1072 65 1096 z "},"˝":{"ha":926,"x_min":300,"x_max":742,"o":"m 521 1224 l 404 1050 l 300 1050 l 385 1224 l 521 1224 m 742 1224 l 613 1050 l 508 1050 l 601 1224 l 742 1224 z "},"̦":{"ha":0,"x_min":108,"x_max":299,"o":"m 299 -122 l 211 -353 l 108 -353 l 178 -122 l 299 -122 z "},"Ω":{"ha":1072,"x_min":56,"x_max":1015,"o":"m 56 110 l 250 110 q 72 524 72 278 q 208 866 72 735 q 543 997 343 997 q 871 861 743 997 q 999 529 999 725 q 950 292 999 400 q 825 110 901 183 l 1015 110 l 1015 0 l 619 0 l 619 79 q 809 263 736 144 q 882 529 882 382 q 788 775 882 667 q 540 883 693 883 q 289 781 388 883 q 190 521 190 678 q 264 272 190 386 q 457 79 338 157 l 457 0 l 56 0 l 56 110 z "},"μ":{"ha":739,"x_min":89,"x_max":651,"o":"m 651 0 l 539 0 q 540 26 539 14 q 540 44 540 39 q 540 55 540 50 q 538 64 540 60 q 340 -15 472 -15 q 204 31 261 -15 l 204 -300 l 89 -300 l 89 711 l 206 711 l 206 269 q 340 92 206 92 q 478 151 424 92 q 532 322 532 211 l 532 711 l 649 711 l 651 0 z "},"π":{"ha":775,"x_min":13,"x_max":742,"o":"m 701 110 l 703 0 q 558 57 599 6 q 517 204 517 108 l 517 614 l 279 614 l 279 0 l 169 0 l 169 614 q 36 590 100 613 l 13 675 q 206 719 85 719 l 742 719 l 731 614 l 629 614 l 629 213 q 644 132 629 156 q 701 110 660 108 z "},"Ё":{"ha":793,"x_min":103,"x_max":733,"o":"m 253 1068 q 242 1078 253 1068 q 232 1119 232 1089 q 253 1172 232 1150 q 304 1193 274 1193 q 356 1172 335 1193 q 376 1119 376 1150 q 356 1068 376 1089 q 304 1047 335 1047 q 253 1068 274 1047 m 483 1119 q 504 1172 483 1151 q 556 1193 525 1193 q 607 1172 586 1193 q 628 1119 628 1150 q 607 1068 628 1089 q 556 1047 586 1047 q 504 1068 525 1047 q 483 1119 483 1089 m 219 867 l 219 550 l 693 550 l 693 433 l 219 433 l 219 117 l 733 117 l 733 0 l 103 0 l 103 983 l 733 983 l 733 867 l 219 867 z "},"А":{"ha":860,"x_min":6,"x_max":856,"o":"m 500 983 l 856 0 l 733 0 l 619 315 l 240 315 q 192 181 235 300 q 129 0 150 61 l 6 0 l 358 983 l 500 983 m 279 432 l 579 432 q 500 656 549 515 q 429 858 451 796 q 279 432 349 626 z "},"Б":{"ha":860,"x_min":103,"x_max":818,"o":"m 103 983 l 739 983 l 739 867 l 219 867 l 219 585 l 472 585 q 730 515 642 585 q 818 289 818 446 q 726 69 818 139 q 479 0 635 0 l 103 0 l 103 983 m 475 476 l 219 476 l 219 117 l 485 117 q 646 153 590 117 q 701 292 701 190 q 648 431 701 385 q 475 476 594 476 z "},"В":{"ha":869,"x_min":103,"x_max":815,"o":"m 769 725 q 688 526 769 594 q 815 282 815 461 q 479 0 810 0 l 103 0 l 103 983 l 481 983 q 688 917 606 983 q 769 725 769 850 m 219 579 l 481 579 q 656 725 656 579 q 481 867 656 867 l 219 867 l 219 579 m 219 117 l 481 117 q 642 151 585 114 q 699 283 699 189 q 481 463 699 465 l 219 463 l 219 117 z "},"Г":{"ha":726,"x_min":103,"x_max":707,"o":"m 219 868 l 219 0 l 103 0 l 103 983 l 707 983 l 707 868 l 219 868 z "},"Д":{"ha":957,"x_min":17,"x_max":914,"o":"m 17 -174 l 17 115 l 44 115 q 174 227 139 126 q 229 625 210 328 l 251 983 l 818 983 l 818 115 l 914 115 l 914 -174 l 797 -174 l 797 0 l 133 0 l 133 -174 l 17 -174 m 254 115 l 701 115 l 701 868 l 372 868 l 351 556 q 254 115 331 236 z "},"Е":{"ha":793,"x_min":103,"x_max":733,"o":"m 219 867 l 219 550 l 693 550 l 693 433 l 219 433 l 219 117 l 733 117 l 733 0 l 103 0 l 103 983 l 733 983 l 733 867 l 219 867 z "},"Ж":{"ha":1303,"x_min":4,"x_max":1299,"o":"m 501 443 l 156 0 l 4 0 l 411 517 l 4 983 l 157 983 l 593 486 l 593 983 l 710 983 l 710 486 l 1146 983 l 1299 983 l 892 517 l 1299 0 l 1147 0 l 801 443 l 710 344 l 710 0 l 593 0 l 593 344 l 501 443 z "},"З":{"ha":767,"x_min":25,"x_max":711,"o":"m 378 997 q 592 922 517 997 q 667 725 667 846 q 569 526 667 594 q 711 282 711 453 q 615 60 708 133 q 372 -14 522 -14 q 25 169 128 -14 l 133 224 q 376 103 210 103 q 596 283 596 103 q 376 467 596 467 l 242 467 l 242 575 l 376 575 q 504 611 457 575 q 551 724 551 647 q 502 840 551 800 q 369 881 453 881 q 247 858 296 881 q 156 788 199 836 l 57 839 q 378 997 165 997 z "},"И":{"ha":958,"x_min":103,"x_max":856,"o":"m 247 0 l 103 0 l 103 983 l 219 983 l 219 169 l 721 983 l 856 983 l 856 0 l 739 0 l 739 783 l 247 0 z "},"Й":{"ha":958,"x_min":103,"x_max":856,"o":"m 641 1125 q 608 1098 641 1125 q 485 1071 575 1071 q 328 1125 394 1071 q 251 1279 263 1179 l 367 1279 q 485 1178 390 1178 q 603 1279 579 1178 l 718 1279 q 641 1125 707 1179 m 247 0 l 103 0 l 103 983 l 219 983 l 219 169 l 721 983 l 856 983 l 856 0 l 739 0 l 739 783 l 247 0 z "},"К":{"ha":875,"x_min":103,"x_max":876,"o":"m 219 489 l 722 983 l 876 983 l 403 510 l 871 0 l 719 0 l 319 426 l 219 326 l 219 0 l 103 0 l 103 983 l 219 983 l 219 489 z "},"Л":{"ha":940,"x_min":14,"x_max":838,"o":"m 378 868 l 357 556 q 345 413 351 472 q 328 292 339 354 q 300 188 317 229 q 258 108 283 147 q 200 48 233 69 q 120 13 167 26 q 14 0 74 0 l 14 115 q 92 127 60 115 q 148 172 125 139 q 185 237 171 204 q 208 339 199 269 q 223 464 218 408 q 235 625 228 519 l 257 983 l 838 983 l 838 0 l 721 0 l 721 868 l 378 868 z "},"М":{"ha":1106,"x_min":103,"x_max":1003,"o":"m 219 764 l 219 0 l 103 0 l 103 983 l 249 983 l 553 297 l 857 983 l 1003 983 l 1003 0 l 886 0 l 886 765 l 603 129 l 504 129 l 219 764 z "},"Н":{"ha":953,"x_min":103,"x_max":850,"o":"m 219 433 l 219 0 l 103 0 l 103 983 l 219 983 l 219 549 l 733 549 l 733 983 l 850 983 l 850 0 l 733 0 l 733 433 l 219 433 z "},"О":{"ha":935,"x_min":74,"x_max":860,"o":"m 74 296 l 74 689 q 190 916 74 835 q 467 997 307 997 q 656 964 568 997 q 801 859 743 931 q 860 689 860 788 l 860 296 q 801 125 860 197 q 656 19 743 53 q 467 -14 568 -14 q 190 68 307 -14 q 74 296 74 150 m 189 689 l 189 297 q 271 154 189 206 q 467 103 353 103 q 662 154 579 103 q 744 297 744 206 l 744 689 q 663 834 744 785 q 465 883 581 883 q 270 833 351 882 q 189 689 189 783 z "},"П":{"ha":942,"x_min":103,"x_max":839,"o":"m 219 868 l 219 0 l 103 0 l 103 983 l 839 983 l 839 0 l 722 0 l 722 868 l 219 868 z "},"Р":{"ha":849,"x_min":103,"x_max":810,"o":"m 103 0 l 103 983 l 478 983 q 722 890 635 983 q 810 668 810 796 q 722 447 810 540 q 479 354 635 354 l 218 354 l 218 0 l 103 0 m 218 471 l 478 471 q 638 529 581 471 q 694 668 694 588 q 638 808 694 749 q 478 867 581 867 l 218 867 l 218 471 z "},"С":{"ha":828,"x_min":74,"x_max":796,"o":"m 74 293 l 74 686 q 185 914 74 831 q 449 997 297 997 q 656 947 561 997 q 796 800 751 896 l 692 750 q 590 849 658 814 q 444 883 522 883 q 266 831 342 883 q 190 689 190 779 l 190 293 q 266 153 190 203 q 444 103 342 103 q 592 137 524 103 q 692 235 660 171 l 796 186 q 653 38 750 90 q 444 -14 556 -14 q 184 67 294 -14 q 74 293 74 149 z "},"Т":{"ha":786,"x_min":19,"x_max":767,"o":"m 767 867 l 451 867 l 451 0 l 335 0 l 335 867 l 19 867 l 19 983 l 767 983 l 767 867 z "},"У":{"ha":726,"x_min":-19,"x_max":732,"o":"m 165 0 l 307 313 l -19 983 l 115 983 l 365 443 l 610 983 l 732 983 l 289 0 l 165 0 z "},"Ф":{"ha":1017,"x_min":57,"x_max":960,"o":"m 450 0 l 450 92 q 306 106 372 92 q 181 149 239 119 q 90 234 124 179 q 57 363 57 289 l 57 622 q 90 751 57 696 q 181 835 124 806 q 306 879 239 865 q 450 893 372 893 l 450 983 l 567 983 l 567 893 q 711 879 644 893 q 835 835 778 865 q 926 751 893 806 q 960 622 960 696 l 960 363 q 926 234 960 289 q 835 149 893 179 q 711 106 778 119 q 567 92 644 92 l 567 0 l 450 0 m 450 197 l 451 788 q 172 621 172 788 l 172 363 q 450 197 172 197 m 844 363 l 844 621 q 565 788 844 788 l 567 197 q 844 363 844 197 z "},"Х":{"ha":826,"x_min":6,"x_max":819,"o":"m 819 0 l 678 0 l 413 394 l 147 0 l 6 0 l 343 490 l 8 983 l 147 983 l 413 594 l 678 983 l 818 983 l 482 490 l 819 0 z "},"Ц":{"ha":958,"x_min":101,"x_max":915,"o":"m 101 983 l 218 983 l 218 115 l 703 115 l 703 983 l 819 983 l 819 115 l 915 115 l 915 -174 l 799 -174 l 799 0 l 101 0 l 101 983 z "},"Ч":{"ha":847,"x_min":60,"x_max":744,"o":"m 628 0 l 628 403 q 393 310 521 310 q 152 388 244 310 q 60 617 60 467 l 60 983 l 176 983 l 176 617 q 234 474 176 521 q 393 426 292 426 q 628 513 536 426 l 628 983 l 744 983 l 744 0 l 628 0 z "},"Ш":{"ha":1231,"x_min":103,"x_max":1128,"o":"m 557 983 l 674 983 l 674 115 l 1011 115 l 1011 983 l 1128 983 l 1128 0 l 103 0 l 103 983 l 219 983 l 219 115 l 557 115 l 557 983 z "},"Щ":{"ha":1265,"x_min":101,"x_max":1222,"o":"m 101 983 l 218 983 l 218 115 l 556 115 l 556 983 l 672 983 l 672 115 l 1010 115 l 1010 983 l 1126 983 l 1126 115 l 1222 115 l 1222 -174 l 1106 -174 l 1106 0 l 101 0 l 101 983 z "},"Ъ":{"ha":997,"x_min":22,"x_max":956,"o":"m 22 874 l 22 983 l 363 983 l 363 611 l 610 611 q 956 297 956 611 q 863 73 956 146 q 617 0 771 0 l 246 0 l 246 874 l 22 874 m 613 503 l 363 503 l 363 117 l 622 117 q 783 158 726 117 q 839 300 839 199 q 785 451 839 400 q 613 503 732 503 z "},"Ы":{"ha":1163,"x_min":103,"x_max":1060,"o":"m 474 0 l 103 0 l 103 983 l 219 983 l 219 611 l 467 611 q 813 297 813 611 q 720 73 813 146 q 474 0 628 0 m 1060 983 l 1060 0 l 944 0 l 944 983 l 1060 983 m 469 503 l 219 503 l 219 117 l 479 117 q 640 158 583 117 q 696 300 696 199 q 642 451 696 400 q 469 503 589 503 z "},"Ь":{"ha":854,"x_min":103,"x_max":813,"o":"m 474 0 l 103 0 l 103 983 l 219 983 l 219 611 l 467 611 q 813 297 813 611 q 720 73 813 146 q 474 0 628 0 m 469 503 l 219 503 l 219 117 l 479 117 q 640 158 583 117 q 696 300 696 199 q 642 451 696 400 q 469 503 589 503 z "},"Э":{"ha":835,"x_min":39,"x_max":761,"o":"m 386 997 q 649 914 538 997 q 761 686 761 831 l 761 297 q 651 72 761 153 q 390 -10 540 -10 q 182 42 279 -10 q 39 190 85 94 l 143 239 q 243 141 175 175 q 390 107 311 107 q 569 157 493 107 q 644 297 644 207 l 644 433 l 208 433 l 208 547 l 644 547 l 644 686 q 569 828 644 776 q 390 881 493 881 q 244 846 313 881 q 143 747 176 811 l 39 800 q 178 947 83 896 q 386 997 274 997 z "},"Ю":{"ha":1281,"x_min":100,"x_max":1206,"o":"m 217 444 l 217 0 l 100 0 l 100 983 l 217 983 l 217 554 l 419 554 l 419 689 q 536 916 419 835 q 813 997 653 997 q 1001 964 914 997 q 1147 859 1089 931 q 1206 689 1206 788 l 1206 296 q 1147 125 1206 197 q 1001 19 1089 53 q 813 -14 914 -14 q 536 68 653 -14 q 419 296 419 150 l 419 444 l 217 444 m 535 688 l 535 296 q 617 153 535 204 q 813 101 699 101 q 1008 153 925 101 q 1090 296 1090 204 l 1090 688 q 1008 833 1090 783 q 811 882 926 882 q 616 831 697 881 q 535 688 535 782 z "},"Я":{"ha":868,"x_min":13,"x_max":765,"o":"m 13 0 l 356 403 q 137 480 219 410 q 54 689 54 550 q 147 911 54 839 q 390 983 239 983 l 765 983 l 765 0 l 649 0 l 649 401 l 506 401 l 168 0 l 13 0 m 649 510 l 649 868 l 389 868 q 171 689 171 872 q 389 510 171 510 l 649 510 z "},"а":{"ha":678,"x_min":46,"x_max":600,"o":"m 489 406 l 489 501 q 439 596 489 561 q 319 631 389 631 q 142 553 206 631 l 72 621 q 190 704 121 675 q 328 733 258 733 q 519 672 439 733 q 600 501 600 611 l 600 35 q 303 -14 454 -17 q 117 44 188 -12 q 46 211 46 100 q 124 382 47 324 q 317 440 201 440 q 489 406 407 440 m 489 94 l 489 325 q 328 353 408 353 q 206 318 254 353 q 156 211 157 283 q 197 114 156 146 q 306 81 238 82 q 489 94 411 78 z "},"б":{"ha":706,"x_min":83,"x_max":639,"o":"m 83 226 l 83 739 q 357 964 83 939 q 557 1017 475 975 l 594 926 q 364 858 524 876 q 313 851 332 854 q 267 840 293 849 q 228 820 242 832 q 204 788 214 808 q 194 738 194 767 l 194 619 q 382 681 275 681 q 569 622 500 681 q 639 444 639 563 l 639 226 q 557 49 639 113 q 363 -14 475 -14 q 166 49 249 -14 q 83 226 83 113 m 194 521 l 194 226 q 245 130 194 164 q 363 96 296 96 q 478 130 428 96 q 528 226 528 164 l 528 444 q 371 575 528 575 q 194 521 275 575 z "},"в":{"ha":697,"x_min":89,"x_max":642,"o":"m 615 533 q 544 382 615 443 q 642 206 642 331 q 571 49 642 97 q 381 0 500 0 l 89 0 l 89 719 l 382 719 q 546 671 476 719 q 615 533 615 622 m 200 413 l 376 413 q 503 518 503 413 q 376 618 503 618 l 200 618 l 200 413 m 200 101 l 375 101 q 491 124 451 101 q 531 211 531 146 q 490 303 531 276 q 374 329 450 329 l 200 329 l 200 101 z "},"г":{"ha":542,"x_min":89,"x_max":525,"o":"m 89 0 l 89 719 l 525 719 l 525 613 l 200 613 l 200 0 l 89 0 z "},"д":{"ha":778,"x_min":21,"x_max":735,"o":"m 196 719 l 658 719 l 658 107 l 735 107 l 735 -149 l 624 -149 l 624 0 l 132 0 l 132 -149 l 21 -149 l 21 107 l 36 107 q 140 182 117 114 q 175 435 163 250 q 178 472 176 460 l 196 719 m 214 107 l 547 107 l 547 613 l 297 613 l 285 431 q 214 107 265 178 z "},"е":{"ha":678,"x_min":67,"x_max":621,"o":"m 179 304 l 179 217 q 228 122 179 154 q 346 89 276 89 q 444 114 399 89 q 510 186 489 139 l 607 144 q 499 27 571 68 q 346 -14 428 -14 q 150 49 233 -14 q 67 225 67 113 l 67 494 q 149 671 67 608 q 346 733 232 733 q 539 671 457 733 q 621 494 621 608 l 621 304 l 179 304 m 515 397 l 515 500 q 464 596 515 560 q 346 632 413 632 q 226 597 274 632 q 179 497 178 561 l 179 397 l 515 397 z "},"ж":{"ha":1046,"x_min":15,"x_max":1031,"o":"m 578 0 l 468 0 l 468 282 l 421 329 l 163 0 l 22 0 l 338 397 l 15 719 l 160 719 l 468 407 l 468 719 l 578 719 l 578 407 l 886 719 l 1031 719 l 708 397 l 1024 0 l 883 0 l 625 329 l 578 282 l 578 0 z "},"з":{"ha":619,"x_min":35,"x_max":567,"o":"m 301 733 q 472 677 407 733 q 536 535 536 621 q 512 447 536 488 q 450 388 488 407 q 535 318 503 368 q 567 204 567 268 q 487 42 567 97 q 299 -14 407 -14 q 35 121 113 -14 l 121 172 q 294 90 175 90 q 409 119 364 90 q 454 206 454 147 q 294 333 454 333 l 196 333 l 196 424 l 294 424 q 388 451 353 424 q 424 533 424 478 q 292 628 424 628 q 126 553 190 628 l 53 608 q 301 733 136 733 z "},"и":{"ha":739,"x_min":89,"x_max":650,"o":"m 200 147 l 247 244 l 507 719 l 650 719 l 650 0 l 539 0 l 539 475 l 542 569 l 539 569 l 490 472 l 226 0 l 89 0 l 89 719 l 200 719 l 200 250 l 197 147 l 200 147 z "},"й":{"ha":739,"x_min":89,"x_max":650,"o":"m 498 836 q 471 813 498 836 q 378 790 444 790 q 258 836 311 790 q 196 964 204 882 l 297 964 q 328 912 306 931 q 378 893 350 893 q 428 912 406 893 q 458 964 450 931 l 560 964 q 498 836 551 882 m 200 147 l 247 244 l 507 719 l 650 719 l 650 0 l 539 0 l 539 475 l 542 569 l 539 569 l 490 472 l 226 0 l 89 0 l 89 719 l 200 719 l 200 250 l 197 147 l 200 147 z "},"к":{"ha":692,"x_min":89,"x_max":678,"o":"m 200 719 l 200 386 q 367 553 256 442 q 533 719 478 664 l 678 719 l 353 392 l 671 0 l 531 0 l 275 313 l 200 238 l 200 0 l 89 0 l 89 719 l 200 719 z "},"л":{"ha":738,"x_min":17,"x_max":649,"o":"m 538 613 l 300 613 l 282 368 q 257 144 269 192 q 139 15 229 44 q 17 0 90 0 l 17 108 q 140 149 117 108 q 174 363 163 190 q 178 421 176 400 l 199 719 l 649 719 l 649 0 l 538 0 l 538 613 z "},"м":{"ha":889,"x_min":89,"x_max":800,"o":"m 200 532 l 200 0 l 89 0 l 89 719 l 226 719 l 444 254 l 663 719 l 800 719 l 800 0 l 689 0 l 689 532 l 482 94 l 407 94 l 200 532 z "},"н":{"ha":732,"x_min":89,"x_max":643,"o":"m 200 719 l 200 429 l 532 429 l 532 719 l 643 719 l 643 0 l 532 0 l 532 322 l 200 322 l 200 0 l 89 0 l 89 719 l 200 719 z "},"о":{"ha":688,"x_min":65,"x_max":621,"o":"m 65 226 l 65 493 q 148 669 65 606 q 344 733 231 732 q 539 669 457 732 q 621 493 621 606 l 621 226 q 539 50 621 113 q 344 -14 457 -12 q 148 50 231 -12 q 65 226 65 113 m 344 628 q 227 594 278 628 q 176 496 176 560 l 176 225 q 227 126 176 161 q 344 92 278 92 q 460 126 410 92 q 510 225 510 161 l 510 496 q 460 593 510 558 q 344 628 410 628 z "},"п":{"ha":726,"x_min":89,"x_max":638,"o":"m 200 0 l 89 0 l 89 719 l 638 719 l 638 0 l 526 0 l 526 613 l 200 613 l 200 0 z "},"р":{"ha":728,"x_min":97,"x_max":654,"o":"m 97 -251 l 97 682 q 379 733 256 733 q 573 670 492 732 q 654 494 654 608 l 654 228 q 571 51 654 115 q 375 -12 488 -14 q 208 26 285 -12 l 208 -251 l 97 -251 m 208 610 l 208 125 q 376 93 294 93 q 492 130 443 94 q 542 226 542 165 l 542 496 q 493 591 542 556 q 379 626 444 626 q 208 610 265 626 z "},"с":{"ha":649,"x_min":65,"x_max":613,"o":"m 601 590 l 514 539 q 441 606 482 589 q 343 622 400 622 q 226 589 275 622 q 176 493 176 556 l 176 224 q 225 126 176 163 q 344 90 274 90 q 524 204 479 90 l 613 163 q 508 32 583 78 q 343 -14 432 -14 q 148 49 231 -14 q 65 226 65 113 l 65 493 q 148 670 65 607 q 343 733 231 733 q 489 702 426 733 q 601 590 551 671 z "},"т":{"ha":597,"x_min":21,"x_max":576,"o":"m 243 613 l 21 613 l 21 719 l 576 719 l 576 613 l 354 613 l 354 0 l 243 0 l 243 613 z "},"у":{"ha":740,"x_min":83,"x_max":651,"o":"m 110 -157 l 186 -87 q 263 -141 214 -122 q 363 -160 311 -160 q 489 -127 438 -160 q 540 -25 540 -94 l 540 31 q 368 -14 479 -11 q 169 52 254 -15 q 83 233 83 119 l 83 719 l 197 719 l 197 231 q 248 131 197 168 q 365 93 299 94 q 540 128 451 93 l 540 719 l 651 719 l 651 -25 q 569 -206 651 -143 q 371 -268 488 -268 q 228 -239 299 -268 q 110 -157 157 -210 z "},"ф":{"ha":969,"x_min":67,"x_max":903,"o":"m 540 983 l 540 714 q 651 733 576 733 q 824 669 744 733 q 903 493 903 604 l 903 226 q 824 51 903 115 q 651 -14 744 -14 q 540 6 576 -14 l 540 -251 l 429 -251 l 429 6 q 318 -14 393 -14 q 146 51 225 -14 q 67 226 67 115 l 67 493 q 146 669 67 604 q 318 733 225 733 q 429 714 393 733 l 429 983 l 540 983 m 429 107 l 429 613 q 346 626 394 626 q 230 591 282 626 q 178 493 178 556 l 178 226 q 230 128 178 164 q 346 93 282 93 q 429 107 394 93 m 540 613 l 540 107 q 624 93 575 93 q 740 128 688 93 q 792 226 792 164 l 792 493 q 740 591 792 556 q 624 626 688 626 q 540 613 575 626 z "},"х":{"ha":671,"x_min":21,"x_max":650,"o":"m 403 360 l 650 0 l 514 0 l 336 271 l 157 0 l 21 0 l 269 360 l 21 719 l 157 719 l 336 447 l 514 719 l 650 719 l 403 360 z "},"ц":{"ha":750,"x_min":88,"x_max":708,"o":"m 708 -149 l 597 -149 l 597 0 l 88 0 l 88 719 l 199 719 l 199 107 l 518 107 l 518 719 l 629 719 l 629 107 l 708 107 l 708 -149 z "},"ч":{"ha":679,"x_min":50,"x_max":590,"o":"m 161 719 l 161 456 q 202 353 161 386 q 311 318 243 319 q 479 354 407 318 l 479 719 l 590 719 l 590 0 l 479 0 l 479 257 q 313 208 404 208 q 126 272 201 207 q 50 449 50 336 l 50 719 l 161 719 z "},"ш":{"ha":1011,"x_min":89,"x_max":922,"o":"m 89 719 l 200 719 l 200 107 l 450 107 l 450 719 l 561 719 l 561 107 l 811 107 l 811 719 l 922 719 l 922 0 l 89 0 l 89 719 z "},"щ":{"ha":1042,"x_min":88,"x_max":1000,"o":"m 88 719 l 199 719 l 199 107 l 449 107 l 449 719 l 560 719 l 560 107 l 810 107 l 810 719 l 921 719 l 921 107 l 1000 107 l 1000 -149 l 889 -149 l 889 0 l 88 0 l 88 719 z "},"ъ":{"ha":785,"x_min":19,"x_max":749,"o":"m 189 618 l 19 618 l 19 719 l 300 719 l 300 468 l 524 468 q 692 405 635 468 q 749 229 749 342 q 676 58 749 115 q 488 0 604 0 l 189 0 l 189 618 m 300 103 l 482 103 q 638 231 638 103 q 597 335 638 306 q 481 367 557 365 l 300 367 l 300 103 z "},"ы":{"ha":969,"x_min":89,"x_max":881,"o":"m 200 468 l 424 468 q 592 405 535 468 q 649 229 649 342 q 576 58 649 115 q 388 0 504 0 l 89 0 l 89 719 l 200 719 l 200 468 m 769 719 l 769 0 l 881 0 l 881 719 l 769 719 m 200 103 l 382 103 q 538 231 538 103 q 497 335 538 306 q 381 367 457 365 l 200 367 l 200 103 z "},"ь":{"ha":683,"x_min":89,"x_max":649,"o":"m 200 468 l 424 468 q 592 405 535 468 q 649 229 649 342 q 576 58 649 115 q 388 0 504 0 l 89 0 l 89 719 l 200 719 l 200 468 m 200 103 l 382 103 q 538 231 538 103 q 497 335 538 306 q 381 367 457 365 l 200 367 l 200 103 z "},"э":{"ha":651,"x_min":39,"x_max":586,"o":"m 475 413 l 475 492 q 426 587 475 553 q 308 621 376 621 q 213 603 257 621 q 150 549 168 585 l 140 535 l 50 589 q 159 695 89 658 q 308 732 229 732 q 503 669 421 732 q 586 492 586 606 l 586 229 q 503 52 586 115 q 308 -11 421 -11 q 144 35 219 -11 q 39 165 68 81 l 140 214 q 203 129 156 158 q 308 100 250 100 q 426 133 376 100 q 475 226 475 167 l 475 315 l 200 315 l 200 413 l 475 413 z "},"ю":{"ha":1001,"x_min":85,"x_max":935,"o":"m 196 326 l 196 0 l 85 0 l 85 719 l 196 719 l 196 429 l 379 429 l 379 493 q 462 669 379 606 q 658 733 544 732 q 853 669 771 732 q 935 493 935 606 l 935 226 q 853 50 935 113 q 658 -14 771 -12 q 462 50 544 -12 q 379 226 379 113 l 379 326 l 196 326 m 658 622 q 540 589 590 622 q 490 493 490 556 l 490 226 q 541 130 490 164 q 658 96 592 96 q 774 130 724 96 q 824 226 824 164 l 824 493 q 774 589 824 556 q 658 622 724 622 z "},"я":{"ha":697,"x_min":21,"x_max":608,"o":"m 21 0 l 258 294 q 117 355 172 300 q 61 504 61 410 q 129 667 61 614 q 308 719 197 719 l 608 719 l 608 0 l 497 0 l 497 294 l 390 294 l 157 0 l 21 0 m 497 378 l 497 618 l 310 618 q 174 503 174 618 q 210 406 174 435 q 325 378 247 378 l 497 378 z "},"ё":{"ha":678,"x_min":67,"x_max":621,"o":"m 169 840 q 159 851 169 840 q 149 892 149 861 q 169 944 149 922 q 221 965 190 965 q 272 944 251 965 q 293 892 293 922 q 272 840 293 861 q 221 819 251 819 q 169 840 190 819 m 400 892 q 421 944 400 924 q 472 965 442 965 q 524 944 503 965 q 544 892 544 922 q 524 840 544 861 q 472 819 503 819 q 421 840 442 819 q 400 892 400 861 m 179 304 l 179 217 q 228 122 179 154 q 346 89 276 89 q 444 114 399 89 q 510 186 489 139 l 607 144 q 499 27 571 68 q 346 -14 428 -14 q 150 49 233 -14 q 67 225 67 113 l 67 494 q 149 671 67 608 q 346 733 232 733 q 539 671 457 733 q 621 494 621 608 l 621 304 l 179 304 m 515 397 l 515 500 q 464 596 515 560 q 346 632 413 632 q 226 597 274 632 q 179 497 178 561 l 179 397 l 515 397 z "},"Ẁ":{"ha":1296,"x_min":14,"x_max":1282,"o":"m 463 1238 l 611 1238 l 725 1051 l 611 1051 l 463 1238 m 1163 983 l 1282 983 l 997 0 l 856 0 l 649 654 l 440 0 l 299 0 l 14 983 l 135 983 l 371 139 l 597 860 l 700 860 l 925 140 l 1163 983 z "},"ẁ":{"ha":990,"x_min":18,"x_max":971,"o":"m 308 974 l 457 974 l 571 788 l 457 788 l 308 974 m 444 708 l 544 708 l 692 110 l 696 110 l 744 317 l 863 719 l 971 719 l 756 0 l 622 0 l 546 322 l 496 563 l 446 321 l 368 0 l 235 0 l 18 719 l 131 719 l 249 317 l 297 110 l 301 110 l 444 708 z "},"Ẃ":{"ha":1296,"x_min":14,"x_max":1282,"o":"m 685 1235 l 831 1235 l 689 1050 l 567 1050 l 685 1235 m 1163 983 l 1282 983 l 997 0 l 856 0 l 649 654 l 440 0 l 299 0 l 14 983 l 135 983 l 371 139 l 597 860 l 700 860 l 925 140 l 1163 983 z "},"ẃ":{"ha":990,"x_min":18,"x_max":971,"o":"m 531 971 l 676 971 l 535 786 l 413 786 l 531 971 m 444 708 l 544 708 l 692 110 l 696 110 l 744 317 l 863 719 l 971 719 l 756 0 l 622 0 l 546 322 l 496 563 l 446 321 l 368 0 l 235 0 l 18 719 l 131 719 l 249 317 l 297 110 l 301 110 l 444 708 z "},"Ẅ":{"ha":1296,"x_min":14,"x_max":1282,"o":"m 472 1090 q 462 1101 472 1090 q 451 1142 451 1111 q 472 1194 451 1172 q 524 1215 493 1215 q 575 1194 554 1215 q 596 1142 596 1172 q 575 1090 596 1111 q 524 1069 554 1069 q 472 1090 493 1069 m 703 1142 q 724 1194 703 1174 q 775 1215 744 1215 q 826 1194 806 1215 q 847 1142 847 1172 q 826 1090 847 1111 q 775 1069 806 1069 q 724 1090 744 1069 q 703 1142 703 1111 m 1163 983 l 1282 983 l 997 0 l 856 0 l 649 654 l 440 0 l 299 0 l 14 983 l 135 983 l 371 139 l 597 860 l 700 860 l 925 140 l 1163 983 z "},"ẅ":{"ha":990,"x_min":18,"x_max":971,"o":"m 318 826 q 308 837 318 826 q 297 878 297 847 q 318 930 297 908 q 369 951 339 951 q 421 930 400 951 q 442 878 442 908 q 421 826 442 847 q 369 806 400 806 q 318 826 339 806 m 549 878 q 569 931 549 910 q 621 951 590 951 q 672 930 651 951 q 693 878 693 908 q 672 826 693 847 q 621 806 651 806 q 569 826 590 806 q 549 878 549 847 m 444 708 l 544 708 l 692 110 l 696 110 l 744 317 l 863 719 l 971 719 l 756 0 l 622 0 l 546 322 l 496 563 l 446 321 l 368 0 l 235 0 l 18 719 l 131 719 l 249 317 l 297 110 l 301 110 l 444 708 z "},"Ỳ":{"ha":804,"x_min":1,"x_max":803,"o":"m 217 1238 l 365 1238 l 479 1051 l 365 1051 l 217 1238 m 460 0 l 343 0 l 343 383 l 1 983 l 136 983 l 403 507 l 667 983 l 803 983 l 460 383 l 460 0 z "},"ỳ":{"ha":740,"x_min":83,"x_max":651,"o":"m 182 974 l 331 974 l 444 788 l 331 788 l 182 974 m 110 -157 l 186 -87 q 263 -141 214 -122 q 363 -160 311 -160 q 489 -127 438 -160 q 540 -25 540 -94 l 540 31 q 368 -14 479 -11 q 169 52 254 -15 q 83 233 83 119 l 83 719 l 197 719 l 197 231 q 248 131 197 168 q 365 93 299 94 q 540 128 451 93 l 540 719 l 651 719 l 651 -25 q 569 -206 651 -143 q 371 -268 488 -268 q 228 -239 299 -268 q 110 -157 157 -210 z "},"–":{"ha":810,"x_min":81,"x_max":729,"o":"m 729 469 l 729 357 l 81 357 l 81 469 l 729 469 z "},"—":{"ha":1376,"x_min":79,"x_max":1297,"o":"m 1297 469 l 1297 357 l 79 357 l 79 469 l 1297 469 z "},"‘":{"ha":332,"x_min":57,"x_max":286,"o":"m 57 632 l 169 969 l 286 969 l 190 632 l 57 632 z "},"’":{"ha":328,"x_min":58,"x_max":288,"o":"m 288 969 l 174 632 l 58 632 l 153 969 l 288 969 z "},"‚":{"ha":311,"x_min":8,"x_max":238,"o":"m 238 136 l 122 -182 l 8 -182 l 101 136 l 238 136 z "},"“":{"ha":551,"x_min":56,"x_max":506,"o":"m 56 632 l 169 969 l 283 969 l 190 632 l 56 632 m 278 632 l 392 969 l 506 969 l 413 632 l 278 632 z "},"”":{"ha":540,"x_min":57,"x_max":500,"o":"m 285 969 l 171 632 l 57 632 l 150 969 l 285 969 m 500 969 l 388 632 l 272 632 l 365 969 l 500 969 z "},"„":{"ha":529,"x_min":8,"x_max":453,"o":"m 238 131 l 122 -182 l 8 -182 l 101 131 l 238 131 m 453 131 l 339 -182 l 224 -182 l 318 131 l 453 131 z "},"†":{"ha":693,"x_min":36,"x_max":657,"o":"m 36 607 l 36 714 l 289 714 l 289 969 l 404 969 l 404 714 l 657 714 l 657 607 l 404 607 l 404 -167 l 289 -167 l 289 607 l 36 607 z "},"‡":{"ha":771,"x_min":75,"x_max":696,"o":"m 75 92 l 75 196 l 328 196 l 328 607 l 75 607 l 75 713 l 328 713 l 328 969 l 443 969 l 443 713 l 696 713 l 696 607 l 443 607 l 443 196 l 696 196 l 696 92 l 443 92 l 443 -167 l 328 -167 l 328 92 l 75 92 z "},"•":{"ha":590,"x_min":86,"x_max":504,"o":"m 86 485 q 147 633 86 572 q 296 694 208 694 q 443 633 382 694 q 504 485 504 572 q 443 337 504 399 q 296 275 382 275 q 147 337 208 275 q 86 485 86 399 z "},"…":{"ha":846,"x_min":67,"x_max":779,"o":"m 90 15 q 78 27 90 15 q 67 74 67 39 q 90 132 67 108 q 149 156 114 156 q 207 132 183 156 q 231 74 231 108 q 207 15 231 39 q 149 -8 183 -8 q 90 15 114 -8 m 365 15 q 353 27 365 15 q 342 74 342 39 q 365 132 342 108 q 424 156 389 156 q 482 132 458 156 q 506 74 506 108 q 482 15 506 39 q 424 -8 458 -8 q 365 15 389 -8 m 640 15 q 628 27 640 15 q 617 74 617 39 q 640 132 617 108 q 697 156 663 156 q 756 132 732 156 q 779 74 779 108 q 756 15 779 39 q 697 -8 732 -8 q 640 15 663 -8 z "},"‰":{"ha":1542,"x_min":40,"x_max":1506,"o":"m 140 -39 l 818 1032 l 913 972 l 236 -99 l 140 -39 m 467 729 q 408 532 467 606 q 254 458 349 458 q 96 528 151 458 q 40 729 40 597 q 100 924 40 851 q 254 997 160 997 q 410 927 354 997 q 467 729 467 857 m 254 572 q 354 729 354 572 q 253 886 354 886 q 154 729 154 886 q 178 609 154 646 q 254 572 203 572 m 1029 254 q 969 58 1029 131 q 817 -14 910 -14 q 658 56 714 -14 q 603 257 603 125 q 663 451 603 379 q 817 524 722 524 q 973 453 917 524 q 1029 254 1029 382 m 1506 254 q 1447 58 1506 131 q 1294 -14 1388 -14 q 1136 56 1192 -14 q 1081 257 1081 125 q 1140 451 1081 379 q 1294 524 1199 524 q 1449 453 1393 524 q 1506 254 1506 382 m 915 254 q 814 414 915 414 q 717 257 717 414 q 740 136 717 174 q 817 99 764 99 q 915 254 915 99 m 1393 254 q 1292 414 1393 414 q 1193 257 1193 414 q 1217 136 1193 174 q 1294 99 1242 99 q 1393 254 1393 99 z "},"‹":{"ha":400,"x_min":46,"x_max":339,"o":"m 243 700 l 339 642 l 178 407 q 247 307 185 397 q 339 172 310 217 l 243 115 l 46 407 l 243 700 z "},"›":{"ha":400,"x_min":61,"x_max":354,"o":"m 158 115 l 61 171 l 222 407 q 153 507 215 417 q 61 642 90 597 l 158 700 l 354 407 l 158 115 z "},"⁄":{"ha":725,"x_min":7,"x_max":718,"o":"m 718 965 l 97 -51 l 7 4 l 626 1021 l 718 965 z "},"€":{"ha":849,"x_min":39,"x_max":794,"o":"m 132 619 l 132 692 q 233 916 132 835 q 471 997 333 997 q 660 946 572 997 q 794 800 749 894 l 690 747 q 598 847 658 813 q 471 881 538 881 q 312 830 379 881 q 244 692 244 779 l 244 619 l 606 619 l 586 524 l 244 524 l 244 464 l 608 464 l 589 369 l 244 369 l 244 290 q 310 151 244 201 q 468 101 376 101 q 598 135 538 101 q 690 233 658 169 l 794 183 q 660 37 749 88 q 468 -14 571 -14 q 231 66 331 -14 q 132 290 132 146 l 132 369 l 39 369 l 60 464 l 132 464 l 132 524 l 44 524 l 64 619 l 132 619 z "},"ℓ":{"ha":624,"x_min":28,"x_max":597,"o":"m 515 232 l 597 167 q 350 -14 504 -14 q 191 55 244 -14 q 131 238 138 124 l 69 189 l 28 268 q 131 369 44 283 l 131 728 q 189 981 131 904 q 332 1058 247 1058 q 456 995 413 1058 q 499 832 499 932 q 239 326 499 593 l 239 296 q 363 94 240 94 q 449 133 407 94 q 515 232 490 172 m 239 735 l 239 476 q 393 829 393 671 q 328 950 393 950 q 265 899 292 950 q 239 735 239 849 z "},"™":{"ha":1163,"x_min":42,"x_max":1072,"o":"m 213 433 l 213 882 l 42 882 l 42 983 l 489 983 l 489 882 l 318 882 l 318 433 l 213 433 m 542 433 l 542 983 l 651 983 l 807 644 q 883 809 829 694 q 963 983 936 924 l 1072 983 l 1072 433 l 967 433 l 971 767 l 847 494 l 765 494 l 644 760 l 647 433 l 542 433 z "},"Ω":{"ha":1085,"x_min":63,"x_max":1022,"o":"m 63 110 l 257 110 q 79 524 79 278 q 215 865 79 735 q 550 994 350 994 q 878 860 750 994 q 1006 529 1006 725 q 957 292 1006 400 q 832 110 908 183 l 1022 110 l 1022 0 l 626 0 l 626 79 q 816 263 743 144 q 889 529 889 382 q 794 776 889 667 q 547 886 700 886 q 296 783 394 886 q 197 521 197 679 q 271 272 197 386 q 464 79 344 157 l 464 0 l 63 0 l 63 110 z "},"℮":{"ha":1206,"x_min":57,"x_max":1165,"o":"m 292 453 l 292 203 q 297 186 292 197 q 613 49 440 49 q 949 208 807 49 l 1076 208 q 866 46 989 106 q 611 -14 743 -14 q 219 132 382 -14 q 57 485 57 278 q 219 839 57 692 q 611 986 382 986 q 1003 839 842 986 q 1165 485 1165 692 l 1165 453 l 292 453 m 292 515 l 932 515 l 932 769 q 925 788 932 781 q 613 919 789 919 q 444 883 526 919 q 300 785 363 846 q 292 764 292 776 l 292 515 z "},"∂":{"ha":703,"x_min":56,"x_max":643,"o":"m 139 851 l 93 944 q 318 1025 193 1025 q 548 899 453 1025 q 643 531 643 774 q 556 135 643 285 q 307 -14 469 -14 q 122 75 188 -14 q 56 292 56 164 q 140 540 56 444 q 339 635 225 635 q 532 550 450 635 q 470 813 532 707 q 311 919 408 919 q 139 851 224 919 m 310 97 q 453 188 393 97 q 519 406 514 279 q 454 490 504 451 q 343 529 404 529 q 221 460 272 529 q 169 294 169 390 q 207 151 169 204 q 310 97 244 97 z "},"∆":{"ha":824,"x_min":35,"x_max":789,"o":"m 356 992 l 469 992 l 789 79 l 789 0 l 35 0 l 35 78 l 356 992 m 169 111 l 647 111 q 410 804 440 714 l 169 111 z "},"∏":{"ha":900,"x_min":36,"x_max":864,"o":"m 726 -92 l 614 -92 l 614 874 l 283 874 l 283 -92 l 171 -92 l 171 874 l 36 874 l 36 983 l 864 983 l 864 874 l 726 874 l 726 -92 z "},"∑":{"ha":756,"x_min":42,"x_max":707,"o":"m 42 -37 l 390 424 l 58 888 l 58 968 l 686 968 l 686 861 l 215 861 l 522 428 l 193 -14 l 707 -14 l 707 -115 l 42 -115 l 42 -37 z "},"−":{"ha":875,"x_min":83,"x_max":792,"o":"m 792 476 l 792 368 l 83 368 l 83 476 l 792 476 z "},"∕":{"ha":717,"x_min":3,"x_max":714,"o":"m 714 965 l 93 -51 l 3 4 l 622 1021 l 714 965 z "},"∙":{"ha":314,"x_min":76,"x_max":239,"o":"m 100 379 q 88 391 100 379 q 76 438 76 403 q 100 496 76 472 q 158 519 124 519 q 216 496 193 519 q 239 438 239 472 q 216 379 239 403 q 158 356 193 356 q 100 379 124 356 z "},"√":{"ha":729,"x_min":7,"x_max":715,"o":"m 332 -203 l 136 404 q 93 388 128 401 q 44 371 58 375 l 7 471 l 207 547 l 369 18 l 599 1140 l 715 1140 l 432 -203 l 332 -203 z "},"∞":{"ha":1006,"x_min":60,"x_max":946,"o":"m 946 404 l 946 403 q 882 246 946 307 q 732 185 818 185 q 622 217 674 185 q 504 319 571 249 q 392 219 444 254 q 269 185 339 185 q 121 247 182 185 q 60 399 60 308 q 122 557 60 494 q 278 619 183 619 q 397 583 343 619 q 508 482 451 547 q 576 551 549 526 q 649 598 604 576 q 742 619 694 619 q 890 558 833 618 q 946 404 946 499 m 276 290 l 278 290 q 435 396 339 290 l 439 400 q 388 456 408 436 q 334 495 367 476 q 268 514 301 514 q 196 481 222 514 q 169 399 169 447 q 199 322 169 353 q 276 290 229 290 m 735 514 q 582 413 676 514 l 574 403 q 665 316 631 342 q 736 290 700 290 q 810 323 782 290 q 838 399 838 356 q 809 483 838 453 q 735 514 781 514 z "},"∫":{"ha":469,"x_min":11,"x_max":456,"o":"m 456 1140 l 431 1040 q 353 1072 383 1072 q 301 1040 321 1072 q 283 951 282 1007 l 290 603 q 300 0 300 90 q 247 -154 300 -101 q 117 -207 194 -207 q 11 -181 72 -207 l 38 -87 q 106 -106 82 -106 q 167 -76 144 -106 q 190 1 190 -47 q 182 488 190 110 q 174 960 174 860 q 224 1119 174 1063 q 347 1176 275 1176 q 456 1140 399 1176 z "},"≈":{"ha":744,"x_min":72,"x_max":672,"o":"m 597 574 l 671 508 q 504 399 597 399 q 347 456 446 399 q 244 494 281 494 q 150 422 203 494 l 72 485 q 253 599 151 599 q 386 553 313 599 l 385 554 l 403 544 l 418 535 l 415 536 q 424 532 417 533 q 510 503 475 503 q 597 574 551 503 m 593 376 l 672 318 q 504 208 599 208 q 451 217 478 208 q 406 233 424 225 q 346 265 389 242 q 244 304 276 304 q 151 232 200 304 l 72 296 q 253 410 147 410 q 382 368 301 410 l 390 363 l 385 367 l 403 356 l 410 353 q 510 315 472 315 q 593 376 547 315 z "},"≠":{"ha":760,"x_min":71,"x_max":689,"o":"m 689 567 l 689 460 l 460 460 q 434 401 451 440 q 403 331 417 361 l 689 331 l 689 224 l 356 224 l 326 160 q 306 113 321 147 q 285 67 290 79 l 193 114 l 244 224 l 71 224 l 71 331 l 292 331 q 317 392 301 353 q 347 460 333 431 l 71 460 l 71 567 l 397 567 l 424 629 l 467 719 l 557 678 l 506 567 l 689 567 z "},"≤":{"ha":675,"x_min":64,"x_max":600,"o":"m 222 532 l 582 336 l 582 211 l 82 493 l 82 574 l 582 860 l 582 733 l 222 532 m 64 167 l 600 167 l 600 60 l 64 60 l 64 167 z "},"≥":{"ha":674,"x_min":74,"x_max":610,"o":"m 592 569 l 592 489 l 92 207 l 92 332 l 451 528 l 92 729 l 92 856 l 592 569 m 74 167 l 610 167 l 610 60 l 74 60 l 74 167 z "},"◊":{"ha":750,"x_min":31,"x_max":719,"o":"m 719 488 l 422 -42 l 322 -42 l 31 486 l 328 1015 l 426 1015 l 719 488 m 586 486 l 379 850 q 372 861 378 856 l 364 846 l 164 489 l 372 117 l 375 111 q 382 124 376 115 l 586 486 z "},"ﬁ":{"ha":682,"x_min":89,"x_max":613,"o":"m 357 990 l 357 882 q 241 847 282 882 q 200 750 200 813 l 200 617 l 347 617 l 347 506 l 200 506 l 200 0 l 89 0 l 89 750 q 164 927 89 865 q 357 990 239 989 m 457 901 q 480 957 457 935 q 535 979 503 979 q 590 957 568 979 q 613 901 613 935 q 590 847 613 869 q 535 824 568 824 q 480 847 503 824 q 457 901 457 869 m 593 0 l 482 0 l 482 724 l 593 724 l 593 0 z "},"ﬂ":{"ha":726,"x_min":88,"x_max":717,"o":"m 356 990 l 356 882 q 240 847 281 882 q 199 750 199 813 l 199 617 l 346 617 l 346 506 l 199 506 l 199 0 l 88 0 l 88 750 q 163 927 88 865 q 356 990 238 989 m 717 97 l 717 -14 q 536 48 600 -14 q 472 221 472 110 l 472 971 l 583 971 l 583 221 q 717 97 583 97 z "}}}
